<?xml version="1.0" encoding="utf-8" standalone="no"?>
<!DOCTYPE svg PUBLIC "-//W3C//DTD SVG 1.1//EN"
        "http://www.w3.org/Graphics/SVG/1.1/DTD/svg11.dtd">
<svg xmlns:xlink="http://www.w3.org/1999/xlink" width="465.993789pt" height="288pt" viewBox="0 0 465.993789 288"
     xmlns="http://www.w3.org/2000/svg" version="1.1">
    <metadata>
        <rdf:RDF xmlns:dc="http://purl.org/dc/elements/1.1/" xmlns:cc="http://creativecommons.org/ns#"
                 xmlns:rdf="http://www.w3.org/1999/02/22-rdf-syntax-ns#">
            <cc:Work>
                <dc:type rdf:resource="http://purl.org/dc/dcmitype/StillImage"/>
                <dc:date>2024-04-27T02:59:34.515603</dc:date>
                <dc:format>image/svg+xml</dc:format>
                <dc:creator>
                    <cc:Agent>
                        <dc:title>Matplotlib v3.8.4, https://matplotlib.org/</dc:title>
                    </cc:Agent>
                </dc:creator>
            </cc:Work>
        </rdf:RDF>
    </metadata>
    <defs>
        <style type="text/css">*{stroke-linejoin: round; stroke-linecap: butt}</style>
    </defs>
    <g id="figure_1">
        <g id="patch_1">
            <path d="M 0 288
L 465.993789 288 
L 465.993789 0 
L 0 0 
z
" style="fill: #ffffff"/>
        </g>
        <g id="axes_1">
            <g id="patch_2">
                <path d="M 58.249224 256.32
L 419.39441 256.32 
L 419.39441 34.56 
L 58.249224 34.56 
z
" style="fill: #ffffff"/>
            </g>
            <g id="matplotlib.axis_1">
                <g id="xtick_1">
                    <g id="line2d_1">
                        <path d="M 74.664914 256.32
L 74.664914 34.56 
" clip-path="url(#p4f8f4e6de5)" style="fill: none; stroke: #b0b0b0; stroke-width: 0.8; stroke-linecap: square"/>
                    </g>
                    <g id="line2d_2">
                        <defs>
                            <path id="m33e72017bf" d="M 0 0
L 0 3.5 
" style="stroke: #000000; stroke-width: 0.8"/>
                        </defs>
                        <g>
                            <use xlink:href="#m33e72017bf" x="74.664914" y="256.32"
                                 style="stroke: #000000; stroke-width: 0.8"/>
                        </g>
                    </g>
                    <g id="text_1">
                        <!-- $\mathdefault{0}$ -->
                        <g transform="translate(72.174246 270.238498) scale(0.1 -0.1)">
                            <defs>
                                <path id="CMR17-30" d="M 2688 2038
C 2688 2430 2682 3099 2413 3613 
C 2176 4063 1798 4224 1466 4224 
C 1158 4224 768 4082 525 3620 
C 269 3137 243 2539 243 2038 
C 243 1671 250 1112 448 623 
C 723 -39 1216 -128 1466 -128 
C 1760 -128 2208 -7 2470 604 
C 2662 1048 2688 1568 2688 2038 
z
M 1466 -26 
C 1056 -26 813 328 723 816 
C 653 1196 653 1749 653 2109 
C 653 2604 653 3015 736 3407 
C 858 3954 1216 4121 1466 4121 
C 1728 4121 2067 3947 2189 3420 
C 2272 3054 2278 2623 2278 2109 
C 2278 1691 2278 1176 2202 797 
C 2067 96 1690 -26 1466 -26 
z
" transform="scale(0.015625)"/>
                            </defs>
                            <use xlink:href="#CMR17-30" transform="scale(0.996264)"/>
                        </g>
                    </g>
                </g>
                <g id="xtick_2">
                    <g id="line2d_3">
                        <path d="M 131.270742 256.32
L 131.270742 34.56 
" clip-path="url(#p4f8f4e6de5)" style="fill: none; stroke: #b0b0b0; stroke-width: 0.8; stroke-linecap: square"/>
                    </g>
                    <g id="line2d_4">
                        <g>
                            <use xlink:href="#m33e72017bf" x="131.270742" y="256.32"
                                 style="stroke: #000000; stroke-width: 0.8"/>
                        </g>
                    </g>
                    <g id="text_2">
                        <!-- $\mathdefault{5}$ -->
                        <g transform="translate(128.780075 270.238498) scale(0.1 -0.1)">
                            <defs>
                                <path id="CMR17-35" d="M 730 3750
C 794 3724 1056 3641 1325 3641 
C 1920 3641 2246 3961 2432 4140 
C 2432 4191 2432 4224 2394 4224 
C 2387 4224 2374 4224 2323 4198 
C 2099 4102 1837 4032 1517 4032 
C 1325 4032 1037 4055 723 4191 
C 653 4224 640 4224 634 4224 
C 602 4224 595 4217 595 4090 
L 595 2231 
C 595 2113 595 2080 659 2080 
C 691 2080 704 2093 736 2139 
C 941 2435 1222 2560 1542 2560 
C 1766 2560 2246 2415 2246 1293 
C 2246 1087 2246 716 2054 422 
C 1894 159 1645 25 1370 25 
C 947 25 518 319 403 812 
C 429 806 480 793 506 793 
C 589 793 749 838 749 1036 
C 749 1209 627 1280 506 1280 
C 358 1280 262 1190 262 1011 
C 262 454 704 -128 1382 -128 
C 2042 -128 2669 441 2669 1267 
C 2669 2054 2170 2662 1549 2662 
C 1222 2662 947 2540 730 2304 
L 730 3750 
z
" transform="scale(0.015625)"/>
                            </defs>
                            <use xlink:href="#CMR17-35" transform="scale(0.996264)"/>
                        </g>
                    </g>
                </g>
                <g id="xtick_3">
                    <g id="line2d_5">
                        <path d="M 187.876571 256.32
L 187.876571 34.56 
" clip-path="url(#p4f8f4e6de5)" style="fill: none; stroke: #b0b0b0; stroke-width: 0.8; stroke-linecap: square"/>
                    </g>
                    <g id="line2d_6">
                        <g>
                            <use xlink:href="#m33e72017bf" x="187.876571" y="256.32"
                                 style="stroke: #000000; stroke-width: 0.8"/>
                        </g>
                    </g>
                    <g id="text_3">
                        <!-- $\mathdefault{10}$ -->
                        <g transform="translate(182.895236 270.238498) scale(0.1 -0.1)">
                            <defs>
                                <path id="CMR17-31" d="M 1702 4083
C 1702 4217 1696 4224 1606 4224 
C 1357 3927 979 3833 621 3820 
C 602 3820 570 3820 563 3808 
C 557 3795 557 3782 557 3648 
C 755 3648 1088 3686 1344 3839 
L 1344 467 
C 1344 243 1331 166 781 166 
L 589 166 
L 589 0 
C 896 6 1216 12 1523 12 
C 1830 12 2150 6 2458 0 
L 2458 166 
L 2266 166 
C 1715 166 1702 236 1702 467 
L 1702 4083 
z
" transform="scale(0.015625)"/>
                            </defs>
                            <use xlink:href="#CMR17-31" transform="scale(0.996264)"/>
                            <use xlink:href="#CMR17-30" transform="translate(45.690477 0) scale(0.996264)"/>
                        </g>
                    </g>
                </g>
                <g id="xtick_4">
                    <g id="line2d_7">
                        <path d="M 244.4824 256.32
L 244.4824 34.56 
" clip-path="url(#p4f8f4e6de5)" style="fill: none; stroke: #b0b0b0; stroke-width: 0.8; stroke-linecap: square"/>
                    </g>
                    <g id="line2d_8">
                        <g>
                            <use xlink:href="#m33e72017bf" x="244.4824" y="256.32"
                                 style="stroke: #000000; stroke-width: 0.8"/>
                        </g>
                    </g>
                    <g id="text_4">
                        <!-- $\mathdefault{15}$ -->
                        <g transform="translate(239.501064 270.238498) scale(0.1 -0.1)">
                            <use xlink:href="#CMR17-31" transform="scale(0.996264)"/>
                            <use xlink:href="#CMR17-35" transform="translate(45.690477 0) scale(0.996264)"/>
                        </g>
                    </g>
                </g>
                <g id="xtick_5">
                    <g id="line2d_9">
                        <path d="M 301.088228 256.32
L 301.088228 34.56 
" clip-path="url(#p4f8f4e6de5)" style="fill: none; stroke: #b0b0b0; stroke-width: 0.8; stroke-linecap: square"/>
                    </g>
                    <g id="line2d_10">
                        <g>
                            <use xlink:href="#m33e72017bf" x="301.088228" y="256.32"
                                 style="stroke: #000000; stroke-width: 0.8"/>
                        </g>
                    </g>
                    <g id="text_5">
                        <!-- $\mathdefault{20}$ -->
                        <g transform="translate(296.106893 270.238498) scale(0.1 -0.1)">
                            <defs>
                                <path id="CMR17-32" d="M 2669 990
L 2554 990 
C 2490 537 2438 460 2413 422 
C 2381 371 1920 371 1830 371 
L 602 371 
C 832 620 1280 1073 1824 1596 
C 2214 1966 2669 2400 2669 3033 
C 2669 3788 2067 4224 1395 4224 
C 691 4224 262 3603 262 3027 
C 262 2777 448 2745 525 2745 
C 589 2745 781 2783 781 3007 
C 781 3206 614 3264 525 3264 
C 486 3264 448 3257 422 3244 
C 544 3788 915 4057 1306 4057 
C 1862 4057 2227 3616 2227 3033 
C 2227 2477 1901 1998 1536 1583 
L 262 147 
L 262 0 
L 2515 0 
L 2669 990 
z
" transform="scale(0.015625)"/>
                            </defs>
                            <use xlink:href="#CMR17-32" transform="scale(0.996264)"/>
                            <use xlink:href="#CMR17-30" transform="translate(45.690477 0) scale(0.996264)"/>
                        </g>
                    </g>
                </g>
                <g id="xtick_6">
                    <g id="line2d_11">
                        <path d="M 357.694057 256.32
L 357.694057 34.56 
" clip-path="url(#p4f8f4e6de5)" style="fill: none; stroke: #b0b0b0; stroke-width: 0.8; stroke-linecap: square"/>
                    </g>
                    <g id="line2d_12">
                        <g>
                            <use xlink:href="#m33e72017bf" x="357.694057" y="256.32"
                                 style="stroke: #000000; stroke-width: 0.8"/>
                        </g>
                    </g>
                    <g id="text_6">
                        <!-- $\mathdefault{25}$ -->
                        <g transform="translate(352.712721 270.238498) scale(0.1 -0.1)">
                            <use xlink:href="#CMR17-32" transform="scale(0.996264)"/>
                            <use xlink:href="#CMR17-35" transform="translate(45.690477 0) scale(0.996264)"/>
                        </g>
                    </g>
                </g>
                <g id="xtick_7">
                    <g id="line2d_13">
                        <path d="M 414.299885 256.32
L 414.299885 34.56 
" clip-path="url(#p4f8f4e6de5)" style="fill: none; stroke: #b0b0b0; stroke-width: 0.8; stroke-linecap: square"/>
                    </g>
                    <g id="line2d_14">
                        <g>
                            <use xlink:href="#m33e72017bf" x="414.299885" y="256.32"
                                 style="stroke: #000000; stroke-width: 0.8"/>
                        </g>
                    </g>
                    <g id="text_7">
                        <!-- $\mathdefault{30}$ -->
                        <g transform="translate(409.31855 270.238498) scale(0.1 -0.1)">
                            <defs>
                                <path id="CMR17-33" d="M 1414 2176
C 1984 2176 2234 1673 2234 1094 
C 2234 322 1824 25 1453 25 
C 1114 25 563 193 390 691 
C 422 678 454 678 486 678 
C 640 678 755 780 755 947 
C 755 1132 614 1216 486 1216 
C 378 1216 211 1164 211 927 
C 211 335 787 -128 1466 -128 
C 2176 -128 2720 432 2720 1087 
C 2720 1718 2208 2176 1600 2246 
C 2086 2347 2554 2776 2554 3353 
C 2554 3856 2048 4224 1472 4224 
C 890 4224 378 3862 378 3347 
C 378 3123 544 3084 627 3084 
C 762 3084 877 3167 877 3334 
C 877 3500 762 3584 627 3584 
C 602 3584 570 3584 544 3571 
C 730 3999 1235 4076 1459 4076 
C 1683 4076 2106 3966 2106 3347 
C 2106 3167 2080 2851 1862 2574 
C 1670 2329 1453 2316 1242 2297 
C 1210 2297 1062 2284 1037 2284 
C 992 2278 966 2272 966 2227 
C 966 2182 973 2176 1101 2176 
L 1414 2176 
z
" transform="scale(0.015625)"/>
                            </defs>
                            <use xlink:href="#CMR17-33" transform="scale(0.996264)"/>
                            <use xlink:href="#CMR17-30" transform="translate(45.690477 0) scale(0.996264)"/>
                        </g>
                    </g>
                </g>
                <g id="text_8">
                    <!-- Time Step ($t$) -->
                    <g transform="translate(203.541292 285.142053) scale(0.12 -0.12)">
                        <defs>
                            <path id="CMR17-54" d="M 3981 4332
L 288 4332 
L 179 2924 
L 294 2924 
C 378 3981 467 4166 1453 4166 
C 1568 4166 1754 4166 1805 4159 
C 1926 4140 1926 4064 1926 3917 
L 1926 465 
C 1926 236 1907 166 1376 166 
L 1197 166 
L 1197 0 
C 1504 6 1824 12 2138 12 
C 2451 12 2771 6 3078 0 
L 3078 166 
L 2899 166 
C 2368 166 2349 236 2349 465 
L 2349 3917 
C 2349 4057 2349 4134 2464 4159 
C 2515 4166 2701 4166 2816 4166 
C 3795 4166 3891 3981 3974 2924 
L 4090 2924 
L 3981 4332 
z
" transform="scale(0.015625)"/>
                            <path id="CMR17-69" d="M 992 3961
C 992 4102 877 4224 730 4224 
C 589 4224 467 4108 467 3961 
C 467 3820 582 3699 730 3699 
C 870 3699 992 3814 992 3961 
z
M 243 2745 
L 243 2579 
C 602 2579 653 2540 653 2231 
L 653 443 
C 653 198 627 166 218 166 
L 218 0 
C 371 12 646 12 806 12 
C 960 12 1222 12 1370 0 
L 1370 166 
C 992 166 979 205 979 436 
L 979 2816 
L 243 2745 
z
" transform="scale(0.015625)"/>
                            <path id="CMR17-6d" d="M 4326 1954
C 4326 2276 4269 2816 3507 2816 
C 3072 2816 2771 2520 2656 2173 
L 2650 2173 
C 2573 2700 2195 2816 1837 2816 
C 1331 2816 1069 2424 973 2166 
L 966 2166 
L 966 2816 
L 211 2745 
L 211 2578 
C 589 2578 646 2540 646 2231 
L 646 443 
C 646 198 621 166 211 166 
L 211 0 
C 365 12 646 12 813 12 
C 979 12 1267 12 1421 0 
L 1421 166 
C 1011 166 986 192 986 443 
L 986 1678 
C 986 2269 1344 2713 1792 2713 
C 2266 2713 2317 2289 2317 1980 
L 2317 443 
C 2317 198 2291 166 1882 166 
L 1882 0 
C 2035 12 2317 12 2483 12 
C 2650 12 2938 12 3091 0 
L 3091 166 
C 2682 166 2656 192 2656 443 
L 2656 1678 
C 2656 2269 3014 2713 3462 2713 
C 3936 2713 3987 2289 3987 1980 
L 3987 443 
C 3987 198 3962 166 3552 166 
L 3552 0 
C 3706 12 3987 12 4154 12 
C 4320 12 4608 12 4762 0 
L 4762 166 
C 4352 166 4326 192 4326 443 
L 4326 1954 
z
" transform="scale(0.015625)"/>
                            <path id="CMR17-65" d="M 2438 1503
C 2464 1529 2464 1542 2464 1606 
C 2464 2251 2118 2816 1389 2816 
C 710 2816 173 2175 173 1394 
C 173 554 781 -64 1459 -64 
C 2176 -64 2458 619 2458 755 
C 2458 800 2419 800 2406 800 
C 2362 800 2355 787 2330 709 
C 2189 270 1837 51 1504 51 
C 1229 51 954 206 781 490 
C 582 819 582 1200 582 1503 
L 2438 1503 
z
M 589 1600 
C 634 2511 1126 2713 1382 2713 
C 1818 2713 2112 2308 2118 1600 
L 589 1600 
z
" transform="scale(0.015625)"/>
                            <path id="CMR17-53" d="M 2803 4351
C 2803 4467 2797 4473 2758 4473 
C 2720 4473 2707 4447 2682 4390 
L 2490 3965 
C 2246 4320 1875 4480 1472 4480 
C 819 4480 294 3958 294 3301 
C 294 3101 339 2817 557 2546 
C 794 2250 1018 2198 1530 2063 
C 1722 2011 2042 1927 2106 1901 
C 2470 1747 2662 1360 2662 999 
C 2662 534 2336 38 1779 38 
C 1094 38 454 425 410 1328 
C 403 1431 397 1437 352 1437 
C 301 1437 294 1431 294 1302 
L 294 0 
C 294 -116 301 -122 339 -122 
C 384 -122 397 -90 486 109 
C 493 128 493 141 614 386 
C 934 -39 1472 -128 1779 -128 
C 2477 -128 2970 457 2970 1141 
C 2970 1476 2848 1734 2778 1850 
C 2509 2263 2221 2340 1914 2417 
C 1869 2437 1856 2437 1498 2527 
C 1152 2617 1005 2662 845 2836 
C 666 3036 602 3243 602 3449 
C 602 3868 934 4326 1478 4326 
C 2157 4326 2579 3842 2675 3036 
C 2694 2920 2701 2914 2746 2914 
C 2803 2914 2803 2933 2803 3043 
L 2803 4351 
z
" transform="scale(0.015625)"/>
                            <path id="CMR17-74" d="M 966 2585
L 1862 2585 
L 1862 2752 
L 966 2752 
L 966 3968 
L 851 3968 
C 838 3292 614 2700 70 2687 
L 70 2585 
L 627 2585 
L 627 778 
C 627 655 627 -64 1370 -64 
C 1747 -64 1965 308 1965 784 
L 1965 1151 
L 1850 1151 
L 1850 790 
C 1850 347 1677 51 1408 51 
C 1222 51 966 179 966 765 
L 966 2585 
z
" transform="scale(0.015625)"/>
                            <path id="CMR17-70" d="M 1408 -1114
C 998 -1114 973 -1088 973 -834 
L 973 380 
C 1158 109 1427 -64 1766 -64 
C 2406 -64 3053 503 3053 1382 
C 3053 2196 2496 2816 1837 2816 
C 1453 2816 1139 2603 960 2345 
L 960 2816 
L 198 2745 
L 198 2577 
C 576 2577 634 2539 634 2228 
L 634 -834 
C 634 -1081 608 -1114 198 -1114 
L 198 -1280 
C 352 -1268 634 -1268 800 -1268 
C 966 -1268 1254 -1268 1408 -1280 
L 1408 -1114 
z
M 973 2015 
C 973 2106 973 2241 1222 2481 
C 1254 2506 1472 2700 1792 2700 
C 2259 2700 2643 2112 2643 1376 
C 2643 639 2234 38 1728 38 
C 1498 38 1248 148 1056 451 
C 973 594 973 632 973 736 
L 973 2015 
z
" transform="scale(0.015625)"/>
                            <path id="CMR17-28" d="M 1958 -1562
C 1958 -1556 1958 -1543 1939 -1524 
C 1645 -1223 858 -403 858 1596 
C 858 3595 1632 4408 1946 4729 
C 1946 4735 1958 4748 1958 4767 
C 1958 4787 1939 4800 1914 4800 
C 1843 4800 1299 4325 986 3620 
C 666 2909 576 2218 576 1603 
C 576 1141 621 360 1005 -467 
C 1312 -1133 1837 -1600 1914 -1600 
C 1946 -1600 1958 -1588 1958 -1562 
z
" transform="scale(0.015625)"/>
                            <path id="CMMI12-74" d="M 1286 2566
L 1875 2566 
C 1997 2566 2061 2566 2061 2681 
C 2061 2752 2022 2752 1894 2752 
L 1331 2752 
L 1568 3664 
C 1594 3752 1594 3764 1594 3808 
C 1594 3910 1510 3968 1427 3968 
C 1376 3968 1229 3948 1178 3746 
L 928 2752 
L 326 2752 
C 198 2752 141 2752 141 2630 
C 141 2566 186 2566 307 2566 
L 877 2566 
L 454 881 
C 403 657 384 593 384 510 
C 384 210 595 -64 954 -64 
C 1600 -64 1946 868 1946 913 
C 1946 951 1920 970 1882 970 
C 1869 970 1843 970 1830 944 
C 1824 938 1818 932 1773 830 
C 1638 510 1344 64 973 64 
C 781 64 768 223 768 364 
C 768 370 768 491 787 568 
L 1286 2566 
z
" transform="scale(0.015625)"/>
                            <path id="CMR17-29" d="M 1683 1596
C 1683 2057 1638 2839 1254 3665 
C 947 4332 422 4800 346 4800 
C 326 4800 301 4793 301 4761 
C 301 4748 307 4742 314 4729 
C 621 4408 1402 3595 1402 1603 
C 1402 -396 627 -1210 314 -1530 
C 307 -1543 301 -1549 301 -1562 
C 301 -1594 326 -1600 346 -1600 
C 416 -1600 960 -1127 1274 -422 
C 1594 289 1683 981 1683 1596 
z
" transform="scale(0.015625)"/>
                        </defs>
                        <use xlink:href="#CMR17-54" transform="scale(0.996264)"/>
                        <use xlink:href="#CMR17-69" transform="translate(66.509881 0) scale(0.996264)"/>
                        <use xlink:href="#CMR17-6d" transform="translate(91.380939 0) scale(0.996264)"/>
                        <use xlink:href="#CMR17-65" transform="translate(168.300529 0) scale(0.996264)"/>
                        <use xlink:href="#CMR17-53" transform="translate(238.862156 0) scale(0.996264)"/>
                        <use xlink:href="#CMR17-74" transform="translate(289.757525 0) scale(0.996264)"/>
                        <use xlink:href="#CMR17-65" transform="translate(325.038293 0) scale(0.996264)"/>
                        <use xlink:href="#CMR17-70" transform="translate(365.523954 0) scale(0.996264)"/>
                        <use xlink:href="#CMR17-28" transform="translate(446.49529 0) scale(0.996264)"/>
                        <use xlink:href="#CMMI12-74" transform="translate(481.776058 0) scale(0.996264)"/>
                        <use xlink:href="#CMR17-29" transform="translate(517.002388 0) scale(0.996264)"/>
                    </g>
                </g>
            </g>
            <g id="matplotlib.axis_2">
                <g id="ytick_1">
                    <g id="line2d_15">
                        <path d="M 58.249224 247.746258
L 419.39441 247.746258 
" clip-path="url(#p4f8f4e6de5)" style="fill: none; stroke: #b0b0b0; stroke-width: 0.8; stroke-linecap: square"/>
                    </g>
                    <g id="line2d_16">
                        <defs>
                            <path id="m7bf9831c93" d="M 0 0
L -3.5 0 
" style="stroke: #000000; stroke-width: 0.8"/>
                        </defs>
                        <g>
                            <use xlink:href="#m7bf9831c93" x="58.249224" y="247.746258"
                                 style="stroke: #000000; stroke-width: 0.8"/>
                        </g>
                    </g>
                    <g id="text_9">
                        <!-- $\mathdefault{0.0}$ -->
                        <g transform="translate(38.519145 251.205508) scale(0.1 -0.1)">
                            <defs>
                                <path id="CMMI12-3a" d="M 1178 307
C 1178 492 1024 620 870 620 
C 685 620 557 467 557 313 
C 557 128 710 0 864 0 
C 1050 0 1178 153 1178 307 
z
" transform="scale(0.015625)"/>
                            </defs>
                            <use xlink:href="#CMR17-30" transform="scale(0.996264)"/>
                            <use xlink:href="#CMMI12-3a" transform="translate(45.690477 0) scale(0.996264)"/>
                            <use xlink:href="#CMR17-30" transform="translate(72.787654 0) scale(0.996264)"/>
                        </g>
                    </g>
                </g>
                <g id="ytick_2">
                    <g id="line2d_17">
                        <path d="M 58.249224 206.635488
L 419.39441 206.635488 
" clip-path="url(#p4f8f4e6de5)" style="fill: none; stroke: #b0b0b0; stroke-width: 0.8; stroke-linecap: square"/>
                    </g>
                    <g id="line2d_18">
                        <g>
                            <use xlink:href="#m7bf9831c93" x="58.249224" y="206.635488"
                                 style="stroke: #000000; stroke-width: 0.8"/>
                        </g>
                    </g>
                    <g id="text_10">
                        <!-- $\mathdefault{0.2}$ -->
                        <g transform="translate(38.519145 210.094737) scale(0.1 -0.1)">
                            <use xlink:href="#CMR17-30" transform="scale(0.996264)"/>
                            <use xlink:href="#CMMI12-3a" transform="translate(45.690477 0) scale(0.996264)"/>
                            <use xlink:href="#CMR17-32" transform="translate(72.787654 0) scale(0.996264)"/>
                        </g>
                    </g>
                </g>
                <g id="ytick_3">
                    <g id="line2d_19">
                        <path d="M 58.249224 165.524717
L 419.39441 165.524717 
" clip-path="url(#p4f8f4e6de5)" style="fill: none; stroke: #b0b0b0; stroke-width: 0.8; stroke-linecap: square"/>
                    </g>
                    <g id="line2d_20">
                        <g>
                            <use xlink:href="#m7bf9831c93" x="58.249224" y="165.524717"
                                 style="stroke: #000000; stroke-width: 0.8"/>
                        </g>
                    </g>
                    <g id="text_11">
                        <!-- $\mathdefault{0.4}$ -->
                        <g transform="translate(38.519145 168.983966) scale(0.1 -0.1)">
                            <defs>
                                <path id="CMR17-34" d="M 2150 4147
C 2150 4281 2144 4288 2029 4288 
L 128 1254 
L 128 1088 
L 1779 1088 
L 1779 460 
C 1779 230 1766 166 1318 166 
L 1197 166 
L 1197 0 
C 1402 12 1747 12 1965 12 
C 2182 12 2528 12 2733 0 
L 2733 166 
L 2611 166 
C 2163 166 2150 230 2150 460 
L 2150 1088 
L 2803 1088 
L 2803 1254 
L 2150 1254 
L 2150 4147 
z
M 1798 3723 
L 1798 1254 
L 256 1254 
L 1798 3723 
z
" transform="scale(0.015625)"/>
                            </defs>
                            <use xlink:href="#CMR17-30" transform="scale(0.996264)"/>
                            <use xlink:href="#CMMI12-3a" transform="translate(45.690477 0) scale(0.996264)"/>
                            <use xlink:href="#CMR17-34" transform="translate(72.787654 0) scale(0.996264)"/>
                        </g>
                    </g>
                </g>
                <g id="ytick_4">
                    <g id="line2d_21">
                        <path d="M 58.249224 124.413946
L 419.39441 124.413946 
" clip-path="url(#p4f8f4e6de5)" style="fill: none; stroke: #b0b0b0; stroke-width: 0.8; stroke-linecap: square"/>
                    </g>
                    <g id="line2d_22">
                        <g>
                            <use xlink:href="#m7bf9831c93" x="58.249224" y="124.413946"
                                 style="stroke: #000000; stroke-width: 0.8"/>
                        </g>
                    </g>
                    <g id="text_12">
                        <!-- $\mathdefault{0.6}$ -->
                        <g transform="translate(38.519145 127.873195) scale(0.1 -0.1)">
                            <defs>
                                <path id="CMR17-36" d="M 678 2198
C 678 3712 1395 4076 1811 4076 
C 1946 4076 2272 4049 2400 3782 
C 2298 3782 2106 3782 2106 3558 
C 2106 3385 2246 3328 2336 3328 
C 2394 3328 2566 3353 2566 3571 
C 2566 3987 2246 4224 1805 4224 
C 1043 4224 243 3411 243 2011 
C 243 257 966 -128 1478 -128 
C 2099 -128 2688 431 2688 1295 
C 2688 2101 2170 2688 1517 2688 
C 1126 2688 838 2430 678 1979 
L 678 2198 
z
M 1478 25 
C 691 25 691 1212 691 1450 
C 691 1914 909 2585 1504 2585 
C 1613 2585 1926 2585 2138 2140 
C 2253 1889 2253 1624 2253 1302 
C 2253 954 2253 696 2118 438 
C 1978 173 1773 25 1478 25 
z
" transform="scale(0.015625)"/>
                            </defs>
                            <use xlink:href="#CMR17-30" transform="scale(0.996264)"/>
                            <use xlink:href="#CMMI12-3a" transform="translate(45.690477 0) scale(0.996264)"/>
                            <use xlink:href="#CMR17-36" transform="translate(72.787654 0) scale(0.996264)"/>
                        </g>
                    </g>
                </g>
                <g id="ytick_5">
                    <g id="line2d_23">
                        <path d="M 58.249224 83.303175
L 419.39441 83.303175 
" clip-path="url(#p4f8f4e6de5)" style="fill: none; stroke: #b0b0b0; stroke-width: 0.8; stroke-linecap: square"/>
                    </g>
                    <g id="line2d_24">
                        <g>
                            <use xlink:href="#m7bf9831c93" x="58.249224" y="83.303175"
                                 style="stroke: #000000; stroke-width: 0.8"/>
                        </g>
                    </g>
                    <g id="text_13">
                        <!-- $\mathdefault{0.8}$ -->
                        <g transform="translate(38.519145 86.762424) scale(0.1 -0.1)">
                            <defs>
                                <path id="CMR17-38" d="M 1741 2289
C 2144 2494 2554 2803 2554 3298 
C 2554 3884 1990 4224 1472 4224 
C 890 4224 378 3800 378 3215 
C 378 3054 416 2777 666 2533 
C 730 2469 998 2276 1171 2154 
C 883 2006 211 1652 211 945 
C 211 282 838 -128 1459 -128 
C 2144 -128 2720 366 2720 1022 
C 2720 1607 2330 1877 2074 2051 
L 1741 2289 
z
M 902 2855 
C 851 2887 595 3086 595 3388 
C 595 3781 998 4076 1459 4076 
C 1965 4076 2336 3716 2336 3298 
C 2336 2700 1670 2359 1638 2359 
C 1632 2359 1626 2359 1574 2398 
L 902 2855 
z
M 2080 1536 
C 2176 1466 2483 1253 2483 861 
C 2483 385 2010 25 1472 25 
C 890 25 448 443 448 951 
C 448 1459 838 1884 1280 2083 
L 2080 1536 
z
" transform="scale(0.015625)"/>
                            </defs>
                            <use xlink:href="#CMR17-30" transform="scale(0.996264)"/>
                            <use xlink:href="#CMMI12-3a" transform="translate(45.690477 0) scale(0.996264)"/>
                            <use xlink:href="#CMR17-38" transform="translate(72.787654 0) scale(0.996264)"/>
                        </g>
                    </g>
                </g>
                <g id="ytick_6">
                    <g id="line2d_25">
                        <path d="M 58.249224 42.192404
L 419.39441 42.192404 
" clip-path="url(#p4f8f4e6de5)" style="fill: none; stroke: #b0b0b0; stroke-width: 0.8; stroke-linecap: square"/>
                    </g>
                    <g id="line2d_26">
                        <g>
                            <use xlink:href="#m7bf9831c93" x="58.249224" y="42.192404"
                                 style="stroke: #000000; stroke-width: 0.8"/>
                        </g>
                    </g>
                    <g id="text_14">
                        <!-- $\mathdefault{1.0}$ -->
                        <g transform="translate(38.519145 45.651653) scale(0.1 -0.1)">
                            <use xlink:href="#CMR17-31" transform="scale(0.996264)"/>
                            <use xlink:href="#CMMI12-3a" transform="translate(45.690477 0) scale(0.996264)"/>
                            <use xlink:href="#CMR17-30" transform="translate(72.787654 0) scale(0.996264)"/>
                        </g>
                    </g>
                </g>
                <g id="text_15">
                    <!-- Value of States ($x_i$) -->
                    <g transform="translate(31.530353 195.522629) rotate(-90) scale(0.12 -0.12)">
                        <defs>
                            <path id="CMR17-56" d="M 3776 3762
C 3834 3903 3936 4179 4365 4185 
L 4365 4352 
C 4218 4339 4051 4339 3891 4339 
C 3738 4339 3475 4339 3328 4352 
L 3328 4185 
C 3648 4166 3661 3942 3661 3903 
C 3661 3833 3642 3788 3622 3737 
L 2362 448 
L 1043 3903 
C 1024 3948 1011 3980 1011 4012 
C 1011 4185 1267 4185 1402 4185 
L 1402 4352 
C 1197 4339 896 4339 685 4339 
C 518 4339 218 4339 64 4352 
L 64 4185 
C 435 4185 506 4160 582 3955 
L 2106 -26 
C 2138 -116 2144 -128 2214 -128 
C 2285 -128 2291 -116 2323 -26 
L 3776 3762 
z
" transform="scale(0.015625)"/>
                            <path id="CMR17-61" d="M 2304 1656
C 2304 2048 2304 2275 2035 2534 
C 1798 2751 1523 2816 1306 2816 
C 800 2816 435 2408 435 1977 
C 435 1740 627 1728 666 1728 
C 749 1728 896 1779 896 1958 
C 896 2118 774 2188 666 2188 
C 640 2188 608 2182 589 2176 
C 723 2594 1069 2713 1293 2713 
C 1613 2713 1965 2421 1965 1875 
L 1965 1632 
C 1587 1619 1133 1568 774 1373 
C 371 1147 256 822 256 576 
C 256 77 832 -64 1171 -64 
C 1523 -64 1850 135 1990 505 
C 2003 219 2182 -39 2464 -39 
C 2598 -39 2938 51 2938 563 
L 2938 926 
L 2822 926 
L 2822 557 
C 2822 161 2650 109 2566 109 
C 2304 109 2304 446 2304 732 
L 2304 1656 
z
M 1965 887 
C 1965 323 1568 38 1216 38 
C 896 38 646 278 646 576 
C 646 771 730 1114 1101 1322 
C 1408 1497 1760 1523 1965 1536 
L 1965 887 
z
" transform="scale(0.015625)"/>
                            <path id="CMR17-6c" d="M 979 4416
L 218 4345 
L 218 4179 
C 595 4179 653 4141 653 3835 
L 653 439 
C 653 198 627 166 218 166 
L 218 0 
C 371 12 653 12 813 12 
C 979 12 1261 12 1414 0 
L 1414 166 
C 1005 166 979 191 979 439 
L 979 4416 
z
" transform="scale(0.015625)"/>
                            <path id="CMR17-75" d="M 1882 2745
L 1882 2579 
C 2259 2579 2317 2540 2317 2229 
L 2317 1053 
C 2317 510 2029 38 1555 38 
C 1030 38 986 355 986 691 
L 986 2816 
L 211 2745 
L 211 2579 
C 467 2579 640 2579 646 2320 
L 646 1079 
C 646 646 646 368 813 187 
C 896 103 1056 -64 1517 -64 
C 2061 -64 2272 400 2323 536 
L 2330 536 
L 2330 -64 
L 3091 -13 
L 3091 154 
C 2714 154 2656 193 2656 503 
L 2656 2816 
L 1882 2745 
z
" transform="scale(0.015625)"/>
                            <path id="CMR17-6f" d="M 2758 1356
C 2758 2176 2163 2816 1466 2816 
C 768 2816 173 2176 173 1356 
C 173 550 768 -64 1466 -64 
C 2163 -64 2758 550 2758 1356 
z
M 1466 51 
C 1165 51 909 230 762 480 
C 602 768 582 1126 582 1408 
C 582 1676 595 2009 762 2297 
C 890 2508 1139 2713 1466 2713 
C 1754 2713 1997 2553 2150 2329 
C 2349 2028 2349 1606 2349 1408 
C 2349 1158 2336 774 2163 467 
C 1984 172 1709 51 1466 51 
z
" transform="scale(0.015625)"/>
                            <path id="CMR17-66" d="M 979 2585
L 1709 2585 
L 1709 2752 
L 966 2752 
L 966 3539 
C 966 4076 1235 4377 1510 4377 
C 1594 4377 1690 4363 1754 4339 
C 1702 4326 1568 4281 1568 4121 
C 1568 3955 1696 3904 1786 3904 
C 1875 3904 2003 3955 2003 4121 
C 2003 4353 1773 4480 1517 4480 
C 1152 4480 653 4211 653 3526 
L 653 2752 
L 141 2752 
L 141 2585 
L 653 2585 
L 653 441 
C 653 198 627 166 218 166 
L 218 0 
C 371 12 666 12 832 12 
C 1018 12 1344 12 1517 0 
L 1517 166 
C 1056 166 979 166 979 454 
L 979 2585 
z
" transform="scale(0.015625)"/>
                            <path id="CMR17-73" d="M 1978 2688
C 1978 2803 1971 2809 1933 2809 
C 1907 2809 1901 2803 1824 2707 
C 1805 2681 1747 2617 1728 2592 
C 1523 2809 1235 2816 1126 2816 
C 416 2816 160 2444 160 2073 
C 160 1497 813 1363 998 1324 
C 1402 1241 1542 1216 1677 1100 
C 1760 1024 1901 883 1901 652 
C 1901 384 1747 38 1158 38 
C 602 38 403 460 288 1024 
C 269 1113 269 1120 218 1120 
C 166 1120 160 1113 160 985 
L 160 64 
C 160 -52 166 -58 205 -58 
C 237 -58 243 -52 275 0 
C 314 57 410 211 448 275 
C 576 102 800 -64 1158 -64 
C 1792 -64 2131 281 2131 780 
C 2131 1107 1958 1280 1875 1356 
C 1683 1555 1459 1600 1190 1651 
C 838 1728 390 1817 390 2208 
C 390 2374 480 2726 1126 2726 
C 1811 2726 1850 2086 1862 1881 
C 1869 1849 1901 1843 1920 1843 
C 1978 1843 1978 1862 1978 1971 
L 1978 2688 
z
" transform="scale(0.015625)"/>
                            <path id="CMMI12-78" d="M 3034 2624
C 2829 2585 2752 2431 2752 2310 
C 2752 2156 2874 2105 2963 2105 
C 3155 2105 3290 2271 3290 2444 
C 3290 2694 2982 2816 2714 2816 
C 2323 2816 2106 2451 2048 2329 
C 1901 2790 1504 2816 1389 2816 
C 736 2816 390 1993 390 1849 
C 390 1823 416 1790 461 1790 
C 512 1790 525 1829 538 1855 
C 755 2572 1184 2687 1370 2687 
C 1658 2687 1715 2438 1715 2284 
C 1715 2143 1677 1993 1600 1678 
L 1382 778 
C 1286 390 1101 64 762 64 
C 730 64 570 64 435 126 
C 666 166 717 358 717 435 
C 717 563 621 640 499 640 
C 346 640 179 505 179 300 
C 179 57 480 -64 755 -64 
C 1062 -64 1280 153 1414 415 
C 1517 64 1837 -64 2074 -64 
C 2726 -64 3072 751 3072 896 
C 3072 929 3046 955 3008 955 
C 2950 955 2944 922 2925 870 
C 2752 300 2381 64 2093 64 
C 1869 64 1747 204 1747 467 
C 1747 607 1773 712 1875 1146 
L 2099 2039 
C 2195 2425 2413 2687 2707 2687 
C 2720 2687 2899 2687 3034 2624 
z
" transform="scale(0.015625)"/>
                            <path id="CMMI12-69" d="M 1811 913
C 1811 945 1786 970 1747 970 
C 1690 970 1683 951 1651 842 
C 1485 261 1222 64 1011 64 
C 934 64 845 83 845 274 
C 845 447 922 638 992 830 
L 1440 2017 
C 1459 2068 1504 2183 1504 2305 
C 1504 2573 1312 2816 998 2816 
C 410 2816 173 1890 173 1838 
C 173 1813 198 1781 243 1781 
C 301 1781 307 1807 333 1896 
C 486 2432 730 2687 979 2687 
C 1037 2687 1146 2681 1146 2477 
C 1146 2311 1062 2100 1011 1960 
L 563 772 
C 525 670 486 568 486 453 
C 486 166 685 -64 992 -64 
C 1581 -64 1811 868 1811 913 
z
M 1760 4012 
C 1760 4108 1683 4224 1542 4224 
C 1395 4224 1229 4083 1229 3916 
C 1229 3756 1363 3705 1440 3705 
C 1613 3705 1760 3871 1760 4012 
z
" transform="scale(0.015625)"/>
                        </defs>
                        <use xlink:href="#CMR17-56" transform="scale(0.996264)"/>
                        <use xlink:href="#CMR17-61" transform="translate(61.265174 0) scale(0.996264)"/>
                        <use xlink:href="#CMR17-6c" transform="translate(106.955652 0) scale(0.996264)"/>
                        <use xlink:href="#CMR17-75" transform="translate(131.82671 0) scale(0.996264)"/>
                        <use xlink:href="#CMR17-65" transform="translate(182.72208 0) scale(0.996264)"/>
                        <use xlink:href="#CMR17-6f" transform="translate(253.283707 0) scale(0.996264)"/>
                        <use xlink:href="#CMR17-66" transform="translate(298.974184 0) scale(0.996264)"/>
                        <use xlink:href="#CMR17-53" transform="translate(356.523662 0) scale(0.996264)"/>
                        <use xlink:href="#CMR17-74" transform="translate(407.419032 0) scale(0.996264)"/>
                        <use xlink:href="#CMR17-61" transform="translate(442.6998 0) scale(0.996264)"/>
                        <use xlink:href="#CMR17-74" transform="translate(488.390277 0) scale(0.996264)"/>
                        <use xlink:href="#CMR17-65" transform="translate(523.671045 0) scale(0.996264)"/>
                        <use xlink:href="#CMR17-73" transform="translate(564.156705 0) scale(0.996264)"/>
                        <use xlink:href="#CMR17-28" transform="translate(630.034009 0) scale(0.996264)"/>
                        <use xlink:href="#CMMI12-78" transform="translate(665.314777 0) scale(0.996264)"/>
                        <use xlink:href="#CMMI12-69" transform="translate(720.748837 -14.943915) scale(0.697382)"/>
                        <use xlink:href="#CMR17-29" transform="translate(744.541876 0) scale(0.996264)"/>
                    </g>
                </g>
            </g>
            <g id="line2d_27">
                <path d="M 74.664914 169.652986
L 85.98608 224.165115 
L 97.307245 93.305173 
L 108.628411 188.670825 
L 119.949577 238.452238 
L 131.270742 172.389132 
L 142.591908 136.115714 
L 153.913074 103.768695 
L 165.23424 117.883899 
L 176.555405 75.225966 
L 187.876571 217.17395 
L 199.197737 189.774339 
L 210.518902 165.182792 
L 221.840068 114.912568 
L 233.161234 114.249003 
L 244.4824 106.970224 
L 255.803565 61.862823 
L 267.124731 90.204188 
L 278.445897 224.750912 
L 289.767062 236.944497 
L 301.088228 172.697042 
L 312.409394 215.801611 
L 323.73056 217.981909 
L 335.051725 100.895693 
L 346.372891 211.301298 
L 357.694057 154.402227 
L 369.015222 123.389461 
L 380.336388 172.29931 
L 391.657554 105.832296 
L 402.97872 47.12979 
" clip-path="url(#p4f8f4e6de5)" style="fill: none; stroke: #1f77b4; stroke-width: 1.5; stroke-linecap: square"/>
            </g>
            <g id="line2d_28">
                <path d="M 74.664914 189.007074
L 85.98608 226.562952 
L 97.307245 75.047229 
L 108.628411 238.902006 
L 119.949577 142.911996 
L 131.270742 191.136484 
L 142.591908 145.281979 
L 153.913074 200.871136 
L 165.23424 187.413323 
L 176.555405 246.24 
L 187.876571 98.437958 
L 199.197737 238.2476 
L 210.518902 79.377996 
L 221.840068 139.237197 
L 233.161234 100.314712 
L 244.4824 98.568897 
L 255.803565 186.050246 
L 267.124731 139.734485 
L 278.445897 223.675754 
L 289.767062 52.32942 
L 301.088228 74.663752 
L 312.409394 127.40517 
L 323.73056 153.223716 
L 335.051725 203.962827 
L 346.372891 100.211765 
L 357.694057 107.055249 
L 369.015222 235.966381 
L 380.336388 187.55562 
L 391.657554 71.470534 
L 402.97872 176.773503 
" clip-path="url(#p4f8f4e6de5)" style="fill: none; stroke: #ff7f0e; stroke-width: 1.5; stroke-linecap: square"/>
            </g>
            <g id="line2d_29">
                <path d="M 74.664914 95.785621
L 85.98608 57.007027 
L 97.307245 197.335769 
L 108.628411 235.939217 
L 119.949577 82.512428 
L 131.270742 120.365196 
L 142.591908 163.704504 
L 153.913074 237.987949 
L 165.23424 131.825885 
L 176.555405 185.40432 
L 187.876571 78.088124 
L 199.197737 44.64 
L 210.518902 142.573639 
L 221.840068 100.289652 
L 233.161234 84.167478 
L 244.4824 230.356487 
L 255.803565 78.70991 
L 267.124731 244.195314 
L 278.445897 79.146858 
L 289.767062 144.549267 
L 301.088228 245.180979 
L 312.409394 47.136603 
L 323.73056 160.602539 
L 335.051725 198.034788 
L 346.372891 216.994529 
L 357.694057 136.847098 
L 369.015222 106.884643 
L 380.336388 228.859344 
L 391.657554 113.713431 
L 402.97872 140.396544 
" clip-path="url(#p4f8f4e6de5)" style="fill: none; stroke: #2ca02c; stroke-width: 1.5; stroke-linecap: square"/>
            </g>
            <g id="patch_3">
                <path d="M 58.249224 256.32
L 58.249224 34.56 
" style="fill: none; stroke: #000000; stroke-width: 0.8; stroke-linejoin: miter; stroke-linecap: square"/>
            </g>
            <g id="patch_4">
                <path d="M 419.39441 256.32
L 419.39441 34.56 
" style="fill: none; stroke: #000000; stroke-width: 0.8; stroke-linejoin: miter; stroke-linecap: square"/>
            </g>
            <g id="patch_5">
                <path d="M 58.249224 256.32
L 419.39441 256.32 
" style="fill: none; stroke: #000000; stroke-width: 0.8; stroke-linejoin: miter; stroke-linecap: square"/>
            </g>
            <g id="patch_6">
                <path d="M 58.249224 34.56
L 419.39441 34.56 
" style="fill: none; stroke: #000000; stroke-width: 0.8; stroke-linejoin: miter; stroke-linecap: square"/>
            </g>
            <g id="text_16">
                <!-- State Trajectory Plot -->
                <g transform="translate(165.660814 28.56) scale(0.16 -0.16)">
                    <defs>
                        <path id="CMR17-72" d="M 960 1517
C 960 2134 1222 2713 1702 2713 
C 1747 2713 1792 2707 1837 2687 
C 1837 2687 1696 2642 1696 2475 
C 1696 2321 1818 2257 1914 2257 
C 1990 2257 2131 2302 2131 2482 
C 2131 2687 1926 2816 1709 2816 
C 1222 2816 1011 2340 947 2115 
L 941 2115 
L 941 2816 
L 198 2745 
L 198 2578 
C 576 2578 634 2540 634 2231 
L 634 443 
C 634 198 608 166 198 166 
L 198 0 
C 352 12 646 12 813 12 
C 998 12 1325 12 1498 0 
L 1498 166 
C 1037 166 960 166 960 455 
L 960 1517 
z
" transform="scale(0.015625)"/>
                        <path id="CMR17-6a" d="M 1165 3961
C 1165 4102 1050 4224 902 4224 
C 762 4224 640 4108 640 3961 
C 640 3820 755 3699 902 3699 
C 1043 3699 1165 3814 1165 3961 
z
M 365 2745 
L 365 2579 
C 787 2579 838 2533 838 2221 
L 838 -410 
C 838 -735 781 -1242 403 -1242 
C 358 -1242 186 -1236 45 -1145 
C 90 -1138 250 -1093 250 -911 
C 250 -787 166 -677 19 -677 
C -122 -677 -211 -774 -211 -917 
C -211 -1177 70 -1344 397 -1344 
C 838 -1344 1165 -937 1165 -384 
L 1165 2816 
L 365 2745 
z
" transform="scale(0.015625)"/>
                        <path id="CMR17-63" d="M 2234 2240
C 2112 2240 1933 2240 1933 2015 
C 1933 1836 2080 1785 2163 1785 
C 2208 1785 2394 1804 2394 2028 
C 2394 2476 1958 2816 1466 2816 
C 787 2816 211 2201 211 1379 
C 211 521 813 -64 1466 -64 
C 2259 -64 2458 676 2458 747 
C 2458 773 2451 792 2406 792 
C 2362 792 2355 786 2330 702 
C 2163 180 1798 51 1523 51 
C 1114 51 621 431 621 1385 
C 621 2358 1094 2700 1472 2700 
C 1722 2700 2093 2582 2234 2240 
z
" transform="scale(0.015625)"/>
                        <path id="CMR17-79" d="M 2496 2183
C 2656 2579 2944 2585 3034 2585 
L 3034 2752 
C 2912 2745 2752 2739 2630 2739 
C 2496 2739 2285 2739 2157 2752 
L 2157 2585 
C 2400 2566 2406 2384 2406 2332 
C 2406 2268 2394 2235 2362 2158 
L 1664 409 
L 902 2300 
C 870 2378 870 2423 870 2430 
C 870 2572 1018 2585 1171 2585 
L 1171 2752 
C 1018 2739 742 2739 582 2739 
C 410 2739 205 2739 64 2752 
L 64 2585 
C 410 2585 448 2553 531 2345 
L 1485 -31 
C 1197 -795 1030 -1242 627 -1242 
C 557 -1242 397 -1223 282 -1106 
C 429 -1093 493 -1002 493 -892 
C 493 -782 416 -685 288 -685 
C 147 -685 77 -782 77 -899 
C 77 -1158 339 -1344 627 -1344 
C 998 -1344 1229 -983 1357 -659 
L 2496 2183 
z
" transform="scale(0.015625)"/>
                        <path id="CMR17-50" d="M 1267 2048
L 2291 2048 
C 3117 2048 3718 2583 3718 3187 
C 3718 3791 3130 4352 2291 4352 
L 333 4352 
L 333 4185 
C 774 4185 845 4185 845 3899 
L 845 453 
C 845 166 774 166 333 166 
L 333 0 
C 518 12 858 12 1056 12 
C 1254 12 1594 12 1779 0 
L 1779 166 
C 1338 166 1267 166 1267 453 
L 1267 2048 
z
M 1254 2182 
L 1254 3937 
C 1254 4153 1267 4185 1523 4185 
L 2170 4185 
C 2995 4185 3232 3715 3232 3187 
C 3232 2608 2950 2182 2170 2182 
L 1254 2182 
z
" transform="scale(0.015625)"/>
                    </defs>
                    <use xlink:href="#CMR17-53" transform="scale(0.996264)"/>
                    <use xlink:href="#CMR17-74" transform="translate(50.89537 0) scale(0.996264)"/>
                    <use xlink:href="#CMR17-61" transform="translate(86.176138 0) scale(0.996264)"/>
                    <use xlink:href="#CMR17-74" transform="translate(131.866615 0) scale(0.996264)"/>
                    <use xlink:href="#CMR17-65" transform="translate(167.147382 0) scale(0.996264)"/>
                    <use xlink:href="#CMR17-54" transform="translate(237.709009 0) scale(0.996264)"/>
                    <use xlink:href="#CMR17-72" transform="translate(296.411634 0) scale(0.996264)"/>
                    <use xlink:href="#CMR17-61" transform="translate(331.692402 0) scale(0.996264)"/>
                    <use xlink:href="#CMR17-6a" transform="translate(382.587681 0) scale(0.996264)"/>
                    <use xlink:href="#CMR17-65" transform="translate(410.061193 0) scale(0.996264)"/>
                    <use xlink:href="#CMR17-63" transform="translate(450.546854 0) scale(0.996264)"/>
                    <use xlink:href="#CMR17-74" transform="translate(491.032514 0) scale(0.996264)"/>
                    <use xlink:href="#CMR17-6f" transform="translate(526.313282 0) scale(0.996264)"/>
                    <use xlink:href="#CMR17-72" transform="translate(572.003759 0) scale(0.996264)"/>
                    <use xlink:href="#CMR17-79" transform="translate(607.284527 0) scale(0.996264)"/>
                    <use xlink:href="#CMR17-50" transform="translate(685.653409 0) scale(0.996264)"/>
                    <use xlink:href="#CMR17-6c" transform="translate(748.23971 0) scale(0.996264)"/>
                    <use xlink:href="#CMR17-6f" transform="translate(773.110768 0) scale(0.996264)"/>
                    <use xlink:href="#CMR17-74" transform="translate(818.801245 0) scale(0.996264)"/>
                </g>
            </g>
            <g id="legend_1">
                <g id="patch_7">
                    <path d="M 214.178682 250.32
L 263.464952 250.32 
Q 265.864952 250.32 265.864952 247.92 
L 265.864952 198.946213 
Q 265.864952 196.546213 263.464952 196.546213 
L 214.178682 196.546213 
Q 211.778682 196.546213 211.778682 198.946213 
L 211.778682 247.92 
Q 211.778682 250.32 214.178682 250.32 
z
" style="fill: #ffffff; opacity: 0.8; stroke: #cccccc; stroke-linejoin: miter"/>
                </g>
                <g id="line2d_30">
                    <path d="M 216.578682 205.546213
L 228.578682 205.546213 
L 240.578682 205.546213 
" style="fill: none; stroke: #1f77b4; stroke-width: 1.5; stroke-linecap: square"/>
                </g>
                <g id="text_17">
                    <!-- $x_1$ -->
                    <g transform="translate(250.178682 209.746213) scale(0.12 -0.12)">
                        <use xlink:href="#CMMI12-78" transform="scale(0.996264)"/>
                        <use xlink:href="#CMR17-31" transform="translate(55.43406 -14.943915) scale(0.697382)"/>
                    </g>
                </g>
                <g id="line2d_31">
                    <path d="M 216.578682 222.270808
L 228.578682 222.270808 
L 240.578682 222.270808 
" style="fill: none; stroke: #ff7f0e; stroke-width: 1.5; stroke-linecap: square"/>
                </g>
                <g id="text_18">
                    <!-- $x_2$ -->
                    <g transform="translate(250.178682 226.470808) scale(0.12 -0.12)">
                        <use xlink:href="#CMMI12-78" transform="scale(0.996264)"/>
                        <use xlink:href="#CMR17-32" transform="translate(55.43406 -14.943915) scale(0.697382)"/>
                    </g>
                </g>
                <g id="line2d_32">
                    <path d="M 216.578682 238.995404
L 228.578682 238.995404 
L 240.578682 238.995404 
" style="fill: none; stroke: #2ca02c; stroke-width: 1.5; stroke-linecap: square"/>
                </g>
                <g id="text_19">
                    <!-- $x_3$ -->
                    <g transform="translate(250.178682 243.195404) scale(0.12 -0.12)">
                        <use xlink:href="#CMMI12-78" transform="scale(0.996264)"/>
                        <use xlink:href="#CMR17-33" transform="translate(55.43406 -14.943915) scale(0.697382)"/>
                    </g>
                </g>
            </g>
        </g>
    </g>
    <defs>
        <clipPath id="p4f8f4e6de5">
            <rect x="58.249224" y="34.56" width="361.145186" height="221.76"/>
        </clipPath>
    </defs>
</svg>
