<?xml version="1.0" encoding="utf-8" standalone="no"?>
<!DOCTYPE svg PUBLIC "-//W3C//DTD SVG 1.1//EN"
        "http://www.w3.org/Graphics/SVG/1.1/DTD/svg11.dtd">
<svg xmlns:xlink="http://www.w3.org/1999/xlink" width="349.495342pt" height="349.495342pt"
     viewBox="0 0 349.495342 349.495342" xmlns="http://www.w3.org/2000/svg" version="1.1">
    <metadata>
        <rdf:RDF xmlns:dc="http://purl.org/dc/elements/1.1/" xmlns:cc="http://creativecommons.org/ns#"
                 xmlns:rdf="http://www.w3.org/1999/02/22-rdf-syntax-ns#">
            <cc:Work>
                <dc:type rdf:resource="http://purl.org/dc/dcmitype/StillImage"/>
                <dc:date>2024-05-01T01:54:12.818122</dc:date>
                <dc:format>image/svg+xml</dc:format>
                <dc:creator>
                    <cc:Agent>
                        <dc:title>Matplotlib v3.8.4, https://matplotlib.org/</dc:title>
                    </cc:Agent>
                </dc:creator>
            </cc:Work>
        </rdf:RDF>
    </metadata>
    <defs>
        <style type="text/css">*{stroke-linejoin: round; stroke-linecap: butt}</style>
    </defs>
    <g id="figure_1">
        <g id="patch_1">
            <path d="M 0 349.495342
L 349.495342 349.495342 
L 349.495342 0 
L 0 0 
z
" style="fill: #ffffff"/>
        </g>
        <g id="axes_1">
            <g id="patch_2">
                <path d="M 43.686918 311.050854
L 314.545807 311.050854 
L 314.545807 41.939441 
L 43.686918 41.939441 
z
" style="fill: #ffffff"/>
            </g>
            <g id="matplotlib.axis_1">
                <g id="xtick_1">
                    <g id="line2d_1">
                        <path d="M 57.596007 311.050854
L 57.596007 41.939441 
" clip-path="url(#p239a39cdff)" style="fill: none; stroke: #b0b0b0; stroke-width: 0.8; stroke-linecap: square"/>
                    </g>
                    <g id="line2d_2">
                        <defs>
                            <path id="mfdd034e10a" d="M 0 0
L 0 3.5 
" style="stroke: #000000; stroke-width: 0.8"/>
                        </defs>
                        <g>
                            <use xlink:href="#mfdd034e10a" x="57.596007" y="311.050854"
                                 style="stroke: #000000; stroke-width: 0.8"/>
                        </g>
                    </g>
                    <g id="text_1">
                        <!-- $\mathdefault{−0.05}$ -->
                        <g transform="translate(44.865928 324.969352) scale(0.1 -0.1)">
                            <defs>
                                <path id="CMSY10-0" d="M 4218 1472
C 4326 1472 4442 1472 4442 1600 
C 4442 1728 4326 1728 4218 1728 
L 755 1728 
C 646 1728 531 1728 531 1600 
C 531 1472 646 1472 755 1472 
L 4218 1472 
z
" transform="scale(0.015625)"/>
                                <path id="CMR17-30" d="M 2688 2038
C 2688 2430 2682 3099 2413 3613 
C 2176 4063 1798 4224 1466 4224 
C 1158 4224 768 4082 525 3620 
C 269 3137 243 2539 243 2038 
C 243 1671 250 1112 448 623 
C 723 -39 1216 -128 1466 -128 
C 1760 -128 2208 -7 2470 604 
C 2662 1048 2688 1568 2688 2038 
z
M 1466 -26 
C 1056 -26 813 328 723 816 
C 653 1196 653 1749 653 2109 
C 653 2604 653 3015 736 3407 
C 858 3954 1216 4121 1466 4121 
C 1728 4121 2067 3947 2189 3420 
C 2272 3054 2278 2623 2278 2109 
C 2278 1691 2278 1176 2202 797 
C 2067 96 1690 -26 1466 -26 
z
" transform="scale(0.015625)"/>
                                <path id="CMMI12-3a" d="M 1178 307
C 1178 492 1024 620 870 620 
C 685 620 557 467 557 313 
C 557 128 710 0 864 0 
C 1050 0 1178 153 1178 307 
z
" transform="scale(0.015625)"/>
                                <path id="CMR17-35" d="M 730 3750
C 794 3724 1056 3641 1325 3641 
C 1920 3641 2246 3961 2432 4140 
C 2432 4191 2432 4224 2394 4224 
C 2387 4224 2374 4224 2323 4198 
C 2099 4102 1837 4032 1517 4032 
C 1325 4032 1037 4055 723 4191 
C 653 4224 640 4224 634 4224 
C 602 4224 595 4217 595 4090 
L 595 2231 
C 595 2113 595 2080 659 2080 
C 691 2080 704 2093 736 2139 
C 941 2435 1222 2560 1542 2560 
C 1766 2560 2246 2415 2246 1293 
C 2246 1087 2246 716 2054 422 
C 1894 159 1645 25 1370 25 
C 947 25 518 319 403 812 
C 429 806 480 793 506 793 
C 589 793 749 838 749 1036 
C 749 1209 627 1280 506 1280 
C 358 1280 262 1190 262 1011 
C 262 454 704 -128 1382 -128 
C 2042 -128 2669 441 2669 1267 
C 2669 2054 2170 2662 1549 2662 
C 1222 2662 947 2540 730 2304 
L 730 3750 
z
" transform="scale(0.015625)"/>
                            </defs>
                            <use xlink:href="#CMSY10-0" transform="scale(0.996264)"/>
                            <use xlink:href="#CMR17-30" transform="translate(77.487468 0) scale(0.996264)"/>
                            <use xlink:href="#CMMI12-3a" transform="translate(123.177945 0) scale(0.996264)"/>
                            <use xlink:href="#CMR17-30" transform="translate(150.275122 0) scale(0.996264)"/>
                            <use xlink:href="#CMR17-35" transform="translate(195.965599 0) scale(0.996264)"/>
                        </g>
                    </g>
                </g>
                <g id="xtick_2">
                    <g id="line2d_3">
                        <path d="M 106.869346 311.050854
L 106.869346 41.939441 
" clip-path="url(#p239a39cdff)" style="fill: none; stroke: #b0b0b0; stroke-width: 0.8; stroke-linecap: square"/>
                    </g>
                    <g id="line2d_4">
                        <g>
                            <use xlink:href="#mfdd034e10a" x="106.869346" y="311.050854"
                                 style="stroke: #000000; stroke-width: 0.8"/>
                        </g>
                    </g>
                    <g id="text_2">
                        <!-- $\mathdefault{0.00}$ -->
                        <g transform="translate(98.013639 324.969352) scale(0.1 -0.1)">
                            <use xlink:href="#CMR17-30" transform="scale(0.996264)"/>
                            <use xlink:href="#CMMI12-3a" transform="translate(45.690477 0) scale(0.996264)"/>
                            <use xlink:href="#CMR17-30" transform="translate(72.787654 0) scale(0.996264)"/>
                            <use xlink:href="#CMR17-30" transform="translate(118.478131 0) scale(0.996264)"/>
                        </g>
                    </g>
                </g>
                <g id="xtick_3">
                    <g id="line2d_5">
                        <path d="M 156.142685 311.050854
L 156.142685 41.939441 
" clip-path="url(#p239a39cdff)" style="fill: none; stroke: #b0b0b0; stroke-width: 0.8; stroke-linecap: square"/>
                    </g>
                    <g id="line2d_6">
                        <g>
                            <use xlink:href="#mfdd034e10a" x="156.142685" y="311.050854"
                                 style="stroke: #000000; stroke-width: 0.8"/>
                        </g>
                    </g>
                    <g id="text_3">
                        <!-- $\mathdefault{0.05}$ -->
                        <g transform="translate(147.286978 324.969352) scale(0.1 -0.1)">
                            <use xlink:href="#CMR17-30" transform="scale(0.996264)"/>
                            <use xlink:href="#CMMI12-3a" transform="translate(45.690477 0) scale(0.996264)"/>
                            <use xlink:href="#CMR17-30" transform="translate(72.787654 0) scale(0.996264)"/>
                            <use xlink:href="#CMR17-35" transform="translate(118.478131 0) scale(0.996264)"/>
                        </g>
                    </g>
                </g>
                <g id="xtick_4">
                    <g id="line2d_7">
                        <path d="M 205.416024 311.050854
L 205.416024 41.939441 
" clip-path="url(#p239a39cdff)" style="fill: none; stroke: #b0b0b0; stroke-width: 0.8; stroke-linecap: square"/>
                    </g>
                    <g id="line2d_8">
                        <g>
                            <use xlink:href="#mfdd034e10a" x="205.416024" y="311.050854"
                                 style="stroke: #000000; stroke-width: 0.8"/>
                        </g>
                    </g>
                    <g id="text_4">
                        <!-- $\mathdefault{0.10}$ -->
                        <g transform="translate(196.560317 324.969352) scale(0.1 -0.1)">
                            <defs>
                                <path id="CMR17-31" d="M 1702 4083
C 1702 4217 1696 4224 1606 4224 
C 1357 3927 979 3833 621 3820 
C 602 3820 570 3820 563 3808 
C 557 3795 557 3782 557 3648 
C 755 3648 1088 3686 1344 3839 
L 1344 467 
C 1344 243 1331 166 781 166 
L 589 166 
L 589 0 
C 896 6 1216 12 1523 12 
C 1830 12 2150 6 2458 0 
L 2458 166 
L 2266 166 
C 1715 166 1702 236 1702 467 
L 1702 4083 
z
" transform="scale(0.015625)"/>
                            </defs>
                            <use xlink:href="#CMR17-30" transform="scale(0.996264)"/>
                            <use xlink:href="#CMMI12-3a" transform="translate(45.690477 0) scale(0.996264)"/>
                            <use xlink:href="#CMR17-31" transform="translate(72.787654 0) scale(0.996264)"/>
                            <use xlink:href="#CMR17-30" transform="translate(118.478131 0) scale(0.996264)"/>
                        </g>
                    </g>
                </g>
                <g id="xtick_5">
                    <g id="line2d_9">
                        <path d="M 254.689363 311.050854
L 254.689363 41.939441 
" clip-path="url(#p239a39cdff)" style="fill: none; stroke: #b0b0b0; stroke-width: 0.8; stroke-linecap: square"/>
                    </g>
                    <g id="line2d_10">
                        <g>
                            <use xlink:href="#mfdd034e10a" x="254.689363" y="311.050854"
                                 style="stroke: #000000; stroke-width: 0.8"/>
                        </g>
                    </g>
                    <g id="text_5">
                        <!-- $\mathdefault{0.15}$ -->
                        <g transform="translate(245.833656 324.969352) scale(0.1 -0.1)">
                            <use xlink:href="#CMR17-30" transform="scale(0.996264)"/>
                            <use xlink:href="#CMMI12-3a" transform="translate(45.690477 0) scale(0.996264)"/>
                            <use xlink:href="#CMR17-31" transform="translate(72.787654 0) scale(0.996264)"/>
                            <use xlink:href="#CMR17-35" transform="translate(118.478131 0) scale(0.996264)"/>
                        </g>
                    </g>
                </g>
                <g id="xtick_6">
                    <g id="line2d_11">
                        <path d="M 303.962702 311.050854
L 303.962702 41.939441 
" clip-path="url(#p239a39cdff)" style="fill: none; stroke: #b0b0b0; stroke-width: 0.8; stroke-linecap: square"/>
                    </g>
                    <g id="line2d_12">
                        <g>
                            <use xlink:href="#mfdd034e10a" x="303.962702" y="311.050854"
                                 style="stroke: #000000; stroke-width: 0.8"/>
                        </g>
                    </g>
                    <g id="text_6">
                        <!-- $\mathdefault{0.20}$ -->
                        <g transform="translate(295.106995 324.969352) scale(0.1 -0.1)">
                            <defs>
                                <path id="CMR17-32" d="M 2669 990
L 2554 990 
C 2490 537 2438 460 2413 422 
C 2381 371 1920 371 1830 371 
L 602 371 
C 832 620 1280 1073 1824 1596 
C 2214 1966 2669 2400 2669 3033 
C 2669 3788 2067 4224 1395 4224 
C 691 4224 262 3603 262 3027 
C 262 2777 448 2745 525 2745 
C 589 2745 781 2783 781 3007 
C 781 3206 614 3264 525 3264 
C 486 3264 448 3257 422 3244 
C 544 3788 915 4057 1306 4057 
C 1862 4057 2227 3616 2227 3033 
C 2227 2477 1901 1998 1536 1583 
L 262 147 
L 262 0 
L 2515 0 
L 2669 990 
z
" transform="scale(0.015625)"/>
                            </defs>
                            <use xlink:href="#CMR17-30" transform="scale(0.996264)"/>
                            <use xlink:href="#CMMI12-3a" transform="translate(45.690477 0) scale(0.996264)"/>
                            <use xlink:href="#CMR17-32" transform="translate(72.787654 0) scale(0.996264)"/>
                            <use xlink:href="#CMR17-30" transform="translate(118.478131 0) scale(0.996264)"/>
                        </g>
                    </g>
                </g>
                <g id="text_7">
                    <!-- $x_1$ -->
                    <g transform="translate(173.673228 339.208711) scale(0.12 -0.12)">
                        <defs>
                            <path id="CMMI12-78" d="M 3034 2624
C 2829 2585 2752 2431 2752 2310 
C 2752 2156 2874 2105 2963 2105 
C 3155 2105 3290 2271 3290 2444 
C 3290 2694 2982 2816 2714 2816 
C 2323 2816 2106 2451 2048 2329 
C 1901 2790 1504 2816 1389 2816 
C 736 2816 390 1993 390 1849 
C 390 1823 416 1790 461 1790 
C 512 1790 525 1829 538 1855 
C 755 2572 1184 2687 1370 2687 
C 1658 2687 1715 2438 1715 2284 
C 1715 2143 1677 1993 1600 1678 
L 1382 778 
C 1286 390 1101 64 762 64 
C 730 64 570 64 435 126 
C 666 166 717 358 717 435 
C 717 563 621 640 499 640 
C 346 640 179 505 179 300 
C 179 57 480 -64 755 -64 
C 1062 -64 1280 153 1414 415 
C 1517 64 1837 -64 2074 -64 
C 2726 -64 3072 751 3072 896 
C 3072 929 3046 955 3008 955 
C 2950 955 2944 922 2925 870 
C 2752 300 2381 64 2093 64 
C 1869 64 1747 204 1747 467 
C 1747 607 1773 712 1875 1146 
L 2099 2039 
C 2195 2425 2413 2687 2707 2687 
C 2720 2687 2899 2687 3034 2624 
z
" transform="scale(0.015625)"/>
                        </defs>
                        <use xlink:href="#CMMI12-78" transform="scale(0.996264)"/>
                        <use xlink:href="#CMR17-31" transform="translate(55.43406 -14.943915) scale(0.697382)"/>
                    </g>
                </g>
            </g>
            <g id="matplotlib.axis_2">
                <g id="ytick_1">
                    <g id="line2d_13">
                        <path d="M 43.686918 290.683805
L 314.545807 290.683805 
" clip-path="url(#p239a39cdff)" style="fill: none; stroke: #b0b0b0; stroke-width: 0.8; stroke-linecap: square"/>
                    </g>
                    <g id="line2d_14">
                        <defs>
                            <path id="m130fb6fd3a" d="M 0 0
L -3.5 0 
" style="stroke: #000000; stroke-width: 0.8"/>
                        </defs>
                        <g>
                            <use xlink:href="#m130fb6fd3a" x="43.686918" y="290.683805"
                                 style="stroke: #000000; stroke-width: 0.8"/>
                        </g>
                    </g>
                    <g id="text_8">
                        <!-- $\mathdefault{−0.05}$ -->
                        <g transform="translate(11.22676 294.143054) scale(0.1 -0.1)">
                            <use xlink:href="#CMSY10-0" transform="scale(0.996264)"/>
                            <use xlink:href="#CMR17-30" transform="translate(77.487468 0) scale(0.996264)"/>
                            <use xlink:href="#CMMI12-3a" transform="translate(123.177945 0) scale(0.996264)"/>
                            <use xlink:href="#CMR17-30" transform="translate(150.275122 0) scale(0.996264)"/>
                            <use xlink:href="#CMR17-35" transform="translate(195.965599 0) scale(0.996264)"/>
                        </g>
                    </g>
                </g>
                <g id="ytick_2">
                    <g id="line2d_15">
                        <path d="M 43.686918 241.410466
L 314.545807 241.410466 
" clip-path="url(#p239a39cdff)" style="fill: none; stroke: #b0b0b0; stroke-width: 0.8; stroke-linecap: square"/>
                    </g>
                    <g id="line2d_16">
                        <g>
                            <use xlink:href="#m130fb6fd3a" x="43.686918" y="241.410466"
                                 style="stroke: #000000; stroke-width: 0.8"/>
                        </g>
                    </g>
                    <g id="text_9">
                        <!-- $\mathdefault{0.00}$ -->
                        <g transform="translate(18.975503 244.869715) scale(0.1 -0.1)">
                            <use xlink:href="#CMR17-30" transform="scale(0.996264)"/>
                            <use xlink:href="#CMMI12-3a" transform="translate(45.690477 0) scale(0.996264)"/>
                            <use xlink:href="#CMR17-30" transform="translate(72.787654 0) scale(0.996264)"/>
                            <use xlink:href="#CMR17-30" transform="translate(118.478131 0) scale(0.996264)"/>
                        </g>
                    </g>
                </g>
                <g id="ytick_3">
                    <g id="line2d_17">
                        <path d="M 43.686918 192.137127
L 314.545807 192.137127 
" clip-path="url(#p239a39cdff)" style="fill: none; stroke: #b0b0b0; stroke-width: 0.8; stroke-linecap: square"/>
                    </g>
                    <g id="line2d_18">
                        <g>
                            <use xlink:href="#m130fb6fd3a" x="43.686918" y="192.137127"
                                 style="stroke: #000000; stroke-width: 0.8"/>
                        </g>
                    </g>
                    <g id="text_10">
                        <!-- $\mathdefault{0.05}$ -->
                        <g transform="translate(18.975503 195.596376) scale(0.1 -0.1)">
                            <use xlink:href="#CMR17-30" transform="scale(0.996264)"/>
                            <use xlink:href="#CMMI12-3a" transform="translate(45.690477 0) scale(0.996264)"/>
                            <use xlink:href="#CMR17-30" transform="translate(72.787654 0) scale(0.996264)"/>
                            <use xlink:href="#CMR17-35" transform="translate(118.478131 0) scale(0.996264)"/>
                        </g>
                    </g>
                </g>
                <g id="ytick_4">
                    <g id="line2d_19">
                        <path d="M 43.686918 142.863788
L 314.545807 142.863788 
" clip-path="url(#p239a39cdff)" style="fill: none; stroke: #b0b0b0; stroke-width: 0.8; stroke-linecap: square"/>
                    </g>
                    <g id="line2d_20">
                        <g>
                            <use xlink:href="#m130fb6fd3a" x="43.686918" y="142.863788"
                                 style="stroke: #000000; stroke-width: 0.8"/>
                        </g>
                    </g>
                    <g id="text_11">
                        <!-- $\mathdefault{0.10}$ -->
                        <g transform="translate(18.975503 146.323037) scale(0.1 -0.1)">
                            <use xlink:href="#CMR17-30" transform="scale(0.996264)"/>
                            <use xlink:href="#CMMI12-3a" transform="translate(45.690477 0) scale(0.996264)"/>
                            <use xlink:href="#CMR17-31" transform="translate(72.787654 0) scale(0.996264)"/>
                            <use xlink:href="#CMR17-30" transform="translate(118.478131 0) scale(0.996264)"/>
                        </g>
                    </g>
                </g>
                <g id="ytick_5">
                    <g id="line2d_21">
                        <path d="M 43.686918 93.590449
L 314.545807 93.590449 
" clip-path="url(#p239a39cdff)" style="fill: none; stroke: #b0b0b0; stroke-width: 0.8; stroke-linecap: square"/>
                    </g>
                    <g id="line2d_22">
                        <g>
                            <use xlink:href="#m130fb6fd3a" x="43.686918" y="93.590449"
                                 style="stroke: #000000; stroke-width: 0.8"/>
                        </g>
                    </g>
                    <g id="text_12">
                        <!-- $\mathdefault{0.15}$ -->
                        <g transform="translate(18.975503 97.049698) scale(0.1 -0.1)">
                            <use xlink:href="#CMR17-30" transform="scale(0.996264)"/>
                            <use xlink:href="#CMMI12-3a" transform="translate(45.690477 0) scale(0.996264)"/>
                            <use xlink:href="#CMR17-31" transform="translate(72.787654 0) scale(0.996264)"/>
                            <use xlink:href="#CMR17-35" transform="translate(118.478131 0) scale(0.996264)"/>
                        </g>
                    </g>
                </g>
                <g id="ytick_6">
                    <g id="line2d_23">
                        <path d="M 43.686918 44.31711
L 314.545807 44.31711 
" clip-path="url(#p239a39cdff)" style="fill: none; stroke: #b0b0b0; stroke-width: 0.8; stroke-linecap: square"/>
                    </g>
                    <g id="line2d_24">
                        <g>
                            <use xlink:href="#m130fb6fd3a" x="43.686918" y="44.31711"
                                 style="stroke: #000000; stroke-width: 0.8"/>
                        </g>
                    </g>
                    <g id="text_13">
                        <!-- $\mathdefault{0.20}$ -->
                        <g transform="translate(18.975503 47.776359) scale(0.1 -0.1)">
                            <use xlink:href="#CMR17-30" transform="scale(0.996264)"/>
                            <use xlink:href="#CMMI12-3a" transform="translate(45.690477 0) scale(0.996264)"/>
                            <use xlink:href="#CMR17-32" transform="translate(72.787654 0) scale(0.996264)"/>
                            <use xlink:href="#CMR17-30" transform="translate(118.478131 0) scale(0.996264)"/>
                        </g>
                    </g>
                </g>
                <g id="text_14">
                    <!-- $x_2$ -->
                    <g transform="translate(4.902164 181.938282) rotate(-90) scale(0.12 -0.12)">
                        <use xlink:href="#CMMI12-78" transform="scale(0.996264)"/>
                        <use xlink:href="#CMR17-32" transform="translate(55.43406 -14.943915) scale(0.697382)"/>
                    </g>
                </g>
            </g>
            <g id="line2d_25">
                <path d="M 217.734359 54.171778
L 251.363413 270.580283 
L 180.498809 298.818517 
L 132.571809 266.370198 
L 114.475033 249.626865 
L 108.889294 243.75799 
L 107.359877 242.01724 
L 106.978276 241.554114 
L 106.891063 241.441467 
L 106.873019 241.416408 
L 106.869773 241.411401 
L 106.869328 241.41055 
L 106.869313 241.41045 
L 106.869332 241.410454 
L 106.869341 241.410461 
L 106.869345 241.410464 
L 106.869346 241.410466 
L 106.869346 241.410466 
L 106.869346 241.410466 
L 106.869346 241.410466 
L 106.869346 241.410466 
" clip-path="url(#p239a39cdff)" style="fill: none; stroke: #1f77b4; stroke-width: 1.5; stroke-linecap: square"/>
                <defs>
                    <path id="m0c89108e9e" d="M 0 5
C 1.326016 5 2.597899 4.473168 3.535534 3.535534 
C 4.473168 2.597899 5 1.326016 5 0 
C 5 -1.326016 4.473168 -2.597899 3.535534 -3.535534 
C 2.597899 -4.473168 1.326016 -5 0 -5 
C -1.326016 -5 -2.597899 -4.473168 -3.535534 -3.535534 
C -4.473168 -2.597899 -5 -1.326016 -5 0 
C -5 1.326016 -4.473168 2.597899 -3.535534 3.535534 
C -2.597899 4.473168 -1.326016 5 0 5 
z
" style="stroke: #0000ff"/>
                </defs>
                <g clip-path="url(#p239a39cdff)">
                    <use xlink:href="#m0c89108e9e" x="217.734359" y="54.171778" style="fill: #ff0000; stroke: #0000ff"/>
                    <use xlink:href="#m0c89108e9e" x="251.363413" y="270.580283"
                         style="fill: #ff0000; stroke: #0000ff"/>
                    <use xlink:href="#m0c89108e9e" x="180.498809" y="298.818517"
                         style="fill: #ff0000; stroke: #0000ff"/>
                    <use xlink:href="#m0c89108e9e" x="132.571809" y="266.370198"
                         style="fill: #ff0000; stroke: #0000ff"/>
                    <use xlink:href="#m0c89108e9e" x="114.475033" y="249.626865"
                         style="fill: #ff0000; stroke: #0000ff"/>
                    <use xlink:href="#m0c89108e9e" x="108.889294" y="243.75799" style="fill: #ff0000; stroke: #0000ff"/>
                    <use xlink:href="#m0c89108e9e" x="107.359877" y="242.01724" style="fill: #ff0000; stroke: #0000ff"/>
                    <use xlink:href="#m0c89108e9e" x="106.978276" y="241.554114"
                         style="fill: #ff0000; stroke: #0000ff"/>
                    <use xlink:href="#m0c89108e9e" x="106.891063" y="241.441467"
                         style="fill: #ff0000; stroke: #0000ff"/>
                    <use xlink:href="#m0c89108e9e" x="106.873019" y="241.416408"
                         style="fill: #ff0000; stroke: #0000ff"/>
                    <use xlink:href="#m0c89108e9e" x="106.869773" y="241.411401"
                         style="fill: #ff0000; stroke: #0000ff"/>
                    <use xlink:href="#m0c89108e9e" x="106.869328" y="241.41055" style="fill: #ff0000; stroke: #0000ff"/>
                    <use xlink:href="#m0c89108e9e" x="106.869313" y="241.41045" style="fill: #ff0000; stroke: #0000ff"/>
                    <use xlink:href="#m0c89108e9e" x="106.869332" y="241.410454"
                         style="fill: #ff0000; stroke: #0000ff"/>
                    <use xlink:href="#m0c89108e9e" x="106.869341" y="241.410461"
                         style="fill: #ff0000; stroke: #0000ff"/>
                    <use xlink:href="#m0c89108e9e" x="106.869345" y="241.410464"
                         style="fill: #ff0000; stroke: #0000ff"/>
                    <use xlink:href="#m0c89108e9e" x="106.869346" y="241.410466"
                         style="fill: #ff0000; stroke: #0000ff"/>
                    <use xlink:href="#m0c89108e9e" x="106.869346" y="241.410466"
                         style="fill: #ff0000; stroke: #0000ff"/>
                    <use xlink:href="#m0c89108e9e" x="106.869346" y="241.410466"
                         style="fill: #ff0000; stroke: #0000ff"/>
                    <use xlink:href="#m0c89108e9e" x="106.869346" y="241.410466"
                         style="fill: #ff0000; stroke: #0000ff"/>
                    <use xlink:href="#m0c89108e9e" x="106.869346" y="241.410466"
                         style="fill: #ff0000; stroke: #0000ff"/>
                </g>
            </g>
            <g id="line2d_26">
                <path d="M 217.734359 54.171778
" clip-path="url(#p239a39cdff)" style="fill: none; stroke: #ff7f0e; stroke-width: 1.5; stroke-linecap: square"/>
                <defs>
                    <path id="mb076799996" d="M -5 5
L 5 5 
L 5 -5 
L -5 -5 
z
" style="stroke: #bf00bf; stroke-linejoin: miter"/>
                </defs>
                <g clip-path="url(#p239a39cdff)">
                    <use xlink:href="#mb076799996" x="217.734359" y="54.171778"
                         style="fill: #bfbf00; stroke: #bf00bf; stroke-linejoin: miter"/>
                </g>
            </g>
            <g id="patch_3">
                <path d="M 43.686918 311.050854
L 43.686918 41.939441 
" style="fill: none; stroke: #000000; stroke-width: 0.8; stroke-linejoin: miter; stroke-linecap: square"/>
            </g>
            <g id="patch_4">
                <path d="M 314.545807 311.050854
L 314.545807 41.939441 
" style="fill: none; stroke: #000000; stroke-width: 0.8; stroke-linejoin: miter; stroke-linecap: square"/>
            </g>
            <g id="patch_5">
                <path d="M 43.686918 311.050854
L 314.545807 311.050854 
" style="fill: none; stroke: #000000; stroke-width: 0.8; stroke-linejoin: miter; stroke-linecap: square"/>
            </g>
            <g id="patch_6">
                <path d="M 43.686918 41.939441
L 314.545807 41.939441 
" style="fill: none; stroke: #000000; stroke-width: 0.8; stroke-linejoin: miter; stroke-linecap: square"/>
            </g>
            <g id="text_15">
                <!-- State Trajectory (2-D) -->
                <g transform="translate(121.156534 35.939441) scale(0.12 -0.12)">
                    <defs>
                        <path id="CMR17-53" d="M 2803 4351
C 2803 4467 2797 4473 2758 4473 
C 2720 4473 2707 4447 2682 4390 
L 2490 3965 
C 2246 4320 1875 4480 1472 4480 
C 819 4480 294 3958 294 3301 
C 294 3101 339 2817 557 2546 
C 794 2250 1018 2198 1530 2063 
C 1722 2011 2042 1927 2106 1901 
C 2470 1747 2662 1360 2662 999 
C 2662 534 2336 38 1779 38 
C 1094 38 454 425 410 1328 
C 403 1431 397 1437 352 1437 
C 301 1437 294 1431 294 1302 
L 294 0 
C 294 -116 301 -122 339 -122 
C 384 -122 397 -90 486 109 
C 493 128 493 141 614 386 
C 934 -39 1472 -128 1779 -128 
C 2477 -128 2970 457 2970 1141 
C 2970 1476 2848 1734 2778 1850 
C 2509 2263 2221 2340 1914 2417 
C 1869 2437 1856 2437 1498 2527 
C 1152 2617 1005 2662 845 2836 
C 666 3036 602 3243 602 3449 
C 602 3868 934 4326 1478 4326 
C 2157 4326 2579 3842 2675 3036 
C 2694 2920 2701 2914 2746 2914 
C 2803 2914 2803 2933 2803 3043 
L 2803 4351 
z
" transform="scale(0.015625)"/>
                        <path id="CMR17-74" d="M 966 2585
L 1862 2585 
L 1862 2752 
L 966 2752 
L 966 3968 
L 851 3968 
C 838 3292 614 2700 70 2687 
L 70 2585 
L 627 2585 
L 627 778 
C 627 655 627 -64 1370 -64 
C 1747 -64 1965 308 1965 784 
L 1965 1151 
L 1850 1151 
L 1850 790 
C 1850 347 1677 51 1408 51 
C 1222 51 966 179 966 765 
L 966 2585 
z
" transform="scale(0.015625)"/>
                        <path id="CMR17-61" d="M 2304 1656
C 2304 2048 2304 2275 2035 2534 
C 1798 2751 1523 2816 1306 2816 
C 800 2816 435 2408 435 1977 
C 435 1740 627 1728 666 1728 
C 749 1728 896 1779 896 1958 
C 896 2118 774 2188 666 2188 
C 640 2188 608 2182 589 2176 
C 723 2594 1069 2713 1293 2713 
C 1613 2713 1965 2421 1965 1875 
L 1965 1632 
C 1587 1619 1133 1568 774 1373 
C 371 1147 256 822 256 576 
C 256 77 832 -64 1171 -64 
C 1523 -64 1850 135 1990 505 
C 2003 219 2182 -39 2464 -39 
C 2598 -39 2938 51 2938 563 
L 2938 926 
L 2822 926 
L 2822 557 
C 2822 161 2650 109 2566 109 
C 2304 109 2304 446 2304 732 
L 2304 1656 
z
M 1965 887 
C 1965 323 1568 38 1216 38 
C 896 38 646 278 646 576 
C 646 771 730 1114 1101 1322 
C 1408 1497 1760 1523 1965 1536 
L 1965 887 
z
" transform="scale(0.015625)"/>
                        <path id="CMR17-65" d="M 2438 1503
C 2464 1529 2464 1542 2464 1606 
C 2464 2251 2118 2816 1389 2816 
C 710 2816 173 2175 173 1394 
C 173 554 781 -64 1459 -64 
C 2176 -64 2458 619 2458 755 
C 2458 800 2419 800 2406 800 
C 2362 800 2355 787 2330 709 
C 2189 270 1837 51 1504 51 
C 1229 51 954 206 781 490 
C 582 819 582 1200 582 1503 
L 2438 1503 
z
M 589 1600 
C 634 2511 1126 2713 1382 2713 
C 1818 2713 2112 2308 2118 1600 
L 589 1600 
z
" transform="scale(0.015625)"/>
                        <path id="CMR17-54" d="M 3981 4332
L 288 4332 
L 179 2924 
L 294 2924 
C 378 3981 467 4166 1453 4166 
C 1568 4166 1754 4166 1805 4159 
C 1926 4140 1926 4064 1926 3917 
L 1926 465 
C 1926 236 1907 166 1376 166 
L 1197 166 
L 1197 0 
C 1504 6 1824 12 2138 12 
C 2451 12 2771 6 3078 0 
L 3078 166 
L 2899 166 
C 2368 166 2349 236 2349 465 
L 2349 3917 
C 2349 4057 2349 4134 2464 4159 
C 2515 4166 2701 4166 2816 4166 
C 3795 4166 3891 3981 3974 2924 
L 4090 2924 
L 3981 4332 
z
" transform="scale(0.015625)"/>
                        <path id="CMR17-72" d="M 960 1517
C 960 2134 1222 2713 1702 2713 
C 1747 2713 1792 2707 1837 2687 
C 1837 2687 1696 2642 1696 2475 
C 1696 2321 1818 2257 1914 2257 
C 1990 2257 2131 2302 2131 2482 
C 2131 2687 1926 2816 1709 2816 
C 1222 2816 1011 2340 947 2115 
L 941 2115 
L 941 2816 
L 198 2745 
L 198 2578 
C 576 2578 634 2540 634 2231 
L 634 443 
C 634 198 608 166 198 166 
L 198 0 
C 352 12 646 12 813 12 
C 998 12 1325 12 1498 0 
L 1498 166 
C 1037 166 960 166 960 455 
L 960 1517 
z
" transform="scale(0.015625)"/>
                        <path id="CMR17-6a" d="M 1165 3961
C 1165 4102 1050 4224 902 4224 
C 762 4224 640 4108 640 3961 
C 640 3820 755 3699 902 3699 
C 1043 3699 1165 3814 1165 3961 
z
M 365 2745 
L 365 2579 
C 787 2579 838 2533 838 2221 
L 838 -410 
C 838 -735 781 -1242 403 -1242 
C 358 -1242 186 -1236 45 -1145 
C 90 -1138 250 -1093 250 -911 
C 250 -787 166 -677 19 -677 
C -122 -677 -211 -774 -211 -917 
C -211 -1177 70 -1344 397 -1344 
C 838 -1344 1165 -937 1165 -384 
L 1165 2816 
L 365 2745 
z
" transform="scale(0.015625)"/>
                        <path id="CMR17-63" d="M 2234 2240
C 2112 2240 1933 2240 1933 2015 
C 1933 1836 2080 1785 2163 1785 
C 2208 1785 2394 1804 2394 2028 
C 2394 2476 1958 2816 1466 2816 
C 787 2816 211 2201 211 1379 
C 211 521 813 -64 1466 -64 
C 2259 -64 2458 676 2458 747 
C 2458 773 2451 792 2406 792 
C 2362 792 2355 786 2330 702 
C 2163 180 1798 51 1523 51 
C 1114 51 621 431 621 1385 
C 621 2358 1094 2700 1472 2700 
C 1722 2700 2093 2582 2234 2240 
z
" transform="scale(0.015625)"/>
                        <path id="CMR17-6f" d="M 2758 1356
C 2758 2176 2163 2816 1466 2816 
C 768 2816 173 2176 173 1356 
C 173 550 768 -64 1466 -64 
C 2163 -64 2758 550 2758 1356 
z
M 1466 51 
C 1165 51 909 230 762 480 
C 602 768 582 1126 582 1408 
C 582 1676 595 2009 762 2297 
C 890 2508 1139 2713 1466 2713 
C 1754 2713 1997 2553 2150 2329 
C 2349 2028 2349 1606 2349 1408 
C 2349 1158 2336 774 2163 467 
C 1984 172 1709 51 1466 51 
z
" transform="scale(0.015625)"/>
                        <path id="CMR17-79" d="M 2496 2183
C 2656 2579 2944 2585 3034 2585 
L 3034 2752 
C 2912 2745 2752 2739 2630 2739 
C 2496 2739 2285 2739 2157 2752 
L 2157 2585 
C 2400 2566 2406 2384 2406 2332 
C 2406 2268 2394 2235 2362 2158 
L 1664 409 
L 902 2300 
C 870 2378 870 2423 870 2430 
C 870 2572 1018 2585 1171 2585 
L 1171 2752 
C 1018 2739 742 2739 582 2739 
C 410 2739 205 2739 64 2752 
L 64 2585 
C 410 2585 448 2553 531 2345 
L 1485 -31 
C 1197 -795 1030 -1242 627 -1242 
C 557 -1242 397 -1223 282 -1106 
C 429 -1093 493 -1002 493 -892 
C 493 -782 416 -685 288 -685 
C 147 -685 77 -782 77 -899 
C 77 -1158 339 -1344 627 -1344 
C 998 -1344 1229 -983 1357 -659 
L 2496 2183 
z
" transform="scale(0.015625)"/>
                        <path id="CMR17-28" d="M 1958 -1562
C 1958 -1556 1958 -1543 1939 -1524 
C 1645 -1223 858 -403 858 1596 
C 858 3595 1632 4408 1946 4729 
C 1946 4735 1958 4748 1958 4767 
C 1958 4787 1939 4800 1914 4800 
C 1843 4800 1299 4325 986 3620 
C 666 2909 576 2218 576 1603 
C 576 1141 621 360 1005 -467 
C 1312 -1133 1837 -1600 1914 -1600 
C 1946 -1600 1958 -1588 1958 -1562 
z
" transform="scale(0.015625)"/>
                        <path id="CMR17-2d" d="M 1632 1254
L 1632 1536 
L 26 1536 
L 26 1254 
L 1632 1254 
z
" transform="scale(0.015625)"/>
                        <path id="CMR17-44" d="M 333 4352
L 333 4185 
C 774 4185 845 4185 845 3898 
L 845 453 
C 845 166 774 166 333 166 
L 333 0 
L 2368 0 
C 3398 0 4224 943 4224 2140 
C 4224 3344 3411 4352 2368 4352 
L 333 4352 
z
M 1523 166 
C 1267 166 1254 198 1254 414 
L 1254 3936 
C 1254 4153 1267 4185 1523 4185 
L 2240 4185 
C 2771 4185 3750 3873 3750 2140 
C 3750 1242 3488 879 3366 707 
C 3213 510 2848 166 2240 166 
L 1523 166 
z
" transform="scale(0.015625)"/>
                        <path id="CMR17-29" d="M 1683 1596
C 1683 2057 1638 2839 1254 3665 
C 947 4332 422 4800 346 4800 
C 326 4800 301 4793 301 4761 
C 301 4748 307 4742 314 4729 
C 621 4408 1402 3595 1402 1603 
C 1402 -396 627 -1210 314 -1530 
C 307 -1543 301 -1549 301 -1562 
C 301 -1594 326 -1600 346 -1600 
C 416 -1600 960 -1127 1274 -422 
C 1594 289 1683 981 1683 1596 
z
" transform="scale(0.015625)"/>
                    </defs>
                    <use xlink:href="#CMR17-53" transform="scale(0.996264)"/>
                    <use xlink:href="#CMR17-74" transform="translate(50.89537 0) scale(0.996264)"/>
                    <use xlink:href="#CMR17-61" transform="translate(86.176138 0) scale(0.996264)"/>
                    <use xlink:href="#CMR17-74" transform="translate(131.866615 0) scale(0.996264)"/>
                    <use xlink:href="#CMR17-65" transform="translate(167.147382 0) scale(0.996264)"/>
                    <use xlink:href="#CMR17-54" transform="translate(237.709009 0) scale(0.996264)"/>
                    <use xlink:href="#CMR17-72" transform="translate(296.411634 0) scale(0.996264)"/>
                    <use xlink:href="#CMR17-61" transform="translate(331.692402 0) scale(0.996264)"/>
                    <use xlink:href="#CMR17-6a" transform="translate(382.587681 0) scale(0.996264)"/>
                    <use xlink:href="#CMR17-65" transform="translate(410.061193 0) scale(0.996264)"/>
                    <use xlink:href="#CMR17-63" transform="translate(450.546854 0) scale(0.996264)"/>
                    <use xlink:href="#CMR17-74" transform="translate(491.032514 0) scale(0.996264)"/>
                    <use xlink:href="#CMR17-6f" transform="translate(526.313282 0) scale(0.996264)"/>
                    <use xlink:href="#CMR17-72" transform="translate(572.003759 0) scale(0.996264)"/>
                    <use xlink:href="#CMR17-79" transform="translate(607.284527 0) scale(0.996264)"/>
                    <use xlink:href="#CMR17-28" transform="translate(685.653409 0) scale(0.996264)"/>
                    <use xlink:href="#CMR17-32" transform="translate(720.934177 0) scale(0.996264)"/>
                    <use xlink:href="#CMR17-2d" transform="translate(766.624654 0) scale(0.996264)"/>
                    <use xlink:href="#CMR17-44" transform="translate(796.70062 0) scale(0.996264)"/>
                    <use xlink:href="#CMR17-29" transform="translate(867.094176 0) scale(0.996264)"/>
                </g>
            </g>
            <g id="legend_1">
                <g id="patch_7">
                    <path d="M 52.086918 87.449777
L 150.002929 87.449777 
Q 152.402929 87.449777 152.402929 85.049777 
L 152.402929 50.339441 
Q 152.402929 47.939441 150.002929 47.939441 
L 52.086918 47.939441 
Q 49.686918 47.939441 49.686918 50.339441 
L 49.686918 85.049777 
Q 49.686918 87.449777 52.086918 87.449777 
z
" style="fill: #ffffff; opacity: 0.8; stroke: #cccccc; stroke-linejoin: miter"/>
                </g>
                <g id="line2d_27">
                    <path d="M 54.486918 57.505817
L 66.486918 57.505817 
L 78.486918 57.505817 
" style="fill: none; stroke: #1f77b4; stroke-width: 1.5; stroke-linecap: square"/>
                    <g>
                        <use xlink:href="#m0c89108e9e" x="66.486918" y="57.505817"
                             style="fill: #ff0000; stroke: #0000ff"/>
                    </g>
                </g>
                <g id="text_16">
                    <!-- $x = (x_1, x_2)$ -->
                    <g transform="translate(88.086918 61.705817) scale(0.12 -0.12)">
                        <defs>
                            <path id="CMR17-3d" d="M 4115 2048
C 4211 2048 4307 2048 4307 2156 
C 4307 2272 4198 2272 4090 2272 
L 512 2272 
C 403 2272 294 2272 294 2156 
C 294 2048 390 2048 486 2048 
L 4115 2048 
z
M 4090 927 
C 4198 927 4307 927 4307 1043 
C 4307 1152 4211 1152 4115 1152 
L 486 1152 
C 390 1152 294 1152 294 1043 
C 294 927 403 927 512 927 
L 4090 927 
z
" transform="scale(0.015625)"/>
                            <path id="CMMI12-3b" d="M 1248 -26
C 1248 345 1126 620 864 620 
C 659 620 557 454 557 313 
C 557 172 653 0 870 0 
C 954 0 1024 25 1082 83 
C 1094 96 1101 96 1107 96 
C 1120 96 1120 6 1120 -26 
C 1120 -233 1082 -642 710 -1051 
C 640 -1127 640 -1140 640 -1152 
C 640 -1184 672 -1216 704 -1216 
C 755 -1216 1248 -749 1248 -26 
z
" transform="scale(0.015625)"/>
                        </defs>
                        <use xlink:href="#CMMI12-78" transform="scale(0.996264)"/>
                        <use xlink:href="#CMR17-3d" transform="translate(83.108068 0) scale(0.996264)"/>
                        <use xlink:href="#CMR17-28" transform="translate(182.496865 0) scale(0.996264)"/>
                        <use xlink:href="#CMMI12-78" transform="translate(217.777633 0) scale(0.996264)"/>
                        <use xlink:href="#CMR17-31" transform="translate(273.211693 -14.943915) scale(0.697382)"/>
                        <use xlink:href="#CMMI12-3b" transform="translate(305.693007 0) scale(0.996264)"/>
                        <use xlink:href="#CMMI12-78" transform="translate(349.394589 0) scale(0.996264)"/>
                        <use xlink:href="#CMR17-32" transform="translate(404.828649 -14.943915) scale(0.697382)"/>
                        <use xlink:href="#CMR17-29" transform="translate(437.309963 0) scale(0.996264)"/>
                    </g>
                </g>
                <g id="line2d_28">
                    <path d="M 54.486918 75.460985
L 66.486918 75.460985 
L 78.486918 75.460985 
" style="fill: none; stroke: #ff7f0e; stroke-width: 1.5; stroke-linecap: square"/>
                    <g>
                        <use xlink:href="#mb076799996" x="66.486918" y="75.460985"
                             style="fill: #bfbf00; stroke: #bf00bf; stroke-linejoin: miter"/>
                    </g>
                </g>
                <g id="text_17">
                    <!-- $x(0)$ -->
                    <g transform="translate(88.086918 79.660985) scale(0.12 -0.12)">
                        <use xlink:href="#CMMI12-78" transform="scale(0.996264)"/>
                        <use xlink:href="#CMR17-28" transform="translate(55.43406 0) scale(0.996264)"/>
                        <use xlink:href="#CMR17-30" transform="translate(90.714827 0) scale(0.996264)"/>
                        <use xlink:href="#CMR17-29" transform="translate(136.405304 0) scale(0.996264)"/>
                    </g>
                </g>
            </g>
        </g>
    </g>
    <defs>
        <clipPath id="p239a39cdff">
            <rect x="43.686918" y="41.939441" width="270.85889" height="269.111413"/>
        </clipPath>
    </defs>
</svg>
