<?xml version="1.0" encoding="utf-8" standalone="no"?>
<!DOCTYPE svg PUBLIC "-//W3C//DTD SVG 1.1//EN"
        "http://www.w3.org/Graphics/SVG/1.1/DTD/svg11.dtd">
<svg xmlns:xlink="http://www.w3.org/1999/xlink" width="465.993789pt" height="288pt" viewBox="0 0 465.993789 288"
     xmlns="http://www.w3.org/2000/svg" version="1.1">
 <metadata>
  <rdf:RDF xmlns:dc="http://purl.org/dc/elements/1.1/" xmlns:cc="http://creativecommons.org/ns#"
           xmlns:rdf="http://www.w3.org/1999/02/22-rdf-syntax-ns#">
   <cc:Work>
    <dc:type rdf:resource="http://purl.org/dc/dcmitype/StillImage"/>
    <dc:date>2024-05-13T23:43:48.969622</dc:date>
    <dc:format>image/svg+xml</dc:format>
    <dc:creator>
     <cc:Agent>
      <dc:title>Matplotlib v3.8.4, https://matplotlib.org/</dc:title>
     </cc:Agent>
    </dc:creator>
   </cc:Work>
  </rdf:RDF>
 </metadata>
 <defs>
  <style type="text/css">*{stroke-linejoin: round; stroke-linecap: butt}</style>
 </defs>
 <g id="figure_1">
  <g id="patch_1">
   <path d="M 0 288 
L 465.993789 288 
L 465.993789 0 
L 0 0 
z
" style="fill: #ffffff"/>
  </g>
  <g id="axes_1">
   <g id="patch_2">
    <path d="M 30.530079 108.117548 
L 215.331377 108.117548 
L 215.331377 25.10218 
L 30.530079 25.10218 
z
" style="fill: #f2f2f2"/>
   </g>
   <g id="PolyCollection_1">
    <defs>
     <path id="mb99d6d86ec" d="M 38.930138 -184.677168 
L 38.930138 -183.92275 
L 57.596936 -190.487011 
L 76.263734 -197.360086 
L 94.930531 -204.310835 
L 113.597329 -210.607957 
L 132.264127 -217.929393 
L 150.930925 -226.006108 
L 169.597722 -230.941271 
L 188.26452 -239.256504 
L 206.931318 -245.736393 
L 206.931318 -255.200809 
L 206.931318 -255.200809 
L 188.26452 -247.329481 
L 169.597722 -240.296875 
L 150.930925 -231.188766 
L 132.264127 -222.757789 
L 113.597329 -214.925569 
L 94.930531 -207.015752 
L 76.263734 -199.866764 
L 57.596936 -191.826448 
L 38.930138 -184.677168 
z
" style="stroke: #103c5a; stroke-opacity: 0.25"/>
    </defs>
    <g clip-path="url(#p96fa68add7)">
     <use xlink:href="#mb99d6d86ec" x="0" y="288"
          style="fill: #103c5a; fill-opacity: 0.25; stroke: #103c5a; stroke-opacity: 0.25"/>
    </g>
   </g>
   <g id="PolyCollection_2">
    <defs>
     <path id="m731a20de78" d="M 38.930138 -185.072113 
L 38.930138 -183.655878 
L 57.596936 -189.27527 
L 76.263734 -196.361353 
L 94.930531 -203.365748 
L 113.597329 -209.599705 
L 132.264127 -215.668216 
L 150.930925 -222.184564 
L 169.597722 -227.858868 
L 188.26452 -234.834314 
L 206.931318 -240.635442 
L 206.931318 -259.124394 
L 206.931318 -259.124394 
L 188.26452 -250.907208 
L 169.597722 -243.064114 
L 150.930925 -233.786477 
L 132.264127 -224.199529 
L 113.597329 -217.188623 
L 94.930531 -208.982403 
L 76.263734 -200.467953 
L 57.596936 -192.183741 
L 38.930138 -185.072113 
z
" style="stroke: #081e2d; stroke-opacity: 0.125"/>
    </defs>
    <g clip-path="url(#p96fa68add7)">
     <use xlink:href="#m731a20de78" x="0" y="288"
          style="fill: #081e2d; fill-opacity: 0.125; stroke: #081e2d; stroke-opacity: 0.125"/>
    </g>
   </g>
   <g id="matplotlib.axis_1">
    <g id="xtick_1">
     <g id="line2d_1">
      <path d="M 57.596936 108.117548 
L 57.596936 25.10218 
" clip-path="url(#p96fa68add7)" style="fill: none; stroke-dasharray: 3.7,1.6; stroke-dashoffset: 0; stroke: #ffffff"/>
     </g>
     <g id="line2d_2">
      <defs>
       <path id="m166610a887" d="M 0 0 
L 0 3.5 
" style="stroke: #000000; stroke-width: 0.8"/>
      </defs>
      <g>
       <use xlink:href="#m166610a887" x="57.596936" y="108.117548" style="stroke: #000000; stroke-width: 0.8"/>
      </g>
     </g>
     <g id="text_1">
      <!-- $\mathdefault{0.002}$ -->
      <g transform="translate(46.250561 122.036046) scale(0.1 -0.1)">
       <defs>
        <path id="CMR17-30" d="M 2688 2038 
C 2688 2430 2682 3099 2413 3613 
C 2176 4063 1798 4224 1466 4224 
C 1158 4224 768 4082 525 3620 
C 269 3137 243 2539 243 2038 
C 243 1671 250 1112 448 623 
C 723 -39 1216 -128 1466 -128 
C 1760 -128 2208 -7 2470 604 
C 2662 1048 2688 1568 2688 2038 
z
M 1466 -26 
C 1056 -26 813 328 723 816 
C 653 1196 653 1749 653 2109 
C 653 2604 653 3015 736 3407 
C 858 3954 1216 4121 1466 4121 
C 1728 4121 2067 3947 2189 3420 
C 2272 3054 2278 2623 2278 2109 
C 2278 1691 2278 1176 2202 797 
C 2067 96 1690 -26 1466 -26 
z
" transform="scale(0.015625)"/>
        <path id="CMMI12-3a" d="M 1178 307 
C 1178 492 1024 620 870 620 
C 685 620 557 467 557 313 
C 557 128 710 0 864 0 
C 1050 0 1178 153 1178 307 
z
" transform="scale(0.015625)"/>
        <path id="CMR17-32" d="M 2669 990 
L 2554 990 
C 2490 537 2438 460 2413 422 
C 2381 371 1920 371 1830 371 
L 602 371 
C 832 620 1280 1073 1824 1596 
C 2214 1966 2669 2400 2669 3033 
C 2669 3788 2067 4224 1395 4224 
C 691 4224 262 3603 262 3027 
C 262 2777 448 2745 525 2745 
C 589 2745 781 2783 781 3007 
C 781 3206 614 3264 525 3264 
C 486 3264 448 3257 422 3244 
C 544 3788 915 4057 1306 4057 
C 1862 4057 2227 3616 2227 3033 
C 2227 2477 1901 1998 1536 1583 
L 262 147 
L 262 0 
L 2515 0 
L 2669 990 
z
" transform="scale(0.015625)"/>
       </defs>
       <use xlink:href="#CMR17-30" transform="scale(0.996264)"/>
       <use xlink:href="#CMMI12-3a" transform="translate(45.690477 0) scale(0.996264)"/>
       <use xlink:href="#CMR17-30" transform="translate(72.787654 0) scale(0.996264)"/>
       <use xlink:href="#CMR17-30" transform="translate(118.478131 0) scale(0.996264)"/>
       <use xlink:href="#CMR17-32" transform="translate(164.168608 0) scale(0.996264)"/>
      </g>
     </g>
    </g>
    <g id="xtick_2">
     <g id="line2d_3">
      <path d="M 94.930531 108.117548 
L 94.930531 25.10218 
" clip-path="url(#p96fa68add7)" style="fill: none; stroke-dasharray: 3.7,1.6; stroke-dashoffset: 0; stroke: #ffffff"/>
     </g>
     <g id="line2d_4">
      <g>
       <use xlink:href="#m166610a887" x="94.930531" y="108.117548" style="stroke: #000000; stroke-width: 0.8"/>
      </g>
     </g>
     <g id="text_2">
      <!-- $\mathdefault{0.004}$ -->
      <g transform="translate(83.584157 122.036046) scale(0.1 -0.1)">
       <defs>
        <path id="CMR17-34" d="M 2150 4147 
C 2150 4281 2144 4288 2029 4288 
L 128 1254 
L 128 1088 
L 1779 1088 
L 1779 460 
C 1779 230 1766 166 1318 166 
L 1197 166 
L 1197 0 
C 1402 12 1747 12 1965 12 
C 2182 12 2528 12 2733 0 
L 2733 166 
L 2611 166 
C 2163 166 2150 230 2150 460 
L 2150 1088 
L 2803 1088 
L 2803 1254 
L 2150 1254 
L 2150 4147 
z
M 1798 3723 
L 1798 1254 
L 256 1254 
L 1798 3723 
z
" transform="scale(0.015625)"/>
       </defs>
       <use xlink:href="#CMR17-30" transform="scale(0.996264)"/>
       <use xlink:href="#CMMI12-3a" transform="translate(45.690477 0) scale(0.996264)"/>
       <use xlink:href="#CMR17-30" transform="translate(72.787654 0) scale(0.996264)"/>
       <use xlink:href="#CMR17-30" transform="translate(118.478131 0) scale(0.996264)"/>
       <use xlink:href="#CMR17-34" transform="translate(164.168608 0) scale(0.996264)"/>
      </g>
     </g>
    </g>
    <g id="xtick_3">
     <g id="line2d_5">
      <path d="M 132.264127 108.117548 
L 132.264127 25.10218 
" clip-path="url(#p96fa68add7)" style="fill: none; stroke-dasharray: 3.7,1.6; stroke-dashoffset: 0; stroke: #ffffff"/>
     </g>
     <g id="line2d_6">
      <g>
       <use xlink:href="#m166610a887" x="132.264127" y="108.117548" style="stroke: #000000; stroke-width: 0.8"/>
      </g>
     </g>
     <g id="text_3">
      <!-- $\mathdefault{0.006}$ -->
      <g transform="translate(120.917752 122.036046) scale(0.1 -0.1)">
       <defs>
        <path id="CMR17-36" d="M 678 2198 
C 678 3712 1395 4076 1811 4076 
C 1946 4076 2272 4049 2400 3782 
C 2298 3782 2106 3782 2106 3558 
C 2106 3385 2246 3328 2336 3328 
C 2394 3328 2566 3353 2566 3571 
C 2566 3987 2246 4224 1805 4224 
C 1043 4224 243 3411 243 2011 
C 243 257 966 -128 1478 -128 
C 2099 -128 2688 431 2688 1295 
C 2688 2101 2170 2688 1517 2688 
C 1126 2688 838 2430 678 1979 
L 678 2198 
z
M 1478 25 
C 691 25 691 1212 691 1450 
C 691 1914 909 2585 1504 2585 
C 1613 2585 1926 2585 2138 2140 
C 2253 1889 2253 1624 2253 1302 
C 2253 954 2253 696 2118 438 
C 1978 173 1773 25 1478 25 
z
" transform="scale(0.015625)"/>
       </defs>
       <use xlink:href="#CMR17-30" transform="scale(0.996264)"/>
       <use xlink:href="#CMMI12-3a" transform="translate(45.690477 0) scale(0.996264)"/>
       <use xlink:href="#CMR17-30" transform="translate(72.787654 0) scale(0.996264)"/>
       <use xlink:href="#CMR17-30" transform="translate(118.478131 0) scale(0.996264)"/>
       <use xlink:href="#CMR17-36" transform="translate(164.168608 0) scale(0.996264)"/>
      </g>
     </g>
    </g>
    <g id="xtick_4">
     <g id="line2d_7">
      <path d="M 169.597722 108.117548 
L 169.597722 25.10218 
" clip-path="url(#p96fa68add7)" style="fill: none; stroke-dasharray: 3.7,1.6; stroke-dashoffset: 0; stroke: #ffffff"/>
     </g>
     <g id="line2d_8">
      <g>
       <use xlink:href="#m166610a887" x="169.597722" y="108.117548" style="stroke: #000000; stroke-width: 0.8"/>
      </g>
     </g>
     <g id="text_4">
      <!-- $\mathdefault{0.008}$ -->
      <g transform="translate(158.251348 122.036046) scale(0.1 -0.1)">
       <defs>
        <path id="CMR17-38" d="M 1741 2289 
C 2144 2494 2554 2803 2554 3298 
C 2554 3884 1990 4224 1472 4224 
C 890 4224 378 3800 378 3215 
C 378 3054 416 2777 666 2533 
C 730 2469 998 2276 1171 2154 
C 883 2006 211 1652 211 945 
C 211 282 838 -128 1459 -128 
C 2144 -128 2720 366 2720 1022 
C 2720 1607 2330 1877 2074 2051 
L 1741 2289 
z
M 902 2855 
C 851 2887 595 3086 595 3388 
C 595 3781 998 4076 1459 4076 
C 1965 4076 2336 3716 2336 3298 
C 2336 2700 1670 2359 1638 2359 
C 1632 2359 1626 2359 1574 2398 
L 902 2855 
z
M 2080 1536 
C 2176 1466 2483 1253 2483 861 
C 2483 385 2010 25 1472 25 
C 890 25 448 443 448 951 
C 448 1459 838 1884 1280 2083 
L 2080 1536 
z
" transform="scale(0.015625)"/>
       </defs>
       <use xlink:href="#CMR17-30" transform="scale(0.996264)"/>
       <use xlink:href="#CMMI12-3a" transform="translate(45.690477 0) scale(0.996264)"/>
       <use xlink:href="#CMR17-30" transform="translate(72.787654 0) scale(0.996264)"/>
       <use xlink:href="#CMR17-30" transform="translate(118.478131 0) scale(0.996264)"/>
       <use xlink:href="#CMR17-38" transform="translate(164.168608 0) scale(0.996264)"/>
      </g>
     </g>
    </g>
    <g id="xtick_5">
     <g id="line2d_9">
      <path d="M 206.931318 108.117548 
L 206.931318 25.10218 
" clip-path="url(#p96fa68add7)" style="fill: none; stroke-dasharray: 3.7,1.6; stroke-dashoffset: 0; stroke: #ffffff"/>
     </g>
     <g id="line2d_10">
      <g>
       <use xlink:href="#m166610a887" x="206.931318" y="108.117548" style="stroke: #000000; stroke-width: 0.8"/>
      </g>
     </g>
     <g id="text_5">
      <!-- $\mathdefault{0.010}$ -->
      <g transform="translate(195.584943 122.036046) scale(0.1 -0.1)">
       <defs>
        <path id="CMR17-31" d="M 1702 4083 
C 1702 4217 1696 4224 1606 4224 
C 1357 3927 979 3833 621 3820 
C 602 3820 570 3820 563 3808 
C 557 3795 557 3782 557 3648 
C 755 3648 1088 3686 1344 3839 
L 1344 467 
C 1344 243 1331 166 781 166 
L 589 166 
L 589 0 
C 896 6 1216 12 1523 12 
C 1830 12 2150 6 2458 0 
L 2458 166 
L 2266 166 
C 1715 166 1702 236 1702 467 
L 1702 4083 
z
" transform="scale(0.015625)"/>
       </defs>
       <use xlink:href="#CMR17-30" transform="scale(0.996264)"/>
       <use xlink:href="#CMMI12-3a" transform="translate(45.690477 0) scale(0.996264)"/>
       <use xlink:href="#CMR17-30" transform="translate(72.787654 0) scale(0.996264)"/>
       <use xlink:href="#CMR17-31" transform="translate(118.478131 0) scale(0.996264)"/>
       <use xlink:href="#CMR17-30" transform="translate(164.168608 0) scale(0.996264)"/>
      </g>
     </g>
    </g>
    <g id="text_6">
     <!-- $\delta$ -->
     <g transform="translate(120.338406 136.275404) scale(0.12 -0.12)">
      <defs>
       <path id="CMMI12-e" d="M 1664 2795 
C 845 2597 256 1748 256 1001 
C 256 319 717 -64 1229 -64 
C 1984 -64 2496 970 2496 1818 
C 2496 2393 2227 2743 2067 2954 
C 1830 3254 1446 3745 1446 4052 
C 1446 4160 1530 4352 1811 4352 
C 2010 4352 2131 4281 2323 4173 
C 2381 4134 2528 4052 2611 4052 
C 2746 4052 2842 4186 2842 4288 
C 2842 4409 2746 4428 2522 4480 
C 2221 4544 2131 4544 2022 4544 
C 1914 4544 1286 4544 1286 3892 
C 1286 3579 1446 3216 1664 2795 
z
M 1734 2673 
C 1978 2169 2074 1978 2074 1563 
C 2074 1065 1805 64 1235 64 
C 986 64 627 229 627 823 
C 627 1238 864 2444 1734 2673 
z
" transform="scale(0.015625)"/>
      </defs>
      <use xlink:href="#CMMI12-e" transform="scale(0.996264)"/>
     </g>
    </g>
   </g>
   <g id="matplotlib.axis_2">
    <g id="ytick_1">
     <g id="line2d_11">
      <path d="M 30.530079 98.260717 
L 215.331377 98.260717 
" clip-path="url(#p96fa68add7)" style="fill: none; stroke-dasharray: 3.7,1.6; stroke-dashoffset: 0; stroke: #ffffff"/>
     </g>
     <g id="line2d_12">
      <defs>
       <path id="m9d60cc228e" d="M 0 0 
L -3.5 0 
" style="stroke: #000000; stroke-width: 0.8"/>
      </defs>
      <g>
       <use xlink:href="#m9d60cc228e" x="30.530079" y="98.260717" style="stroke: #000000; stroke-width: 0.8"/>
      </g>
     </g>
     <g id="text_7">
      <!-- $\mathdefault{5.5}$ -->
      <g transform="translate(10.8 101.719966) scale(0.1 -0.1)">
       <defs>
        <path id="CMR17-35" d="M 730 3750 
C 794 3724 1056 3641 1325 3641 
C 1920 3641 2246 3961 2432 4140 
C 2432 4191 2432 4224 2394 4224 
C 2387 4224 2374 4224 2323 4198 
C 2099 4102 1837 4032 1517 4032 
C 1325 4032 1037 4055 723 4191 
C 653 4224 640 4224 634 4224 
C 602 4224 595 4217 595 4090 
L 595 2231 
C 595 2113 595 2080 659 2080 
C 691 2080 704 2093 736 2139 
C 941 2435 1222 2560 1542 2560 
C 1766 2560 2246 2415 2246 1293 
C 2246 1087 2246 716 2054 422 
C 1894 159 1645 25 1370 25 
C 947 25 518 319 403 812 
C 429 806 480 793 506 793 
C 589 793 749 838 749 1036 
C 749 1209 627 1280 506 1280 
C 358 1280 262 1190 262 1011 
C 262 454 704 -128 1382 -128 
C 2042 -128 2669 441 2669 1267 
C 2669 2054 2170 2662 1549 2662 
C 1222 2662 947 2540 730 2304 
L 730 3750 
z
" transform="scale(0.015625)"/>
       </defs>
       <use xlink:href="#CMR17-35" transform="scale(0.996264)"/>
       <use xlink:href="#CMMI12-3a" transform="translate(45.690477 0) scale(0.996264)"/>
       <use xlink:href="#CMR17-35" transform="translate(72.787654 0) scale(0.996264)"/>
      </g>
     </g>
    </g>
    <g id="ytick_2">
     <g id="line2d_13">
      <path d="M 30.530079 69.023585 
L 215.331377 69.023585 
" clip-path="url(#p96fa68add7)" style="fill: none; stroke-dasharray: 3.7,1.6; stroke-dashoffset: 0; stroke: #ffffff"/>
     </g>
     <g id="line2d_14">
      <g>
       <use xlink:href="#m9d60cc228e" x="30.530079" y="69.023585" style="stroke: #000000; stroke-width: 0.8"/>
      </g>
     </g>
     <g id="text_8">
      <!-- $\mathdefault{6.0}$ -->
      <g transform="translate(10.8 72.482834) scale(0.1 -0.1)">
       <use xlink:href="#CMR17-36" transform="scale(0.996264)"/>
       <use xlink:href="#CMMI12-3a" transform="translate(45.690477 0) scale(0.996264)"/>
       <use xlink:href="#CMR17-30" transform="translate(72.787654 0) scale(0.996264)"/>
      </g>
     </g>
    </g>
    <g id="ytick_3">
     <g id="line2d_15">
      <path d="M 30.530079 39.786452 
L 215.331377 39.786452 
" clip-path="url(#p96fa68add7)" style="fill: none; stroke-dasharray: 3.7,1.6; stroke-dashoffset: 0; stroke: #ffffff"/>
     </g>
     <g id="line2d_16">
      <g>
       <use xlink:href="#m9d60cc228e" x="30.530079" y="39.786452" style="stroke: #000000; stroke-width: 0.8"/>
      </g>
     </g>
     <g id="text_9">
      <!-- $\mathdefault{6.5}$ -->
      <g transform="translate(10.8 43.245701) scale(0.1 -0.1)">
       <use xlink:href="#CMR17-36" transform="scale(0.996264)"/>
       <use xlink:href="#CMMI12-3a" transform="translate(45.690477 0) scale(0.996264)"/>
       <use xlink:href="#CMR17-35" transform="translate(72.787654 0) scale(0.996264)"/>
      </g>
     </g>
    </g>
   </g>
   <g id="line2d_17">
    <path d="M 38.930138 103.700041 
L 57.596936 96.84327 
L 76.263734 89.386575 
L 94.930531 82.336707 
L 113.597329 75.233237 
L 132.264127 67.656409 
L 150.930925 59.402563 
L 169.597722 52.380927 
L 188.26452 44.707008 
L 206.931318 37.531399 
" clip-path="url(#p96fa68add7)" style="fill: none; stroke: #1f77b4; stroke-width: 2.5; stroke-linecap: square"/>
   </g>
   <g id="line2d_18">
    <path d="M 38.930138 104.344122 
L 57.596936 98.72473 
L 76.263734 91.638647 
L 94.930531 84.634252 
L 113.597329 78.400295 
L 132.264127 72.331784 
L 150.930925 65.815436 
L 169.597722 60.141132 
L 188.26452 53.165686 
L 206.931318 47.364558 
" clip-path="url(#p96fa68add7)"
          style="fill: none; stroke-dasharray: 1.5,2.475; stroke-dashoffset: 0; stroke: #175987; stroke-width: 1.5"/>
   </g>
   <g id="line2d_19">
    <path d="M 38.930138 102.927887 
L 57.596936 95.816259 
L 76.263734 87.532047 
L 94.930531 79.017597 
L 113.597329 70.811377 
L 132.264127 63.800471 
L 150.930925 54.213523 
L 169.597722 44.935886 
L 188.26452 37.092792 
L 206.931318 28.875606 
" clip-path="url(#p96fa68add7)"
          style="fill: none; stroke-dasharray: 1.5,2.475; stroke-dashoffset: 0; stroke: #175987; stroke-width: 1.5"/>
   </g>
   <g id="line2d_20">
    <path d="M 38.930138 104.07725 
L 57.596936 97.512989 
L 76.263734 90.639914 
L 94.930531 83.689165 
L 113.597329 77.392043 
L 132.264127 70.070607 
L 150.930925 61.993892 
L 169.597722 57.058729 
L 188.26452 48.743496 
L 206.931318 42.263607 
" clip-path="url(#p96fa68add7)"
          style="fill: none; stroke-dasharray: 5.55,2.4; stroke-dashoffset: 0; stroke: #175987; stroke-width: 1.5"/>
   </g>
   <g id="line2d_21">
    <path d="M 38.930138 103.322832 
L 57.596936 96.173552 
L 76.263734 88.133236 
L 94.930531 80.984248 
L 113.597329 73.074431 
L 132.264127 65.242211 
L 150.930925 56.811234 
L 169.597722 47.703125 
L 188.26452 40.670519 
L 206.931318 32.799191 
" clip-path="url(#p96fa68add7)"
          style="fill: none; stroke-dasharray: 5.55,2.4; stroke-dashoffset: 0; stroke: #175987; stroke-width: 1.5"/>
   </g>
   <g id="patch_3">
    <path d="M 30.530079 108.117548 
L 30.530079 25.10218 
" style="fill: none; stroke: #000000; stroke-width: 0.8; stroke-linejoin: miter; stroke-linecap: square"/>
   </g>
   <g id="patch_4">
    <path d="M 215.331377 108.117548 
L 215.331377 25.10218 
" style="fill: none; stroke: #000000; stroke-width: 0.8; stroke-linejoin: miter; stroke-linecap: square"/>
   </g>
   <g id="patch_5">
    <path d="M 30.530079 108.117548 
L 215.331377 108.117548 
" style="fill: none; stroke: #000000; stroke-width: 0.8; stroke-linejoin: miter; stroke-linecap: square"/>
   </g>
   <g id="patch_6">
    <path d="M 30.530079 25.10218 
L 215.331377 25.10218 
" style="fill: none; stroke: #000000; stroke-width: 0.8; stroke-linejoin: miter; stroke-linecap: square"/>
   </g>
   <g id="text_10">
    <!-- $N = 7$ -->
    <g transform="translate(106.819773 19.10218) scale(0.12 -0.12)">
     <defs>
      <path id="CMMI12-4e" d="M 4736 3682 
C 4806 3956 4909 4147 5395 4166 
C 5414 4166 5491 4172 5491 4281 
C 5491 4352 5434 4352 5408 4352 
C 5280 4352 4954 4339 4826 4339 
L 4518 4339 
C 4429 4339 4314 4352 4224 4352 
C 4186 4352 4109 4352 4109 4230 
C 4109 4166 4160 4166 4205 4166 
C 4589 4153 4614 4007 4614 3892 
C 4614 3835 4608 3816 4589 3726 
L 3866 854 
L 2496 4243 
C 2451 4345 2445 4352 2304 4352 
L 1523 4352 
C 1395 4352 1338 4352 1338 4230 
C 1338 4166 1382 4166 1504 4166 
C 1536 4166 1914 4166 1914 4109 
C 1914 4096 1901 4045 1894 4026 
L 1043 650 
C 966 338 813 204 390 185 
C 358 185 294 179 294 64 
C 294 0 358 0 378 0 
C 506 0 832 12 960 12 
L 1267 12 
C 1357 12 1466 0 1555 0 
C 1600 0 1670 0 1670 121 
C 1670 179 1606 185 1581 185 
C 1370 191 1165 230 1165 459 
C 1165 510 1178 567 1190 618 
L 2054 4026 
C 2093 3962 2093 3949 2118 3892 
L 3642 115 
C 3674 38 3686 0 3744 0 
C 3808 0 3814 19 3840 128 
L 4736 3682 
z
" transform="scale(0.015625)"/>
      <path id="CMR17-3d" d="M 4115 2048 
C 4211 2048 4307 2048 4307 2156 
C 4307 2272 4198 2272 4090 2272 
L 512 2272 
C 403 2272 294 2272 294 2156 
C 294 2048 390 2048 486 2048 
L 4115 2048 
z
M 4090 927 
C 4198 927 4307 927 4307 1043 
C 4307 1152 4211 1152 4115 1152 
L 486 1152 
C 390 1152 294 1152 294 1043 
C 294 927 403 927 512 927 
L 4090 927 
z
" transform="scale(0.015625)"/>
      <path id="CMR17-37" d="M 2886 3955 
L 2886 4096 
L 1382 4096 
C 634 4096 621 4166 595 4288 
L 480 4288 
L 294 3104 
L 410 3104 
C 429 3226 474 3552 550 3673 
C 589 3724 1062 3724 1171 3724 
L 2579 3724 
L 1869 2670 
C 1395 1961 1069 1003 1069 166 
C 1069 89 1069 -128 1299 -128 
C 1530 -128 1530 89 1530 172 
L 1530 466 
C 1530 1514 1709 2204 2003 2644 
L 2886 3955 
z
" transform="scale(0.015625)"/>
     </defs>
     <use xlink:href="#CMMI12-4e" transform="scale(0.996264)"/>
     <use xlink:href="#CMR17-3d" transform="translate(116.195781 0) scale(0.996264)"/>
     <use xlink:href="#CMR17-37" transform="translate(215.584578 0) scale(0.996264)"/>
    </g>
   </g>
   <g id="legend_1">
    <g id="patch_7">
     <path d="M 38.930079 51.426776 
L 91.497091 51.426776 
Q 93.897091 51.426776 93.897091 49.026776 
L 93.897091 33.50218 
Q 93.897091 31.10218 91.497091 31.10218 
L 38.930079 31.10218 
Q 36.530079 31.10218 36.530079 33.50218 
L 36.530079 49.026776 
Q 36.530079 51.426776 38.930079 51.426776 
z
" style="fill: #ffffff; opacity: 0.8; stroke: #cccccc; stroke-linejoin: miter"/>
    </g>
    <g id="line2d_22">
     <path d="M 41.330079 40.10218 
L 53.330079 40.10218 
L 65.330079 40.10218 
" style="fill: none; stroke: #1f77b4; stroke-width: 2.5; stroke-linecap: square"/>
    </g>
    <g id="text_11">
     <!-- $\alpha_N$ -->
     <g transform="translate(74.930079 44.30218) scale(0.12 -0.12)">
      <defs>
       <path id="CMMI12-b" d="M 2963 1615 
C 2963 2234 2611 2816 1933 2816 
C 1094 2816 256 1902 256 996 
C 256 440 602 -64 1254 -64 
C 1651 -64 2125 89 2579 472 
C 2669 115 2867 -64 3142 -64 
C 3488 -64 3661 293 3661 376 
C 3661 434 3616 434 3597 434 
C 3546 434 3539 415 3520 364 
C 3462 204 3315 64 3162 64 
C 2963 64 2963 472 2963 862 
C 3616 1641 3770 2445 3770 2451 
C 3770 2509 3718 2509 3699 2509 
C 3642 2509 3635 2490 3610 2375 
C 3526 2094 3360 1596 2963 1072 
L 2963 1615 
z
M 2560 625 
C 1997 121 1491 64 1267 64 
C 813 64 685 466 685 766 
C 685 1040 826 1692 1024 2043 
C 1286 2490 1645 2687 1933 2687 
C 2554 2687 2554 1877 2554 1340 
C 2554 1181 2547 1015 2547 855 
C 2547 728 2554 696 2560 625 
z
" transform="scale(0.015625)"/>
      </defs>
      <use xlink:href="#CMMI12-b" transform="scale(0.996264)"/>
      <use xlink:href="#CMMI12-4e" transform="translate(62.046728 -14.943915) scale(0.697382)"/>
     </g>
    </g>
   </g>
  </g>
  <g id="axes_2">
   <g id="patch_8">
    <path d="M 266.507793 108.117548 
L 451.309091 108.117548 
L 451.309091 25.10218 
L 266.507793 25.10218 
z
" style="fill: #f2f2f2"/>
   </g>
   <g id="PolyCollection_3">
    <defs>
     <path id="m09b6a758ca" d="M 274.907852 -184.613115 
L 274.907852 -183.905615 
L 293.57465 -190.025317 
L 312.241448 -196.52218 
L 330.908246 -203.180686 
L 349.575044 -209.277998 
L 368.241841 -216.484442 
L 386.908639 -224.554706 
L 405.575437 -229.485354 
L 424.242235 -237.997426 
L 442.909032 -244.685181 
L 442.909032 -254.845023 
L 442.909032 -254.845023 
L 424.242235 -246.560873 
L 405.575437 -239.264021 
L 386.908639 -229.894667 
L 368.241841 -221.372145 
L 349.575044 -213.593886 
L 330.908246 -205.841712 
L 312.241448 -198.948455 
L 293.57465 -191.300057 
L 274.907852 -184.613115 
z
" style="stroke: #804007; stroke-opacity: 0.25"/>
    </defs>
    <g clip-path="url(#p1a7cd5cf45)">
     <use xlink:href="#m09b6a758ca" x="0" y="288"
          style="fill: #804007; fill-opacity: 0.25; stroke: #804007; stroke-opacity: 0.25"/>
    </g>
   </g>
   <g id="PolyCollection_4">
    <defs>
     <path id="maf71f86b52" d="M 274.907852 -184.983903 
L 274.907852 -183.655878 
L 293.57465 -188.874983 
L 312.241448 -195.558712 
L 330.908246 -202.254275 
L 349.575044 -208.282342 
L 368.241841 -214.207866 
L 386.908639 -220.653723 
L 405.575437 -226.31708 
L 424.242235 -233.377899 
L 442.909032 -239.288636 
L 442.909032 -259.124394 
L 442.909032 -259.124394 
L 424.242235 -250.399147 
L 405.575437 -242.199198 
L 386.908639 -232.602097 
L 368.241841 -222.845772 
L 349.575044 -215.870712 
L 330.908246 -207.785738 
L 312.241448 -199.533431 
L 293.57465 -191.641678 
L 274.907852 -184.983903 
z
" style="stroke: #402004; stroke-opacity: 0.125"/>
    </defs>
    <g clip-path="url(#p1a7cd5cf45)">
     <use xlink:href="#maf71f86b52" x="0" y="288"
          style="fill: #402004; fill-opacity: 0.125; stroke: #402004; stroke-opacity: 0.125"/>
    </g>
   </g>
   <g id="matplotlib.axis_3">
    <g id="xtick_6">
     <g id="line2d_23">
      <path d="M 293.57465 108.117548 
L 293.57465 25.10218 
" clip-path="url(#p1a7cd5cf45)" style="fill: none; stroke-dasharray: 3.7,1.6; stroke-dashoffset: 0; stroke: #ffffff"/>
     </g>
     <g id="line2d_24">
      <g>
       <use xlink:href="#m166610a887" x="293.57465" y="108.117548" style="stroke: #000000; stroke-width: 0.8"/>
      </g>
     </g>
     <g id="text_12">
      <!-- $\mathdefault{0.002}$ -->
      <g transform="translate(282.228275 122.036046) scale(0.1 -0.1)">
       <use xlink:href="#CMR17-30" transform="scale(0.996264)"/>
       <use xlink:href="#CMMI12-3a" transform="translate(45.690477 0) scale(0.996264)"/>
       <use xlink:href="#CMR17-30" transform="translate(72.787654 0) scale(0.996264)"/>
       <use xlink:href="#CMR17-30" transform="translate(118.478131 0) scale(0.996264)"/>
       <use xlink:href="#CMR17-32" transform="translate(164.168608 0) scale(0.996264)"/>
      </g>
     </g>
    </g>
    <g id="xtick_7">
     <g id="line2d_25">
      <path d="M 330.908246 108.117548 
L 330.908246 25.10218 
" clip-path="url(#p1a7cd5cf45)" style="fill: none; stroke-dasharray: 3.7,1.6; stroke-dashoffset: 0; stroke: #ffffff"/>
     </g>
     <g id="line2d_26">
      <g>
       <use xlink:href="#m166610a887" x="330.908246" y="108.117548" style="stroke: #000000; stroke-width: 0.8"/>
      </g>
     </g>
     <g id="text_13">
      <!-- $\mathdefault{0.004}$ -->
      <g transform="translate(319.561871 122.036046) scale(0.1 -0.1)">
       <use xlink:href="#CMR17-30" transform="scale(0.996264)"/>
       <use xlink:href="#CMMI12-3a" transform="translate(45.690477 0) scale(0.996264)"/>
       <use xlink:href="#CMR17-30" transform="translate(72.787654 0) scale(0.996264)"/>
       <use xlink:href="#CMR17-30" transform="translate(118.478131 0) scale(0.996264)"/>
       <use xlink:href="#CMR17-34" transform="translate(164.168608 0) scale(0.996264)"/>
      </g>
     </g>
    </g>
    <g id="xtick_8">
     <g id="line2d_27">
      <path d="M 368.241841 108.117548 
L 368.241841 25.10218 
" clip-path="url(#p1a7cd5cf45)" style="fill: none; stroke-dasharray: 3.7,1.6; stroke-dashoffset: 0; stroke: #ffffff"/>
     </g>
     <g id="line2d_28">
      <g>
       <use xlink:href="#m166610a887" x="368.241841" y="108.117548" style="stroke: #000000; stroke-width: 0.8"/>
      </g>
     </g>
     <g id="text_14">
      <!-- $\mathdefault{0.006}$ -->
      <g transform="translate(356.895467 122.036046) scale(0.1 -0.1)">
       <use xlink:href="#CMR17-30" transform="scale(0.996264)"/>
       <use xlink:href="#CMMI12-3a" transform="translate(45.690477 0) scale(0.996264)"/>
       <use xlink:href="#CMR17-30" transform="translate(72.787654 0) scale(0.996264)"/>
       <use xlink:href="#CMR17-30" transform="translate(118.478131 0) scale(0.996264)"/>
       <use xlink:href="#CMR17-36" transform="translate(164.168608 0) scale(0.996264)"/>
      </g>
     </g>
    </g>
    <g id="xtick_9">
     <g id="line2d_29">
      <path d="M 405.575437 108.117548 
L 405.575437 25.10218 
" clip-path="url(#p1a7cd5cf45)" style="fill: none; stroke-dasharray: 3.7,1.6; stroke-dashoffset: 0; stroke: #ffffff"/>
     </g>
     <g id="line2d_30">
      <g>
       <use xlink:href="#m166610a887" x="405.575437" y="108.117548" style="stroke: #000000; stroke-width: 0.8"/>
      </g>
     </g>
     <g id="text_15">
      <!-- $\mathdefault{0.008}$ -->
      <g transform="translate(394.229062 122.036046) scale(0.1 -0.1)">
       <use xlink:href="#CMR17-30" transform="scale(0.996264)"/>
       <use xlink:href="#CMMI12-3a" transform="translate(45.690477 0) scale(0.996264)"/>
       <use xlink:href="#CMR17-30" transform="translate(72.787654 0) scale(0.996264)"/>
       <use xlink:href="#CMR17-30" transform="translate(118.478131 0) scale(0.996264)"/>
       <use xlink:href="#CMR17-38" transform="translate(164.168608 0) scale(0.996264)"/>
      </g>
     </g>
    </g>
    <g id="xtick_10">
     <g id="line2d_31">
      <path d="M 442.909032 108.117548 
L 442.909032 25.10218 
" clip-path="url(#p1a7cd5cf45)" style="fill: none; stroke-dasharray: 3.7,1.6; stroke-dashoffset: 0; stroke: #ffffff"/>
     </g>
     <g id="line2d_32">
      <g>
       <use xlink:href="#m166610a887" x="442.909032" y="108.117548" style="stroke: #000000; stroke-width: 0.8"/>
      </g>
     </g>
     <g id="text_16">
      <!-- $\mathdefault{0.010}$ -->
      <g transform="translate(431.562658 122.036046) scale(0.1 -0.1)">
       <use xlink:href="#CMR17-30" transform="scale(0.996264)"/>
       <use xlink:href="#CMMI12-3a" transform="translate(45.690477 0) scale(0.996264)"/>
       <use xlink:href="#CMR17-30" transform="translate(72.787654 0) scale(0.996264)"/>
       <use xlink:href="#CMR17-31" transform="translate(118.478131 0) scale(0.996264)"/>
       <use xlink:href="#CMR17-30" transform="translate(164.168608 0) scale(0.996264)"/>
      </g>
     </g>
    </g>
    <g id="text_17">
     <!-- $\delta$ -->
     <g transform="translate(356.31612 136.275404) scale(0.12 -0.12)">
      <use xlink:href="#CMMI12-e" transform="scale(0.996264)"/>
     </g>
    </g>
   </g>
   <g id="matplotlib.axis_4">
    <g id="ytick_4">
     <g id="line2d_33">
      <path d="M 266.507793 98.697287 
L 451.309091 98.697287 
" clip-path="url(#p1a7cd5cf45)" style="fill: none; stroke-dasharray: 3.7,1.6; stroke-dashoffset: 0; stroke: #ffffff"/>
     </g>
     <g id="line2d_34">
      <g>
       <use xlink:href="#m9d60cc228e" x="266.507793" y="98.697287" style="stroke: #000000; stroke-width: 0.8"/>
      </g>
     </g>
     <g id="text_18">
      <!-- $\mathdefault{100}$ -->
      <g transform="translate(244.563788 102.156536) scale(0.1 -0.1)">
       <use xlink:href="#CMR17-31" transform="scale(0.996264)"/>
       <use xlink:href="#CMR17-30" transform="translate(45.690477 0) scale(0.996264)"/>
       <use xlink:href="#CMR17-30" transform="translate(91.380954 0) scale(0.996264)"/>
      </g>
     </g>
    </g>
    <g id="ytick_5">
     <g id="line2d_35">
      <path d="M 266.507793 65.152652 
L 451.309091 65.152652 
" clip-path="url(#p1a7cd5cf45)" style="fill: none; stroke-dasharray: 3.7,1.6; stroke-dashoffset: 0; stroke: #ffffff"/>
     </g>
     <g id="line2d_36">
      <g>
       <use xlink:href="#m9d60cc228e" x="266.507793" y="65.152652" style="stroke: #000000; stroke-width: 0.8"/>
      </g>
     </g>
     <g id="text_19">
      <!-- $\mathdefault{120}$ -->
      <g transform="translate(244.563788 68.611901) scale(0.1 -0.1)">
       <use xlink:href="#CMR17-31" transform="scale(0.996264)"/>
       <use xlink:href="#CMR17-32" transform="translate(45.690477 0) scale(0.996264)"/>
       <use xlink:href="#CMR17-30" transform="translate(91.380954 0) scale(0.996264)"/>
      </g>
     </g>
    </g>
    <g id="ytick_6">
     <g id="line2d_37">
      <path d="M 266.507793 31.608017 
L 451.309091 31.608017 
" clip-path="url(#p1a7cd5cf45)" style="fill: none; stroke-dasharray: 3.7,1.6; stroke-dashoffset: 0; stroke: #ffffff"/>
     </g>
     <g id="line2d_38">
      <g>
       <use xlink:href="#m9d60cc228e" x="266.507793" y="31.608017" style="stroke: #000000; stroke-width: 0.8"/>
      </g>
     </g>
     <g id="text_20">
      <!-- $\mathdefault{140}$ -->
      <g transform="translate(244.563788 35.067266) scale(0.1 -0.1)">
       <use xlink:href="#CMR17-31" transform="scale(0.996264)"/>
       <use xlink:href="#CMR17-34" transform="translate(45.690477 0) scale(0.996264)"/>
       <use xlink:href="#CMR17-30" transform="translate(91.380954 0) scale(0.996264)"/>
      </g>
     </g>
    </g>
   </g>
   <g id="line2d_39">
    <path d="M 274.907852 103.740635 
L 293.57465 97.337313 
L 312.241448 90.264682 
L 330.908246 83.488801 
L 349.575044 76.564058 
L 368.241841 69.071707 
L 386.908639 60.775314 
L 405.575437 53.625312 
L 424.242235 45.72085 
L 442.909032 38.234898 
" clip-path="url(#p1a7cd5cf45)" style="fill: none; stroke: #ff7f0e; stroke-width: 2.5; stroke-linecap: square"/>
   </g>
   <g id="line2d_40">
    <path d="M 274.907852 104.344122 
L 293.57465 99.125017 
L 312.241448 92.441288 
L 330.908246 85.745725 
L 349.575044 79.717658 
L 368.241841 73.792134 
L 386.908639 67.346277 
L 405.575437 61.68292 
L 424.242235 54.622101 
L 442.909032 48.711364 
" clip-path="url(#p1a7cd5cf45)"
          style="fill: none; stroke-dasharray: 1.5,2.475; stroke-dashoffset: 0; stroke: #bf5f0a; stroke-width: 1.5"/>
   </g>
   <g id="line2d_41">
    <path d="M 274.907852 103.016097 
L 293.57465 96.358322 
L 312.241448 88.466569 
L 330.908246 80.214262 
L 349.575044 72.129288 
L 368.241841 65.154228 
L 386.908639 55.397903 
L 405.575437 45.800802 
L 424.242235 37.600853 
L 442.909032 28.875606 
" clip-path="url(#p1a7cd5cf45)"
          style="fill: none; stroke-dasharray: 1.5,2.475; stroke-dashoffset: 0; stroke: #bf5f0a; stroke-width: 1.5"/>
   </g>
   <g id="line2d_42">
    <path d="M 274.907852 104.094385 
L 293.57465 97.974683 
L 312.241448 91.47782 
L 330.908246 84.819314 
L 349.575044 78.722002 
L 368.241841 71.515558 
L 386.908639 63.445294 
L 405.575437 58.514646 
L 424.242235 50.002574 
L 442.909032 43.314819 
" clip-path="url(#p1a7cd5cf45)"
          style="fill: none; stroke-dasharray: 5.55,2.4; stroke-dashoffset: 0; stroke: #bf5f0a; stroke-width: 1.5"/>
   </g>
   <g id="line2d_43">
    <path d="M 274.907852 103.386885 
L 293.57465 96.699943 
L 312.241448 89.051545 
L 330.908246 82.158288 
L 349.575044 74.406114 
L 368.241841 66.627855 
L 386.908639 58.105333 
L 405.575437 48.735979 
L 424.242235 41.439127 
L 442.909032 33.154977 
" clip-path="url(#p1a7cd5cf45)"
          style="fill: none; stroke-dasharray: 5.55,2.4; stroke-dashoffset: 0; stroke: #bf5f0a; stroke-width: 1.5"/>
   </g>
   <g id="patch_9">
    <path d="M 266.507793 108.117548 
L 266.507793 25.10218 
" style="fill: none; stroke: #000000; stroke-width: 0.8; stroke-linejoin: miter; stroke-linecap: square"/>
   </g>
   <g id="patch_10">
    <path d="M 451.309091 108.117548 
L 451.309091 25.10218 
" style="fill: none; stroke: #000000; stroke-width: 0.8; stroke-linejoin: miter; stroke-linecap: square"/>
   </g>
   <g id="patch_11">
    <path d="M 266.507793 108.117548 
L 451.309091 108.117548 
" style="fill: none; stroke: #000000; stroke-width: 0.8; stroke-linejoin: miter; stroke-linecap: square"/>
   </g>
   <g id="patch_12">
    <path d="M 266.507793 25.10218 
L 451.309091 25.10218 
" style="fill: none; stroke: #000000; stroke-width: 0.8; stroke-linejoin: miter; stroke-linecap: square"/>
   </g>
   <g id="text_21">
    <!-- $N = 7$ -->
    <g transform="translate(342.797487 19.10218) scale(0.12 -0.12)">
     <use xlink:href="#CMMI12-4e" transform="scale(0.996264)"/>
     <use xlink:href="#CMR17-3d" transform="translate(116.195781 0) scale(0.996264)"/>
     <use xlink:href="#CMR17-37" transform="translate(215.584578 0) scale(0.996264)"/>
    </g>
   </g>
   <g id="legend_2">
    <g id="patch_13">
     <path d="M 274.907793 51.426776 
L 326.637689 51.426776 
Q 329.037689 51.426776 329.037689 49.026776 
L 329.037689 33.50218 
Q 329.037689 31.10218 326.637689 31.10218 
L 274.907793 31.10218 
Q 272.507793 31.10218 272.507793 33.50218 
L 272.507793 49.026776 
Q 272.507793 51.426776 274.907793 51.426776 
z
" style="fill: #ffffff; opacity: 0.8; stroke: #cccccc; stroke-linejoin: miter"/>
    </g>
    <g id="line2d_44">
     <path d="M 277.307793 40.10218 
L 289.307793 40.10218 
L 301.307793 40.10218 
" style="fill: none; stroke: #ff7f0e; stroke-width: 2.5; stroke-linecap: square"/>
    </g>
    <g id="text_22">
     <!-- $\beta_N$ -->
     <g transform="translate(310.907793 44.30218) scale(0.12 -0.12)">
      <defs>
       <path id="CMMI12-c" d="M 3622 3739 
C 3622 4131 3296 4544 2714 4544 
C 1888 4544 1363 3510 1197 2830 
L 186 -1152 
C 173 -1204 211 -1216 243 -1216 
C 288 -1216 320 -1210 326 -1178 
L 774 592 
C 838 231 1190 -64 1568 -64 
C 2483 -64 3347 657 3347 1618 
C 3347 1863 3290 2108 3155 2314 
C 3078 2437 2982 2527 2880 2599 
C 3341 2823 3622 3222 3622 3739 
z
M 2509 2605 
C 2406 2571 2304 2560 2182 2560 
C 2093 2560 2010 2553 1894 2588 
C 1958 2627 2054 2639 2189 2639 
C 2304 2639 2419 2627 2509 2605 
z
M 3290 3798 
C 3290 3438 3117 2915 2701 2684 
C 2579 2723 2413 2752 2272 2752 
C 2138 2752 1754 2765 1754 2582 
C 1754 2411 2106 2430 2214 2430 
C 2381 2430 2528 2469 2682 2514 
C 2886 2347 2976 2127 2976 1805 
C 2976 1431 2874 1128 2752 850 
C 2541 373 2042 64 1600 64 
C 1133 64 890 438 890 876 
C 890 934 890 1018 915 1115 
L 1331 2784 
C 1542 3641 2080 4413 2701 4413 
C 3162 4413 3290 4086 3290 3798 
z
" transform="scale(0.015625)"/>
      </defs>
      <use xlink:href="#CMMI12-c" transform="scale(0.996264)"/>
      <use xlink:href="#CMMI12-4e" transform="translate(55.070737 -14.943915) scale(0.697382)"/>
     </g>
    </g>
   </g>
  </g>
  <g id="axes_3">
   <g id="patch_14">
    <path d="M 30.530079 246.717548 
L 215.331377 246.717548 
L 215.331377 163.70218 
L 30.530079 163.70218 
z
" style="fill: #f2f2f2"/>
   </g>
   <g id="PolyCollection_5">
    <defs>
     <path id="m54101da0c0" d="M 38.930138 -45.115643 
L 38.930138 -45.076737 
L 57.596936 -52.663872 
L 76.263734 -60.356171 
L 94.930531 -68.105138 
L 113.597329 -75.801509 
L 132.264127 -83.689799 
L 150.930925 -91.915187 
L 169.597722 -99.333431 
L 188.26452 -107.386627 
L 206.931318 -115.237982 
L 206.931318 -119.24487 
L 206.931318 -119.24487 
L 188.26452 -110.160833 
L 169.597722 -102.310568 
L 150.930925 -93.452438 
L 132.264127 -84.993567 
L 113.597329 -76.578481 
L 94.930531 -68.621265 
L 76.263734 -60.677268 
L 57.596936 -52.815913 
L 38.930138 -45.115643 
z
" style="stroke: #165016; stroke-opacity: 0.25"/>
    </defs>
    <g clip-path="url(#pd19d39fd31)">
     <use xlink:href="#m54101da0c0" x="0" y="288"
          style="fill: #165016; fill-opacity: 0.25; stroke: #165016; stroke-opacity: 0.25"/>
    </g>
   </g>
   <g id="PolyCollection_6">
    <defs>
     <path id="md83ee41bbb" d="M 38.930138 -45.134926 
L 38.930138 -45.055878 
L 57.596936 -52.601904 
L 76.263734 -60.193559 
L 94.930531 -67.911617 
L 113.597329 -75.531957 
L 132.264127 -83.06171 
L 150.930925 -91.218912 
L 169.597722 -98.351678 
L 188.26452 -106.107615 
L 206.931318 -113.193867 
L 206.931318 -120.524394 
L 206.931318 -120.524394 
L 188.26452 -111.060736 
L 169.597722 -103.508571 
L 150.930925 -94.095794 
L 132.264127 -85.708065 
L 113.597329 -76.957028 
L 94.930531 -68.920595 
L 76.263734 -60.836362 
L 57.596936 -52.885394 
L 38.930138 -45.134926 
z
" style="stroke: #0b280b; stroke-opacity: 0.125"/>
    </defs>
    <g clip-path="url(#pd19d39fd31)">
     <use xlink:href="#md83ee41bbb" x="0" y="288"
          style="fill: #0b280b; fill-opacity: 0.125; stroke: #0b280b; stroke-opacity: 0.125"/>
    </g>
   </g>
   <g id="matplotlib.axis_5">
    <g id="xtick_11">
     <g id="line2d_45">
      <path d="M 57.596936 246.717548 
L 57.596936 163.70218 
" clip-path="url(#pd19d39fd31)" style="fill: none; stroke-dasharray: 3.7,1.6; stroke-dashoffset: 0; stroke: #ffffff"/>
     </g>
     <g id="line2d_46">
      <g>
       <use xlink:href="#m166610a887" x="57.596936" y="246.717548" style="stroke: #000000; stroke-width: 0.8"/>
      </g>
     </g>
     <g id="text_23">
      <!-- $\mathdefault{0.002}$ -->
      <g transform="translate(46.250561 260.636046) scale(0.1 -0.1)">
       <use xlink:href="#CMR17-30" transform="scale(0.996264)"/>
       <use xlink:href="#CMMI12-3a" transform="translate(45.690477 0) scale(0.996264)"/>
       <use xlink:href="#CMR17-30" transform="translate(72.787654 0) scale(0.996264)"/>
       <use xlink:href="#CMR17-30" transform="translate(118.478131 0) scale(0.996264)"/>
       <use xlink:href="#CMR17-32" transform="translate(164.168608 0) scale(0.996264)"/>
      </g>
     </g>
    </g>
    <g id="xtick_12">
     <g id="line2d_47">
      <path d="M 94.930531 246.717548 
L 94.930531 163.70218 
" clip-path="url(#pd19d39fd31)" style="fill: none; stroke-dasharray: 3.7,1.6; stroke-dashoffset: 0; stroke: #ffffff"/>
     </g>
     <g id="line2d_48">
      <g>
       <use xlink:href="#m166610a887" x="94.930531" y="246.717548" style="stroke: #000000; stroke-width: 0.8"/>
      </g>
     </g>
     <g id="text_24">
      <!-- $\mathdefault{0.004}$ -->
      <g transform="translate(83.584157 260.636046) scale(0.1 -0.1)">
       <use xlink:href="#CMR17-30" transform="scale(0.996264)"/>
       <use xlink:href="#CMMI12-3a" transform="translate(45.690477 0) scale(0.996264)"/>
       <use xlink:href="#CMR17-30" transform="translate(72.787654 0) scale(0.996264)"/>
       <use xlink:href="#CMR17-30" transform="translate(118.478131 0) scale(0.996264)"/>
       <use xlink:href="#CMR17-34" transform="translate(164.168608 0) scale(0.996264)"/>
      </g>
     </g>
    </g>
    <g id="xtick_13">
     <g id="line2d_49">
      <path d="M 132.264127 246.717548 
L 132.264127 163.70218 
" clip-path="url(#pd19d39fd31)" style="fill: none; stroke-dasharray: 3.7,1.6; stroke-dashoffset: 0; stroke: #ffffff"/>
     </g>
     <g id="line2d_50">
      <g>
       <use xlink:href="#m166610a887" x="132.264127" y="246.717548" style="stroke: #000000; stroke-width: 0.8"/>
      </g>
     </g>
     <g id="text_25">
      <!-- $\mathdefault{0.006}$ -->
      <g transform="translate(120.917752 260.636046) scale(0.1 -0.1)">
       <use xlink:href="#CMR17-30" transform="scale(0.996264)"/>
       <use xlink:href="#CMMI12-3a" transform="translate(45.690477 0) scale(0.996264)"/>
       <use xlink:href="#CMR17-30" transform="translate(72.787654 0) scale(0.996264)"/>
       <use xlink:href="#CMR17-30" transform="translate(118.478131 0) scale(0.996264)"/>
       <use xlink:href="#CMR17-36" transform="translate(164.168608 0) scale(0.996264)"/>
      </g>
     </g>
    </g>
    <g id="xtick_14">
     <g id="line2d_51">
      <path d="M 169.597722 246.717548 
L 169.597722 163.70218 
" clip-path="url(#pd19d39fd31)" style="fill: none; stroke-dasharray: 3.7,1.6; stroke-dashoffset: 0; stroke: #ffffff"/>
     </g>
     <g id="line2d_52">
      <g>
       <use xlink:href="#m166610a887" x="169.597722" y="246.717548" style="stroke: #000000; stroke-width: 0.8"/>
      </g>
     </g>
     <g id="text_26">
      <!-- $\mathdefault{0.008}$ -->
      <g transform="translate(158.251348 260.636046) scale(0.1 -0.1)">
       <use xlink:href="#CMR17-30" transform="scale(0.996264)"/>
       <use xlink:href="#CMMI12-3a" transform="translate(45.690477 0) scale(0.996264)"/>
       <use xlink:href="#CMR17-30" transform="translate(72.787654 0) scale(0.996264)"/>
       <use xlink:href="#CMR17-30" transform="translate(118.478131 0) scale(0.996264)"/>
       <use xlink:href="#CMR17-38" transform="translate(164.168608 0) scale(0.996264)"/>
      </g>
     </g>
    </g>
    <g id="xtick_15">
     <g id="line2d_53">
      <path d="M 206.931318 246.717548 
L 206.931318 163.70218 
" clip-path="url(#pd19d39fd31)" style="fill: none; stroke-dasharray: 3.7,1.6; stroke-dashoffset: 0; stroke: #ffffff"/>
     </g>
     <g id="line2d_54">
      <g>
       <use xlink:href="#m166610a887" x="206.931318" y="246.717548" style="stroke: #000000; stroke-width: 0.8"/>
      </g>
     </g>
     <g id="text_27">
      <!-- $\mathdefault{0.010}$ -->
      <g transform="translate(195.584943 260.636046) scale(0.1 -0.1)">
       <use xlink:href="#CMR17-30" transform="scale(0.996264)"/>
       <use xlink:href="#CMMI12-3a" transform="translate(45.690477 0) scale(0.996264)"/>
       <use xlink:href="#CMR17-30" transform="translate(72.787654 0) scale(0.996264)"/>
       <use xlink:href="#CMR17-31" transform="translate(118.478131 0) scale(0.996264)"/>
       <use xlink:href="#CMR17-30" transform="translate(164.168608 0) scale(0.996264)"/>
      </g>
     </g>
    </g>
    <g id="text_28">
     <!-- $\delta$ -->
     <g transform="translate(120.338406 274.875404) scale(0.12 -0.12)">
      <use xlink:href="#CMMI12-e" transform="scale(0.996264)"/>
     </g>
    </g>
   </g>
   <g id="matplotlib.axis_6">
    <g id="ytick_7">
     <g id="line2d_55">
      <path d="M 30.530079 214.403449 
L 215.331377 214.403449 
" clip-path="url(#pd19d39fd31)" style="fill: none; stroke-dasharray: 3.7,1.6; stroke-dashoffset: 0; stroke: #ffffff"/>
     </g>
     <g id="line2d_56">
      <g>
       <use xlink:href="#m9d60cc228e" x="30.530079" y="214.403449" style="stroke: #000000; stroke-width: 0.8"/>
      </g>
     </g>
     <g id="text_29">
      <!-- $\mathdefault{0.2}$ -->
      <g transform="translate(10.8 217.862698) scale(0.1 -0.1)">
       <use xlink:href="#CMR17-30" transform="scale(0.996264)"/>
       <use xlink:href="#CMMI12-3a" transform="translate(45.690477 0) scale(0.996264)"/>
       <use xlink:href="#CMR17-32" transform="translate(72.787654 0) scale(0.996264)"/>
      </g>
     </g>
    </g>
    <g id="ytick_8">
     <g id="line2d_57">
      <path d="M 30.530079 178.325318 
L 215.331377 178.325318 
" clip-path="url(#pd19d39fd31)" style="fill: none; stroke-dasharray: 3.7,1.6; stroke-dashoffset: 0; stroke: #ffffff"/>
     </g>
     <g id="line2d_58">
      <g>
       <use xlink:href="#m9d60cc228e" x="30.530079" y="178.325318" style="stroke: #000000; stroke-width: 0.8"/>
      </g>
     </g>
     <g id="text_30">
      <!-- $\mathdefault{0.4}$ -->
      <g transform="translate(10.8 181.784567) scale(0.1 -0.1)">
       <use xlink:href="#CMR17-30" transform="scale(0.996264)"/>
       <use xlink:href="#CMMI12-3a" transform="translate(45.690477 0) scale(0.996264)"/>
       <use xlink:href="#CMR17-34" transform="translate(72.787654 0) scale(0.996264)"/>
      </g>
     </g>
    </g>
   </g>
   <g id="line2d_59">
    <path d="M 38.930138 242.90381 
L 57.596936 235.260107 
L 76.263734 227.48328 
L 94.930531 219.636799 
L 113.597329 211.810005 
L 132.264127 203.658317 
L 150.930925 195.316187 
L 169.597722 187.178001 
L 188.26452 179.22627 
L 206.931318 170.758574 
" clip-path="url(#pd19d39fd31)" style="fill: none; stroke: #2ca02c; stroke-width: 2.5; stroke-linecap: square"/>
   </g>
   <g id="line2d_60">
    <path d="M 38.930138 242.944122 
L 57.596936 235.398096 
L 76.263734 227.806441 
L 94.930531 220.088383 
L 113.597329 212.468043 
L 132.264127 204.93829 
L 150.930925 196.781088 
L 169.597722 189.648322 
L 188.26452 181.892385 
L 206.931318 174.806133 
" clip-path="url(#pd19d39fd31)"
          style="fill: none; stroke-dasharray: 1.5,2.475; stroke-dashoffset: 0; stroke: #217821; stroke-width: 1.5"/>
   </g>
   <g id="line2d_61">
    <path d="M 38.930138 242.865074 
L 57.596936 235.114606 
L 76.263734 227.163638 
L 94.930531 219.079405 
L 113.597329 211.042972 
L 132.264127 202.291935 
L 150.930925 193.904206 
L 169.597722 184.491429 
L 188.26452 176.939264 
L 206.931318 167.475606 
" clip-path="url(#pd19d39fd31)"
          style="fill: none; stroke-dasharray: 1.5,2.475; stroke-dashoffset: 0; stroke: #217821; stroke-width: 1.5"/>
   </g>
   <g id="line2d_62">
    <path d="M 38.930138 242.923263 
L 57.596936 235.336128 
L 76.263734 227.643829 
L 94.930531 219.894862 
L 113.597329 212.198491 
L 132.264127 204.310201 
L 150.930925 196.084813 
L 169.597722 188.666569 
L 188.26452 180.613373 
L 206.931318 172.762018 
" clip-path="url(#pd19d39fd31)"
          style="fill: none; stroke-dasharray: 5.55,2.4; stroke-dashoffset: 0; stroke: #217821; stroke-width: 1.5"/>
   </g>
   <g id="line2d_63">
    <path d="M 38.930138 242.884357 
L 57.596936 235.184087 
L 76.263734 227.322732 
L 94.930531 219.378735 
L 113.597329 211.421519 
L 132.264127 203.006433 
L 150.930925 194.547562 
L 169.597722 185.689432 
L 188.26452 177.839167 
L 206.931318 168.75513 
" clip-path="url(#pd19d39fd31)"
          style="fill: none; stroke-dasharray: 5.55,2.4; stroke-dashoffset: 0; stroke: #217821; stroke-width: 1.5"/>
   </g>
   <g id="patch_15">
    <path d="M 30.530079 246.717548 
L 30.530079 163.70218 
" style="fill: none; stroke: #000000; stroke-width: 0.8; stroke-linejoin: miter; stroke-linecap: square"/>
   </g>
   <g id="patch_16">
    <path d="M 215.331377 246.717548 
L 215.331377 163.70218 
" style="fill: none; stroke: #000000; stroke-width: 0.8; stroke-linejoin: miter; stroke-linecap: square"/>
   </g>
   <g id="patch_17">
    <path d="M 30.530079 246.717548 
L 215.331377 246.717548 
" style="fill: none; stroke: #000000; stroke-width: 0.8; stroke-linejoin: miter; stroke-linecap: square"/>
   </g>
   <g id="patch_18">
    <path d="M 30.530079 163.70218 
L 215.331377 163.70218 
" style="fill: none; stroke: #000000; stroke-width: 0.8; stroke-linejoin: miter; stroke-linecap: square"/>
   </g>
   <g id="text_31">
    <!-- $N = 7$ -->
    <g transform="translate(106.819773 157.70218) scale(0.12 -0.12)">
     <use xlink:href="#CMMI12-4e" transform="scale(0.996264)"/>
     <use xlink:href="#CMR17-3d" transform="translate(116.195781 0) scale(0.996264)"/>
     <use xlink:href="#CMR17-37" transform="translate(215.584578 0) scale(0.996264)"/>
    </g>
   </g>
   <g id="legend_3">
    <g id="patch_19">
     <path d="M 38.930079 190.026776 
L 89.164211 190.026776 
Q 91.564211 190.026776 91.564211 187.626776 
L 91.564211 172.10218 
Q 91.564211 169.70218 89.164211 169.70218 
L 38.930079 169.70218 
Q 36.530079 169.70218 36.530079 172.10218 
L 36.530079 187.626776 
Q 36.530079 190.026776 38.930079 190.026776 
z
" style="fill: #ffffff; opacity: 0.8; stroke: #cccccc; stroke-linejoin: miter"/>
    </g>
    <g id="line2d_64">
     <path d="M 41.330079 178.70218 
L 53.330079 178.70218 
L 65.330079 178.70218 
" style="fill: none; stroke: #2ca02c; stroke-width: 2.5; stroke-linecap: square"/>
    </g>
    <g id="text_32">
     <!-- $\xi_N$ -->
     <g transform="translate(74.930079 182.90218) scale(0.12 -0.12)">
      <defs>
       <path id="CMMI12-18" d="M 1670 0 
L 998 271 
C 832 335 448 490 448 876 
C 448 1430 1120 1990 1254 1990 
C 1267 1990 1325 1977 1344 1971 
C 1517 1919 1683 1919 1798 1919 
C 1997 1919 2374 1919 2374 2089 
C 2374 2220 2144 2240 1869 2240 
C 1741 2240 1568 2240 1338 2163 
C 1184 2291 1120 2497 1120 2690 
C 1120 3043 1350 3545 1856 3780 
C 1971 3648 2125 3648 2259 3648 
C 2419 3648 2810 3648 2810 3817 
C 2810 3968 2502 3968 2298 3968 
C 2170 3968 2074 3968 1894 3936 
C 1862 4016 1856 4029 1856 4180 
C 1856 4303 1882 4396 1882 4415 
C 1882 4454 1850 4480 1818 4480 
C 1715 4480 1715 4235 1715 4180 
C 1715 4084 1722 3988 1760 3904 
C 992 3705 653 3159 653 2741 
C 653 2355 909 2144 1082 2066 
C 422 1713 141 1057 141 709 
C 141 148 646 -51 877 -148 
L 1453 -380 
C 1613 -438 1875 -547 1920 -573 
C 1984 -618 2035 -695 2035 -798 
C 2035 -934 1933 -1152 1709 -1152 
C 1613 -1152 1402 -1127 1171 -953 
C 1126 -914 1120 -908 1094 -908 
C 1062 -908 1030 -934 1030 -972 
C 1030 -1043 1363 -1280 1709 -1280 
C 2118 -1280 2368 -882 2368 -605 
C 2368 -405 2259 -244 2054 -154 
L 1670 0 
z
M 1997 3817 
C 2106 3840 2221 3840 2304 3840 
C 2515 3840 2534 3835 2662 3812 
C 2586 3789 2534 3776 2266 3776 
C 2144 3776 2067 3776 1997 3817 
z
M 1491 2084 
C 1645 2112 1786 2112 1862 2112 
C 2074 2112 2086 2107 2227 2084 
C 2157 2061 2099 2048 1824 2048 
C 1670 2048 1606 2048 1491 2084 
z
" transform="scale(0.015625)"/>
      </defs>
      <use xlink:href="#CMMI12-18" transform="scale(0.996264)"/>
      <use xlink:href="#CMMI12-4e" transform="translate(42.606035 -14.943915) scale(0.697382)"/>
     </g>
    </g>
   </g>
  </g>
  <g id="axes_4">
   <g id="patch_20">
    <path d="M 266.507793 246.717548 
L 451.309091 246.717548 
L 451.309091 163.70218 
L 266.507793 163.70218 
z
" style="fill: #f2f2f2"/>
   </g>
   <g id="PolyCollection_7">
    <defs>
     <path id="mc3eb2f1a13" d="M 274.907852 -45.44138 
L 274.907852 -45.174971 
L 293.57465 -49.431798 
L 312.241448 -54.011414 
L 330.908246 -59.086357 
L 349.575044 -63.713428 
L 368.241841 -69.478907 
L 386.908639 -76.09281 
L 405.575437 -81.963236 
L 424.242235 -89.607718 
L 442.909032 -97.46958 
L 442.909032 -111.694604 
L 442.909032 -111.694604 
L 424.242235 -98.348368 
L 405.575437 -90.950189 
L 386.908639 -81.284422 
L 368.241841 -72.957141 
L 349.575044 -66.796001 
L 330.908246 -60.25839 
L 312.241448 -55.302873 
L 293.57465 -49.959573 
L 274.907852 -45.44138 
z
" style="stroke: #6b1414; stroke-opacity: 0.25"/>
    </defs>
    <g clip-path="url(#p6b6a95fb09)">
     <use xlink:href="#mc3eb2f1a13" x="0" y="288"
          style="fill: #6b1414; fill-opacity: 0.25; stroke: #6b1414; stroke-opacity: 0.25"/>
    </g>
   </g>
   <g id="PolyCollection_8">
    <defs>
     <path id="m3661636b4a" d="M 274.907852 -45.580735 
L 274.907852 -45.055878 
L 293.57465 -49.13981 
L 312.241448 -53.770048 
L 330.908246 -58.623004 
L 349.575044 -63.40288 
L 368.241841 -68.113935 
L 386.908639 -74.831128 
L 405.575437 -79.69596 
L 424.242235 -87.633977 
L 442.909032 -93.420449 
L 442.909032 -120.524394 
L 442.909032 -120.524394 
L 424.242235 -102.666147 
L 405.575437 -96.226157 
L 386.908639 -84.082063 
L 368.241841 -75.42258 
L 349.575044 -69.776679 
L 330.908246 -60.678746 
L 312.241448 -56.469812 
L 293.57465 -50.074927 
L 274.907852 -45.580735 
z
" style="stroke: #360a0a; stroke-opacity: 0.125"/>
    </defs>
    <g clip-path="url(#p6b6a95fb09)">
     <use xlink:href="#m3661636b4a" x="0" y="288"
          style="fill: #360a0a; fill-opacity: 0.125; stroke: #360a0a; stroke-opacity: 0.125"/>
    </g>
   </g>
   <g id="matplotlib.axis_7">
    <g id="xtick_16">
     <g id="line2d_65">
      <path d="M 293.57465 246.717548 
L 293.57465 163.70218 
" clip-path="url(#p6b6a95fb09)" style="fill: none; stroke-dasharray: 3.7,1.6; stroke-dashoffset: 0; stroke: #ffffff"/>
     </g>
     <g id="line2d_66">
      <g>
       <use xlink:href="#m166610a887" x="293.57465" y="246.717548" style="stroke: #000000; stroke-width: 0.8"/>
      </g>
     </g>
     <g id="text_33">
      <!-- $\mathdefault{0.002}$ -->
      <g transform="translate(282.228275 260.636046) scale(0.1 -0.1)">
       <use xlink:href="#CMR17-30" transform="scale(0.996264)"/>
       <use xlink:href="#CMMI12-3a" transform="translate(45.690477 0) scale(0.996264)"/>
       <use xlink:href="#CMR17-30" transform="translate(72.787654 0) scale(0.996264)"/>
       <use xlink:href="#CMR17-30" transform="translate(118.478131 0) scale(0.996264)"/>
       <use xlink:href="#CMR17-32" transform="translate(164.168608 0) scale(0.996264)"/>
      </g>
     </g>
    </g>
    <g id="xtick_17">
     <g id="line2d_67">
      <path d="M 330.908246 246.717548 
L 330.908246 163.70218 
" clip-path="url(#p6b6a95fb09)" style="fill: none; stroke-dasharray: 3.7,1.6; stroke-dashoffset: 0; stroke: #ffffff"/>
     </g>
     <g id="line2d_68">
      <g>
       <use xlink:href="#m166610a887" x="330.908246" y="246.717548" style="stroke: #000000; stroke-width: 0.8"/>
      </g>
     </g>
     <g id="text_34">
      <!-- $\mathdefault{0.004}$ -->
      <g transform="translate(319.561871 260.636046) scale(0.1 -0.1)">
       <use xlink:href="#CMR17-30" transform="scale(0.996264)"/>
       <use xlink:href="#CMMI12-3a" transform="translate(45.690477 0) scale(0.996264)"/>
       <use xlink:href="#CMR17-30" transform="translate(72.787654 0) scale(0.996264)"/>
       <use xlink:href="#CMR17-30" transform="translate(118.478131 0) scale(0.996264)"/>
       <use xlink:href="#CMR17-34" transform="translate(164.168608 0) scale(0.996264)"/>
      </g>
     </g>
    </g>
    <g id="xtick_18">
     <g id="line2d_69">
      <path d="M 368.241841 246.717548 
L 368.241841 163.70218 
" clip-path="url(#p6b6a95fb09)" style="fill: none; stroke-dasharray: 3.7,1.6; stroke-dashoffset: 0; stroke: #ffffff"/>
     </g>
     <g id="line2d_70">
      <g>
       <use xlink:href="#m166610a887" x="368.241841" y="246.717548" style="stroke: #000000; stroke-width: 0.8"/>
      </g>
     </g>
     <g id="text_35">
      <!-- $\mathdefault{0.006}$ -->
      <g transform="translate(356.895467 260.636046) scale(0.1 -0.1)">
       <use xlink:href="#CMR17-30" transform="scale(0.996264)"/>
       <use xlink:href="#CMMI12-3a" transform="translate(45.690477 0) scale(0.996264)"/>
       <use xlink:href="#CMR17-30" transform="translate(72.787654 0) scale(0.996264)"/>
       <use xlink:href="#CMR17-30" transform="translate(118.478131 0) scale(0.996264)"/>
       <use xlink:href="#CMR17-36" transform="translate(164.168608 0) scale(0.996264)"/>
      </g>
     </g>
    </g>
    <g id="xtick_19">
     <g id="line2d_71">
      <path d="M 405.575437 246.717548 
L 405.575437 163.70218 
" clip-path="url(#p6b6a95fb09)" style="fill: none; stroke-dasharray: 3.7,1.6; stroke-dashoffset: 0; stroke: #ffffff"/>
     </g>
     <g id="line2d_72">
      <g>
       <use xlink:href="#m166610a887" x="405.575437" y="246.717548" style="stroke: #000000; stroke-width: 0.8"/>
      </g>
     </g>
     <g id="text_36">
      <!-- $\mathdefault{0.008}$ -->
      <g transform="translate(394.229062 260.636046) scale(0.1 -0.1)">
       <use xlink:href="#CMR17-30" transform="scale(0.996264)"/>
       <use xlink:href="#CMMI12-3a" transform="translate(45.690477 0) scale(0.996264)"/>
       <use xlink:href="#CMR17-30" transform="translate(72.787654 0) scale(0.996264)"/>
       <use xlink:href="#CMR17-30" transform="translate(118.478131 0) scale(0.996264)"/>
       <use xlink:href="#CMR17-38" transform="translate(164.168608 0) scale(0.996264)"/>
      </g>
     </g>
    </g>
    <g id="xtick_20">
     <g id="line2d_73">
      <path d="M 442.909032 246.717548 
L 442.909032 163.70218 
" clip-path="url(#p6b6a95fb09)" style="fill: none; stroke-dasharray: 3.7,1.6; stroke-dashoffset: 0; stroke: #ffffff"/>
     </g>
     <g id="line2d_74">
      <g>
       <use xlink:href="#m166610a887" x="442.909032" y="246.717548" style="stroke: #000000; stroke-width: 0.8"/>
      </g>
     </g>
     <g id="text_37">
      <!-- $\mathdefault{0.010}$ -->
      <g transform="translate(431.562658 260.636046) scale(0.1 -0.1)">
       <use xlink:href="#CMR17-30" transform="scale(0.996264)"/>
       <use xlink:href="#CMMI12-3a" transform="translate(45.690477 0) scale(0.996264)"/>
       <use xlink:href="#CMR17-30" transform="translate(72.787654 0) scale(0.996264)"/>
       <use xlink:href="#CMR17-31" transform="translate(118.478131 0) scale(0.996264)"/>
       <use xlink:href="#CMR17-30" transform="translate(164.168608 0) scale(0.996264)"/>
      </g>
     </g>
    </g>
    <g id="text_38">
     <!-- $\delta$ -->
     <g transform="translate(356.31612 274.875404) scale(0.12 -0.12)">
      <use xlink:href="#CMMI12-e" transform="scale(0.996264)"/>
     </g>
    </g>
   </g>
   <g id="matplotlib.axis_8">
    <g id="ytick_9">
     <g id="line2d_75">
      <path d="M 266.507793 168.35028 
L 451.309091 168.35028 
" clip-path="url(#p6b6a95fb09)" style="fill: none; stroke-dasharray: 3.7,1.6; stroke-dashoffset: 0; stroke: #ffffff"/>
     </g>
     <g id="line2d_76">
      <g>
       <use xlink:href="#m9d60cc228e" x="266.507793" y="168.35028" style="stroke: #000000; stroke-width: 0.8"/>
      </g>
     </g>
     <g id="text_39">
      <!-- $\mathdefault{10^{3}}$ -->
      <g transform="translate(245.573885 171.809529) scale(0.1 -0.1)">
       <defs>
        <path id="CMR17-33" d="M 1414 2176 
C 1984 2176 2234 1673 2234 1094 
C 2234 322 1824 25 1453 25 
C 1114 25 563 193 390 691 
C 422 678 454 678 486 678 
C 640 678 755 780 755 947 
C 755 1132 614 1216 486 1216 
C 378 1216 211 1164 211 927 
C 211 335 787 -128 1466 -128 
C 2176 -128 2720 432 2720 1087 
C 2720 1718 2208 2176 1600 2246 
C 2086 2347 2554 2776 2554 3353 
C 2554 3856 2048 4224 1472 4224 
C 890 4224 378 3862 378 3347 
C 378 3123 544 3084 627 3084 
C 762 3084 877 3167 877 3334 
C 877 3500 762 3584 627 3584 
C 602 3584 570 3584 544 3571 
C 730 3999 1235 4076 1459 4076 
C 1683 4076 2106 3966 2106 3347 
C 2106 3167 2080 2851 1862 2574 
C 1670 2329 1453 2316 1242 2297 
C 1210 2297 1062 2284 1037 2284 
C 992 2278 966 2272 966 2227 
C 966 2182 973 2176 1101 2176 
L 1414 2176 
z
" transform="scale(0.015625)"/>
       </defs>
       <use xlink:href="#CMR17-31" transform="scale(0.996264)"/>
       <use xlink:href="#CMR17-30" transform="translate(45.690477 0) scale(0.996264)"/>
       <use xlink:href="#CMR17-33" transform="translate(91.380954 36.153639) scale(0.697382)"/>
      </g>
     </g>
    </g>
    <g id="ytick_10">
     <g id="line2d_77">
      <defs>
       <path id="mfa8cc69719" d="M 0 0 
L -2 0 
" style="stroke: #000000; stroke-width: 0.6"/>
      </defs>
      <g>
       <use xlink:href="#mfa8cc69719" x="266.507793" y="233.259089" style="stroke: #000000; stroke-width: 0.6"/>
      </g>
     </g>
     <g id="text_40">
      <!-- $\mathdefault{2\times10^{2}}$ -->
      <g transform="translate(230.016074 236.760417) scale(0.1 -0.1)">
       <defs>
        <path id="CMSY10-2" d="M 2490 1775 
L 1210 3046 
C 1133 3123 1120 3136 1069 3136 
C 1005 3136 941 3078 941 3008 
C 941 2963 954 2950 1024 2880 
L 2304 1596 
L 1024 313 
C 954 243 941 230 941 185 
C 941 115 1005 57 1069 57 
C 1120 57 1133 70 1210 147 
L 2483 1418 
L 3808 95 
C 3821 89 3866 57 3904 57 
C 3981 57 4032 115 4032 185 
C 4032 198 4032 223 4013 255 
C 4006 268 2989 1271 2669 1596 
L 3840 2765 
C 3872 2803 3968 2886 4000 2925 
C 4006 2937 4032 2963 4032 3008 
C 4032 3078 3981 3136 3904 3136 
C 3853 3136 3827 3110 3757 3040 
L 2490 1775 
z
" transform="scale(0.015625)"/>
       </defs>
       <use xlink:href="#CMR17-32" transform="scale(0.996264)"/>
       <use xlink:href="#CMSY10-2" transform="translate(67.829684 0) scale(0.996264)"/>
       <use xlink:href="#CMR17-31" transform="translate(167.456359 0) scale(0.996264)"/>
       <use xlink:href="#CMR17-30" transform="translate(213.146836 0) scale(0.996264)"/>
       <use xlink:href="#CMR17-32" transform="translate(258.837313 36.153639) scale(0.697382)"/>
      </g>
     </g>
    </g>
    <g id="ytick_11">
     <g id="line2d_78">
      <g>
       <use xlink:href="#mfa8cc69719" x="266.507793" y="216.906636" style="stroke: #000000; stroke-width: 0.6"/>
      </g>
     </g>
     <g id="text_41">
      <!-- $\mathdefault{3\times10^{2}}$ -->
      <g transform="translate(230.016074 220.407964) scale(0.1 -0.1)">
       <use xlink:href="#CMR17-33" transform="scale(0.996264)"/>
       <use xlink:href="#CMSY10-2" transform="translate(67.829684 0) scale(0.996264)"/>
       <use xlink:href="#CMR17-31" transform="translate(167.456359 0) scale(0.996264)"/>
       <use xlink:href="#CMR17-30" transform="translate(213.146836 0) scale(0.996264)"/>
       <use xlink:href="#CMR17-32" transform="translate(258.837313 36.153639) scale(0.697382)"/>
      </g>
     </g>
    </g>
    <g id="ytick_12">
     <g id="line2d_79">
      <g>
       <use xlink:href="#mfa8cc69719" x="266.507793" y="205.304387" style="stroke: #000000; stroke-width: 0.6"/>
      </g>
     </g>
     <g id="text_42">
      <!-- $\mathdefault{4\times10^{2}}$ -->
      <g transform="translate(230.016074 208.805714) scale(0.1 -0.1)">
       <use xlink:href="#CMR17-34" transform="scale(0.996264)"/>
       <use xlink:href="#CMSY10-2" transform="translate(67.829684 0) scale(0.996264)"/>
       <use xlink:href="#CMR17-31" transform="translate(167.456359 0) scale(0.996264)"/>
       <use xlink:href="#CMR17-30" transform="translate(213.146836 0) scale(0.996264)"/>
       <use xlink:href="#CMR17-32" transform="translate(258.837313 36.153639) scale(0.697382)"/>
      </g>
     </g>
    </g>
    <g id="ytick_13">
     <g id="line2d_80">
      <g>
       <use xlink:href="#mfa8cc69719" x="266.507793" y="196.304983" style="stroke: #000000; stroke-width: 0.6"/>
      </g>
     </g>
    </g>
    <g id="ytick_14">
     <g id="line2d_81">
      <g>
       <use xlink:href="#mfa8cc69719" x="266.507793" y="188.951934" style="stroke: #000000; stroke-width: 0.6"/>
      </g>
     </g>
     <g id="text_43">
      <!-- $\mathdefault{6\times10^{2}}$ -->
      <g transform="translate(230.016074 192.453262) scale(0.1 -0.1)">
       <use xlink:href="#CMR17-36" transform="scale(0.996264)"/>
       <use xlink:href="#CMSY10-2" transform="translate(67.829684 0) scale(0.996264)"/>
       <use xlink:href="#CMR17-31" transform="translate(167.456359 0) scale(0.996264)"/>
       <use xlink:href="#CMR17-30" transform="translate(213.146836 0) scale(0.996264)"/>
       <use xlink:href="#CMR17-32" transform="translate(258.837313 36.153639) scale(0.697382)"/>
      </g>
     </g>
    </g>
    <g id="ytick_15">
     <g id="line2d_82">
      <g>
       <use xlink:href="#mfa8cc69719" x="266.507793" y="182.73502" style="stroke: #000000; stroke-width: 0.6"/>
      </g>
     </g>
    </g>
    <g id="ytick_16">
     <g id="line2d_83">
      <g>
       <use xlink:href="#mfa8cc69719" x="266.507793" y="177.349684" style="stroke: #000000; stroke-width: 0.6"/>
      </g>
     </g>
    </g>
    <g id="ytick_17">
     <g id="line2d_84">
      <g>
       <use xlink:href="#mfa8cc69719" x="266.507793" y="172.599481" style="stroke: #000000; stroke-width: 0.6"/>
      </g>
     </g>
    </g>
   </g>
   <g id="line2d_85">
    <path d="M 274.907852 242.691604 
L 293.57465 238.303451 
L 312.241448 233.337688 
L 330.908246 228.323369 
L 349.575044 222.715841 
L 368.241841 216.74449 
L 386.908639 209.227904 
L 405.575437 201.293478 
L 424.242235 193.785626 
L 442.909032 182.79396 
" clip-path="url(#p6b6a95fb09)" style="fill: none; stroke: #d62728; stroke-width: 2.5; stroke-linecap: square"/>
   </g>
   <g id="line2d_86">
    <path d="M 274.907852 242.944122 
L 293.57465 238.86019 
L 312.241448 234.229952 
L 330.908246 229.376996 
L 349.575044 224.59712 
L 368.241841 219.886065 
L 386.908639 213.168872 
L 405.575437 208.30404 
L 424.242235 200.366023 
L 442.909032 194.579551 
" clip-path="url(#p6b6a95fb09)"
          style="fill: none; stroke-dasharray: 1.5,2.475; stroke-dashoffset: 0; stroke: #a01d1e; stroke-width: 1.5"/>
   </g>
   <g id="line2d_87">
    <path d="M 274.907852 242.419265 
L 293.57465 237.925073 
L 312.241448 231.530188 
L 330.908246 227.321254 
L 349.575044 218.223321 
L 368.241841 212.57742 
L 386.908639 203.917937 
L 405.575437 191.773843 
L 424.242235 185.333853 
L 442.909032 167.475606 
" clip-path="url(#p6b6a95fb09)"
          style="fill: none; stroke-dasharray: 1.5,2.475; stroke-dashoffset: 0; stroke: #a01d1e; stroke-width: 1.5"/>
   </g>
   <g id="line2d_88">
    <path d="M 274.907852 242.825029 
L 293.57465 238.568202 
L 312.241448 233.988586 
L 330.908246 228.913643 
L 349.575044 224.286572 
L 368.241841 218.521093 
L 386.908639 211.90719 
L 405.575437 206.036764 
L 424.242235 198.392282 
L 442.909032 190.53042 
" clip-path="url(#p6b6a95fb09)"
          style="fill: none; stroke-dasharray: 5.55,2.4; stroke-dashoffset: 0; stroke: #a01d1e; stroke-width: 1.5"/>
   </g>
   <g id="line2d_89">
    <path d="M 274.907852 242.55862 
L 293.57465 238.040427 
L 312.241448 232.697127 
L 330.908246 227.74161 
L 349.575044 221.203999 
L 368.241841 215.042859 
L 386.908639 206.715578 
L 405.575437 197.049811 
L 424.242235 189.651632 
L 442.909032 176.305396 
" clip-path="url(#p6b6a95fb09)"
          style="fill: none; stroke-dasharray: 5.55,2.4; stroke-dashoffset: 0; stroke: #a01d1e; stroke-width: 1.5"/>
   </g>
   <g id="patch_21">
    <path d="M 266.507793 246.717548 
L 266.507793 163.70218 
" style="fill: none; stroke: #000000; stroke-width: 0.8; stroke-linejoin: miter; stroke-linecap: square"/>
   </g>
   <g id="patch_22">
    <path d="M 451.309091 246.717548 
L 451.309091 163.70218 
" style="fill: none; stroke: #000000; stroke-width: 0.8; stroke-linejoin: miter; stroke-linecap: square"/>
   </g>
   <g id="patch_23">
    <path d="M 266.507793 246.717548 
L 451.309091 246.717548 
" style="fill: none; stroke: #000000; stroke-width: 0.8; stroke-linejoin: miter; stroke-linecap: square"/>
   </g>
   <g id="patch_24">
    <path d="M 266.507793 163.70218 
L 451.309091 163.70218 
" style="fill: none; stroke: #000000; stroke-width: 0.8; stroke-linejoin: miter; stroke-linecap: square"/>
   </g>
   <g id="text_44">
    <!-- $N = 7$ -->
    <g transform="translate(342.797487 157.70218) scale(0.12 -0.12)">
     <use xlink:href="#CMMI12-4e" transform="scale(0.996264)"/>
     <use xlink:href="#CMR17-3d" transform="translate(116.195781 0) scale(0.996264)"/>
     <use xlink:href="#CMR17-37" transform="translate(215.584578 0) scale(0.996264)"/>
    </g>
   </g>
   <g id="legend_4">
    <g id="patch_25">
     <path d="M 274.907793 190.026776 
L 343.065951 190.026776 
Q 345.465951 190.026776 345.465951 187.626776 
L 345.465951 172.10218 
Q 345.465951 169.70218 343.065951 169.70218 
L 274.907793 169.70218 
Q 272.507793 169.70218 272.507793 172.10218 
L 272.507793 187.626776 
Q 272.507793 190.026776 274.907793 190.026776 
z
" style="fill: #ffffff; opacity: 0.8; stroke: #cccccc; stroke-linejoin: miter"/>
    </g>
    <g id="line2d_90">
     <path d="M 277.307793 178.70218 
L 289.307793 178.70218 
L 301.307793 178.70218 
" style="fill: none; stroke: #d62728; stroke-width: 2.5; stroke-linecap: square"/>
    </g>
    <g id="text_45">
     <!-- $J_{\mathrm{bound}}$ -->
     <g transform="translate(310.907793 182.90218) scale(0.12 -0.12)">
      <defs>
       <path id="CMMI12-4a" d="M 3418 3911 
C 3469 4102 3482 4166 3795 4166 
C 3898 4166 3962 4166 3962 4281 
C 3962 4352 3904 4352 3878 4352 
C 3770 4352 3648 4339 3533 4339 
L 3181 4339 
C 2912 4339 2630 4352 2362 4352 
C 2304 4352 2227 4352 2227 4236 
C 2227 4172 2278 4172 2278 4166 
L 2438 4166 
C 2950 4166 2950 4115 2950 4019 
C 2950 4013 2950 3968 2925 3866 
L 2189 953 
C 2022 304 1594 0 1286 0 
C 1069 0 762 99 685 428 
C 710 422 742 415 768 415 
C 979 415 1146 601 1146 787 
C 1146 889 1082 1024 890 1024 
C 774 1024 506 959 506 543 
C 506 149 838 -128 1299 -128 
C 1882 -128 2509 304 2662 908 
L 3418 3911 
z
" transform="scale(0.015625)"/>
       <path id="CMR17-62" d="M 960 4416 
L 198 4345 
L 198 4179 
C 576 4179 634 4141 634 3843 
L 634 -13 
L 749 -13 
L 934 445 
C 1120 141 1395 -64 1766 -64 
C 2406 -64 3053 503 3053 1382 
C 3053 2209 2477 2816 1830 2816 
C 1434 2816 1152 2603 960 2351 
L 960 4416 
z
M 973 2022 
C 973 2138 973 2157 1062 2293 
C 1312 2681 1670 2713 1792 2713 
C 1984 2713 2643 2610 2643 1388 
C 2643 109 1888 38 1734 38 
C 1536 38 1248 115 1043 490 
C 973 613 973 626 973 742 
L 973 2022 
z
" transform="scale(0.015625)"/>
       <path id="CMR17-6f" d="M 2758 1356 
C 2758 2176 2163 2816 1466 2816 
C 768 2816 173 2176 173 1356 
C 173 550 768 -64 1466 -64 
C 2163 -64 2758 550 2758 1356 
z
M 1466 51 
C 1165 51 909 230 762 480 
C 602 768 582 1126 582 1408 
C 582 1676 595 2009 762 2297 
C 890 2508 1139 2713 1466 2713 
C 1754 2713 1997 2553 2150 2329 
C 2349 2028 2349 1606 2349 1408 
C 2349 1158 2336 774 2163 467 
C 1984 172 1709 51 1466 51 
z
" transform="scale(0.015625)"/>
       <path id="CMR17-75" d="M 1882 2745 
L 1882 2579 
C 2259 2579 2317 2540 2317 2229 
L 2317 1053 
C 2317 510 2029 38 1555 38 
C 1030 38 986 355 986 691 
L 986 2816 
L 211 2745 
L 211 2579 
C 467 2579 640 2579 646 2320 
L 646 1079 
C 646 646 646 368 813 187 
C 896 103 1056 -64 1517 -64 
C 2061 -64 2272 400 2323 536 
L 2330 536 
L 2330 -64 
L 3091 -13 
L 3091 154 
C 2714 154 2656 193 2656 503 
L 2656 2816 
L 1882 2745 
z
" transform="scale(0.015625)"/>
       <path id="CMR17-6e" d="M 2656 1954 
C 2656 2282 2592 2816 1837 2816 
C 1331 2816 1069 2424 973 2166 
L 966 2166 
L 966 2816 
L 211 2745 
L 211 2578 
C 589 2578 646 2540 646 2231 
L 646 443 
C 646 198 621 166 211 166 
L 211 0 
C 365 12 646 12 813 12 
C 979 12 1267 12 1421 0 
L 1421 166 
C 1011 166 986 192 986 443 
L 986 1678 
C 986 2269 1344 2713 1792 2713 
C 2266 2713 2317 2289 2317 1980 
L 2317 443 
C 2317 198 2291 166 1882 166 
L 1882 0 
C 2035 12 2317 12 2483 12 
C 2650 12 2938 12 3091 0 
L 3091 166 
C 2682 166 2656 192 2656 443 
L 2656 1954 
z
" transform="scale(0.015625)"/>
       <path id="CMR17-64" d="M 1869 4345 
L 1869 4179 
C 2246 4179 2304 4141 2304 3843 
L 2304 2371 
C 2278 2403 2016 2816 1498 2816 
C 845 2816 211 2228 211 1376 
C 211 529 806 -64 1434 -64 
C 1978 -64 2259 361 2291 406 
L 2291 -64 
L 3066 -13 
L 3066 154 
C 2688 154 2630 193 2630 503 
L 2630 4416 
L 1869 4345 
z
M 2291 762 
C 2291 568 2176 393 2029 264 
C 1811 70 1594 38 1472 38 
C 1286 38 621 135 621 1369 
C 621 2636 1363 2713 1530 2713 
C 1824 2713 2061 2545 2208 2313 
C 2291 2177 2291 2157 2291 2041 
L 2291 762 
z
" transform="scale(0.015625)"/>
      </defs>
      <use xlink:href="#CMMI12-4a" transform="scale(0.996264)"/>
      <use xlink:href="#CMR17-62" transform="translate(53.917955 -14.943915) scale(0.697382)"/>
      <use xlink:href="#CMR17-6f" transform="translate(91.366269 -14.943915) scale(0.697382)"/>
      <use xlink:href="#CMR17-75" transform="translate(123.349451 -14.943915) scale(0.697382)"/>
      <use xlink:href="#CMR17-6e" transform="translate(158.97606 -14.943915) scale(0.697382)"/>
      <use xlink:href="#CMR17-64" transform="translate(194.602668 -14.943915) scale(0.697382)"/>
     </g>
    </g>
   </g>
  </g>
 </g>
 <defs>
  <clipPath id="p96fa68add7">
   <rect x="30.530079" y="25.10218" width="184.801298" height="83.015368"/>
  </clipPath>
  <clipPath id="p1a7cd5cf45">
   <rect x="266.507793" y="25.10218" width="184.801298" height="83.015368"/>
  </clipPath>
  <clipPath id="pd19d39fd31">
   <rect x="30.530079" y="163.70218" width="184.801298" height="83.015368"/>
  </clipPath>
  <clipPath id="p6b6a95fb09">
   <rect x="266.507793" y="163.70218" width="184.801298" height="83.015368"/>
  </clipPath>
 </defs>
</svg>
