<?xml version="1.0" encoding="utf-8" standalone="no"?>
<!DOCTYPE svg PUBLIC "-//W3C//DTD SVG 1.1//EN"
        "http://www.w3.org/Graphics/SVG/1.1/DTD/svg11.dtd">
<svg xmlns:xlink="http://www.w3.org/1999/xlink" width="349.495342pt" height="349.495342pt"
     viewBox="0 0 349.495342 349.495342" xmlns="http://www.w3.org/2000/svg" version="1.1">
    <metadata>
        <rdf:RDF xmlns:dc="http://purl.org/dc/elements/1.1/" xmlns:cc="http://creativecommons.org/ns#"
                 xmlns:rdf="http://www.w3.org/1999/02/22-rdf-syntax-ns#">
            <cc:Work>
                <dc:type rdf:resource="http://purl.org/dc/dcmitype/StillImage"/>
                <dc:date>2024-05-07T16:24:46.405683</dc:date>
                <dc:format>image/svg+xml</dc:format>
                <dc:creator>
                    <cc:Agent>
                        <dc:title>Matplotlib v3.8.3, https://matplotlib.org/</dc:title>
                    </cc:Agent>
                </dc:creator>
            </cc:Work>
        </rdf:RDF>
    </metadata>
    <defs>
        <style type="text/css">*{stroke-linejoin: round; stroke-linecap: butt}</style>
    </defs>
    <g id="figure_1">
        <g id="patch_1">
            <path d="M 0 349.495342
L 349.495342 349.495342 
L 349.495342 0 
L 0 0 
z
" style="fill: #ffffff"/>
        </g>
        <g id="patch_2">
            <path d="M 44.560656 311.050854
L 313.672069 311.050854 
L 313.672069 41.939441 
L 44.560656 41.939441 
z
" style="fill: #ffffff"/>
        </g>
        <g id="pane3d_1">
            <g id="patch_3">
                <path d="M 64.880424 244.696604
L 153.749801 170.20453 
L 152.514431 62.773642 
L 59.392196 130.730008 
" style="fill: #f2f2f2; opacity: 0.5; stroke: #f2f2f2; stroke-linejoin: miter"/>
            </g>
        </g>
        <g id="pane3d_2">
            <g id="patch_4">
                <path d="M 153.749801 170.20453
L 296.353443 211.653778 
L 301.442464 100.522557 
L 152.514431 62.773642 
" style="fill: #e6e6e6; opacity: 0.5; stroke: #e6e6e6; stroke-linejoin: miter"/>
            </g>
        </g>
        <g id="pane3d_3">
            <g id="patch_5">
                <path d="M 64.880424 244.696604
L 216.047249 294.067689 
L 296.353443 211.653778 
L 153.749801 170.20453 
" style="fill: #ececec; opacity: 0.5; stroke: #ececec; stroke-linejoin: miter"/>
            </g>
        </g>
        <g id="grid3d_1">
            <g id="Line3DCollection_1">
                <path d="M 77.978057 248.974291
L 166.155405 173.810349 
L 165.445268 66.051232 
" style="fill: none; stroke: #b0b0b0; stroke-width: 0.8"/>
                <path d="M 97.856598 255.466622
L 184.965483 179.277696 
L 185.060787 71.023194 
" style="fill: none; stroke: #b0b0b0; stroke-width: 0.8"/>
                <path d="M 118.018948 262.051646
L 204.021789 184.816612 
L 204.944214 76.063063 
" style="fill: none; stroke: #b0b0b0; stroke-width: 0.8"/>
                <path d="M 138.471229 268.731361
L 223.32919 190.428511 
L 225.101076 81.17224 
" style="fill: none; stroke: #b0b0b0; stroke-width: 0.8"/>
                <path d="M 159.21974 275.507825
L 242.892682 196.114846 
L 245.537052 86.352165 
" style="fill: none; stroke: #b0b0b0; stroke-width: 0.8"/>
                <path d="M 180.270965 282.383154
L 262.717395 201.877107 
L 266.25798 91.604316 
" style="fill: none; stroke: #b0b0b0; stroke-width: 0.8"/>
                <path d="M 201.631576 289.35953
L 282.808595 207.716826 
L 287.269862 96.930215 
" style="fill: none; stroke: #b0b0b0; stroke-width: 0.8"/>
            </g>
        </g>
        <g id="grid3d_2">
            <g id="Line3DCollection_2">
                <path d="M 68.568505 124.033556
L 73.607723 237.381208 
L 223.965068 285.942059 
" style="fill: none; stroke: #b0b0b0; stroke-width: 0.8"/>
                <path d="M 82.047695 114.197057
L 86.43919 226.625618 
L 235.593898 274.008018 
" style="fill: none; stroke: #b0b0b0; stroke-width: 0.8"/>
                <path d="M 95.19577 104.602191
L 98.969036 216.122853 
L 246.935063 262.369193 
" style="fill: none; stroke: #b0b0b0; stroke-width: 0.8"/>
                <path d="M 108.024782 95.240162
L 111.207774 205.8641 
L 257.999106 251.014763 
" style="fill: none; stroke: #b0b0b0; stroke-width: 0.8"/>
                <path d="M 120.546207 86.102596
L 123.165432 195.840954 
L 268.796063 239.93443 
" style="fill: none; stroke: #b0b0b0; stroke-width: 0.8"/>
                <path d="M 132.770975 77.181517
L 134.851583 186.045391 
L 279.335488 229.118387 
" style="fill: none; stroke: #b0b0b0; stroke-width: 0.8"/>
                <path d="M 144.709506 68.469321
L 146.27537 176.469746 
L 289.626487 218.55729 
" style="fill: none; stroke: #b0b0b0; stroke-width: 0.8"/>
            </g>
        </g>
        <g id="grid3d_3">
            <g id="Line3DCollection_3">
                <path d="M 296.450943 209.524627
L 153.726084 168.142006 
L 64.775449 242.516738 
" style="fill: none; stroke: #b0b0b0; stroke-width: 0.8"/>
                <path d="M 296.450943 209.524627
L 153.726084 168.142006 
L 64.775449 242.516738 
" style="fill: none; stroke: #b0b0b0; stroke-width: 0.8"/>
                <path d="M 296.450943 209.524627
L 153.726084 168.142006 
L 64.775449 242.516738 
" style="fill: none; stroke: #b0b0b0; stroke-width: 0.8"/>
                <path d="M 296.450943 209.524627
L 153.726084 168.142006 
L 64.775449 242.516738 
" style="fill: none; stroke: #b0b0b0; stroke-width: 0.8"/>
                <path d="M 296.450943 209.524627
L 153.726084 168.142006 
L 64.775449 242.516738 
" style="fill: none; stroke: #b0b0b0; stroke-width: 0.8"/>
                <path d="M 296.450943 209.524627
L 153.726084 168.142006 
L 64.775449 242.516738 
" style="fill: none; stroke: #b0b0b0; stroke-width: 0.8"/>
                <path d="M 296.450943 209.524627
L 153.726084 168.142006 
L 64.775449 242.516738 
" style="fill: none; stroke: #b0b0b0; stroke-width: 0.8"/>
                <path d="M 296.450943 209.524627
L 153.726084 168.142006 
L 64.775449 242.516738 
" style="fill: none; stroke: #b0b0b0; stroke-width: 0.8"/>
            </g>
        </g>
        <g id="axis3d_1">
            <g id="line2d_1">
                <path d="M 64.880424 244.696604
L 216.047249 294.067689 
" style="fill: none; stroke: #000000; stroke-width: 0.8; stroke-linecap: square"/>
            </g>
            <g id="xtick_1">
                <g id="line2d_2">
                    <path d="M 78.745988 248.319693
L 76.438895 250.2863 
" style="fill: none; stroke: #000000; stroke-width: 0.8; stroke-linecap: square"/>
                </g>
                <g id="text_1">
                    <!-- $\mathdefault{−0.15}$ -->
                    <g transform="translate(57.723115 271.629784) scale(0.1 -0.1)">
                        <defs>
                            <path id="CMSY10-0" d="M 4218 1472
C 4326 1472 4442 1472 4442 1600 
C 4442 1728 4326 1728 4218 1728 
L 755 1728 
C 646 1728 531 1728 531 1600 
C 531 1472 646 1472 755 1472 
L 4218 1472 
z
" transform="scale(0.015625)"/>
                            <path id="CMR17-30" d="M 2688 2038
C 2688 2430 2682 3099 2413 3613 
C 2176 4063 1798 4224 1466 4224 
C 1158 4224 768 4082 525 3620 
C 269 3137 243 2539 243 2038 
C 243 1671 250 1112 448 623 
C 723 -39 1216 -128 1466 -128 
C 1760 -128 2208 -7 2470 604 
C 2662 1048 2688 1568 2688 2038 
z
M 1466 -26 
C 1056 -26 813 328 723 816 
C 653 1196 653 1749 653 2109 
C 653 2604 653 3015 736 3407 
C 858 3954 1216 4121 1466 4121 
C 1728 4121 2067 3947 2189 3420 
C 2272 3054 2278 2623 2278 2109 
C 2278 1691 2278 1176 2202 797 
C 2067 96 1690 -26 1466 -26 
z
" transform="scale(0.015625)"/>
                            <path id="CMMI12-3a" d="M 1178 307
C 1178 492 1024 620 870 620 
C 685 620 557 467 557 313 
C 557 128 710 0 864 0 
C 1050 0 1178 153 1178 307 
z
" transform="scale(0.015625)"/>
                            <path id="CMR17-31" d="M 1702 4083
C 1702 4217 1696 4224 1606 4224 
C 1357 3927 979 3833 621 3820 
C 602 3820 570 3820 563 3808 
C 557 3795 557 3782 557 3648 
C 755 3648 1088 3686 1344 3839 
L 1344 467 
C 1344 243 1331 166 781 166 
L 589 166 
L 589 0 
C 896 6 1216 12 1523 12 
C 1830 12 2150 6 2458 0 
L 2458 166 
L 2266 166 
C 1715 166 1702 236 1702 467 
L 1702 4083 
z
" transform="scale(0.015625)"/>
                            <path id="CMR17-35" d="M 730 3750
C 794 3724 1056 3641 1325 3641 
C 1920 3641 2246 3961 2432 4140 
C 2432 4191 2432 4224 2394 4224 
C 2387 4224 2374 4224 2323 4198 
C 2099 4102 1837 4032 1517 4032 
C 1325 4032 1037 4055 723 4191 
C 653 4224 640 4224 634 4224 
C 602 4224 595 4217 595 4090 
L 595 2231 
C 595 2113 595 2080 659 2080 
C 691 2080 704 2093 736 2139 
C 941 2435 1222 2560 1542 2560 
C 1766 2560 2246 2415 2246 1293 
C 2246 1087 2246 716 2054 422 
C 1894 159 1645 25 1370 25 
C 947 25 518 319 403 812 
C 429 806 480 793 506 793 
C 589 793 749 838 749 1036 
C 749 1209 627 1280 506 1280 
C 358 1280 262 1190 262 1011 
C 262 454 704 -128 1382 -128 
C 2042 -128 2669 441 2669 1267 
C 2669 2054 2170 2662 1549 2662 
C 1222 2662 947 2540 730 2304 
L 730 3750 
z
" transform="scale(0.015625)"/>
                        </defs>
                        <use xlink:href="#CMSY10-0" transform="scale(0.996264)"/>
                        <use xlink:href="#CMR17-30" transform="translate(77.487468 0) scale(0.996264)"/>
                        <use xlink:href="#CMMI12-3a" transform="translate(123.177945 0) scale(0.996264)"/>
                        <use xlink:href="#CMR17-31" transform="translate(150.275122 0) scale(0.996264)"/>
                        <use xlink:href="#CMR17-35" transform="translate(195.965599 0) scale(0.996264)"/>
                    </g>
                </g>
            </g>
            <g id="xtick_2">
                <g id="line2d_3">
                    <path d="M 98.615661 254.802715
L 96.335186 256.79731 
" style="fill: none; stroke: #000000; stroke-width: 0.8; stroke-linecap: square"/>
                </g>
                <g id="text_2">
                    <!-- $\mathdefault{−0.10}$ -->
                    <g transform="translate(77.621812 278.25814) scale(0.1 -0.1)">
                        <use xlink:href="#CMSY10-0" transform="scale(0.996264)"/>
                        <use xlink:href="#CMR17-30" transform="translate(77.487468 0) scale(0.996264)"/>
                        <use xlink:href="#CMMI12-3a" transform="translate(123.177945 0) scale(0.996264)"/>
                        <use xlink:href="#CMR17-31" transform="translate(150.275122 0) scale(0.996264)"/>
                        <use xlink:href="#CMR17-30" transform="translate(195.965599 0) scale(0.996264)"/>
                    </g>
                </g>
            </g>
            <g id="xtick_3">
                <g id="line2d_4">
                    <path d="M 118.768811 261.378229
L 116.515953 263.401414 
" style="fill: none; stroke: #000000; stroke-width: 0.8; stroke-linecap: square"/>
                </g>
                <g id="text_3">
                    <!-- $\mathdefault{−0.05}$ -->
                    <g transform="translate(97.805668 284.981484) scale(0.1 -0.1)">
                        <use xlink:href="#CMSY10-0" transform="scale(0.996264)"/>
                        <use xlink:href="#CMR17-30" transform="translate(77.487468 0) scale(0.996264)"/>
                        <use xlink:href="#CMMI12-3a" transform="translate(123.177945 0) scale(0.996264)"/>
                        <use xlink:href="#CMR17-30" transform="translate(150.275122 0) scale(0.996264)"/>
                        <use xlink:href="#CMR17-35" transform="translate(195.965599 0) scale(0.996264)"/>
                    </g>
                </g>
            </g>
            <g id="xtick_4">
                <g id="line2d_5">
                    <path d="M 139.211548 268.048229
L 136.98734 270.100622 
" style="fill: none; stroke: #000000; stroke-width: 0.8; stroke-linecap: square"/>
                </g>
                <g id="text_4">
                    <!-- $\mathdefault{0.00}$ -->
                    <g transform="translate(122.155227 291.801871) scale(0.1 -0.1)">
                        <use xlink:href="#CMR17-30" transform="scale(0.996264)"/>
                        <use xlink:href="#CMMI12-3a" transform="translate(45.690477 0) scale(0.996264)"/>
                        <use xlink:href="#CMR17-30" transform="translate(72.787654 0) scale(0.996264)"/>
                        <use xlink:href="#CMR17-30" transform="translate(118.478131 0) scale(0.996264)"/>
                    </g>
                </g>
            </g>
            <g id="xtick_5">
                <g id="line2d_6">
                    <path d="M 159.95016 274.814767
L 157.755671 276.897005 
" style="fill: none; stroke: #000000; stroke-width: 0.8; stroke-linecap: square"/>
                </g>
                <g id="text_5">
                    <!-- $\mathdefault{0.05}$ -->
                    <g transform="translate(142.9281 298.721419) scale(0.1 -0.1)">
                        <use xlink:href="#CMR17-30" transform="scale(0.996264)"/>
                        <use xlink:href="#CMMI12-3a" transform="translate(45.690477 0) scale(0.996264)"/>
                        <use xlink:href="#CMR17-30" transform="translate(72.787654 0) scale(0.996264)"/>
                        <use xlink:href="#CMR17-35" transform="translate(118.478131 0) scale(0.996264)"/>
                    </g>
                </g>
            </g>
            <g id="xtick_6">
                <g id="line2d_7">
                    <path d="M 180.991116 281.679952
L 178.827455 283.792691 
" style="fill: none; stroke: #000000; stroke-width: 0.8; stroke-linecap: square"/>
                </g>
                <g id="text_6">
                    <!-- $\mathdefault{0.10}$ -->
                    <g transform="translate(164.005197 305.742306) scale(0.1 -0.1)">
                        <use xlink:href="#CMR17-30" transform="scale(0.996264)"/>
                        <use xlink:href="#CMMI12-3a" transform="translate(45.690477 0) scale(0.996264)"/>
                        <use xlink:href="#CMR17-31" transform="translate(72.787654 0) scale(0.996264)"/>
                        <use xlink:href="#CMR17-30" transform="translate(118.478131 0) scale(0.996264)"/>
                    </g>
                </g>
            </g>
            <g id="xtick_7">
                <g id="line2d_8">
                    <path d="M 202.341077 288.645958
L 200.20939 290.789874 
" style="fill: none; stroke: #000000; stroke-width: 0.8; stroke-linecap: square"/>
                </g>
                <g id="text_7">
                    <!-- $\mathdefault{0.15}$ -->
                    <g transform="translate(185.393252 312.866775) scale(0.1 -0.1)">
                        <use xlink:href="#CMR17-30" transform="scale(0.996264)"/>
                        <use xlink:href="#CMMI12-3a" transform="translate(45.690477 0) scale(0.996264)"/>
                        <use xlink:href="#CMR17-31" transform="translate(72.787654 0) scale(0.996264)"/>
                        <use xlink:href="#CMR17-35" transform="translate(118.478131 0) scale(0.996264)"/>
                    </g>
                </g>
            </g>
            <g id="text_8">
                <!-- $x_1$ -->
                <g transform="translate(116.079211 305.151348) rotate(-341.912962) scale(0.12 -0.12)">
                    <defs>
                        <path id="CMMI12-78" d="M 3034 2624
C 2829 2585 2752 2431 2752 2310 
C 2752 2156 2874 2105 2963 2105 
C 3155 2105 3290 2271 3290 2444 
C 3290 2694 2982 2816 2714 2816 
C 2323 2816 2106 2451 2048 2329 
C 1901 2790 1504 2816 1389 2816 
C 736 2816 390 1993 390 1849 
C 390 1823 416 1790 461 1790 
C 512 1790 525 1829 538 1855 
C 755 2572 1184 2687 1370 2687 
C 1658 2687 1715 2438 1715 2284 
C 1715 2143 1677 1993 1600 1678 
L 1382 778 
C 1286 390 1101 64 762 64 
C 730 64 570 64 435 126 
C 666 166 717 358 717 435 
C 717 563 621 640 499 640 
C 346 640 179 505 179 300 
C 179 57 480 -64 755 -64 
C 1062 -64 1280 153 1414 415 
C 1517 64 1837 -64 2074 -64 
C 2726 -64 3072 751 3072 896 
C 3072 929 3046 955 3008 955 
C 2950 955 2944 922 2925 870 
C 2752 300 2381 64 2093 64 
C 1869 64 1747 204 1747 467 
C 1747 607 1773 712 1875 1146 
L 2099 2039 
C 2195 2425 2413 2687 2707 2687 
C 2720 2687 2899 2687 3034 2624 
z
" transform="scale(0.015625)"/>
                    </defs>
                    <use xlink:href="#CMMI12-78" transform="scale(0.996264)"/>
                    <use xlink:href="#CMR17-31" transform="translate(55.43406 -14.943915) scale(0.697382)"/>
                </g>
            </g>
        </g>
        <g id="axis3d_2">
            <g id="line2d_9">
                <path d="M 296.353443 211.653778
L 216.047249 294.067689 
" style="fill: none; stroke: #000000; stroke-width: 0.8; stroke-linecap: square"/>
            </g>
            <g id="xtick_8">
                <g id="line2d_10">
                    <path d="M 222.698165 285.532888
L 226.502142 286.761457 
" style="fill: none; stroke: #000000; stroke-width: 0.8; stroke-linecap: square"/>
                </g>
                <g id="text_9">
                    <!-- $\mathdefault{−0.15}$ -->
                    <g transform="translate(224.084241 306.248262) scale(0.1 -0.1)">
                        <use xlink:href="#CMSY10-0" transform="scale(0.996264)"/>
                        <use xlink:href="#CMR17-30" transform="translate(77.487468 0) scale(0.996264)"/>
                        <use xlink:href="#CMMI12-3a" transform="translate(123.177945 0) scale(0.996264)"/>
                        <use xlink:href="#CMR17-31" transform="translate(150.275122 0) scale(0.996264)"/>
                        <use xlink:href="#CMR17-35" transform="translate(195.965599 0) scale(0.996264)"/>
                    </g>
                </g>
            </g>
            <g id="xtick_9">
                <g id="line2d_11">
                    <path d="M 234.337924 273.609029
L 238.109046 274.807013 
" style="fill: none; stroke: #000000; stroke-width: 0.8; stroke-linecap: square"/>
                </g>
                <g id="text_10">
                    <!-- $\mathdefault{−0.10}$ -->
                    <g transform="translate(235.558841 294.139502) scale(0.1 -0.1)">
                        <use xlink:href="#CMSY10-0" transform="scale(0.996264)"/>
                        <use xlink:href="#CMR17-30" transform="translate(77.487468 0) scale(0.996264)"/>
                        <use xlink:href="#CMMI12-3a" transform="translate(123.177945 0) scale(0.996264)"/>
                        <use xlink:href="#CMR17-31" transform="translate(150.275122 0) scale(0.996264)"/>
                        <use xlink:href="#CMR17-30" transform="translate(195.965599 0) scale(0.996264)"/>
                    </g>
                </g>
            </g>
            <g id="xtick_10">
                <g id="line2d_12">
                    <path d="M 245.689867 261.980011
L 249.428587 263.148537 
" style="fill: none; stroke: #000000; stroke-width: 0.8; stroke-linecap: square"/>
                </g>
                <g id="text_11">
                    <!-- $\mathdefault{−0.05}$ -->
                    <g transform="translate(246.749428 282.330453) scale(0.1 -0.1)">
                        <use xlink:href="#CMSY10-0" transform="scale(0.996264)"/>
                        <use xlink:href="#CMR17-30" transform="translate(77.487468 0) scale(0.996264)"/>
                        <use xlink:href="#CMMI12-3a" transform="translate(123.177945 0) scale(0.996264)"/>
                        <use xlink:href="#CMR17-30" transform="translate(150.275122 0) scale(0.996264)"/>
                        <use xlink:href="#CMR17-35" transform="translate(195.965599 0) scale(0.996264)"/>
                    </g>
                </g>
            </g>
            <g id="xtick_11">
                <g id="line2d_13">
                    <path d="M 256.764541 250.63503
L 260.471305 251.775172 
" style="fill: none; stroke: #000000; stroke-width: 0.8; stroke-linecap: square"/>
                </g>
                <g id="text_12">
                    <!-- $\mathdefault{0.00}$ -->
                    <g transform="translate(261.540789 270.810122) scale(0.1 -0.1)">
                        <use xlink:href="#CMR17-30" transform="scale(0.996264)"/>
                        <use xlink:href="#CMMI12-3a" transform="translate(45.690477 0) scale(0.996264)"/>
                        <use xlink:href="#CMR17-30" transform="translate(72.787654 0) scale(0.996264)"/>
                        <use xlink:href="#CMR17-30" transform="translate(118.478131 0) scale(0.996264)"/>
                    </g>
                </g>
            </g>
            <g id="xtick_12">
                <g id="line2d_14">
                    <path d="M 267.57198 239.563807
L 271.247232 240.676585 
" style="fill: none; stroke: #000000; stroke-width: 0.8; stroke-linecap: square"/>
                </g>
                <g id="text_13">
                    <!-- $\mathdefault{0.05}$ -->
                    <g transform="translate(272.194092 259.568049) scale(0.1 -0.1)">
                        <use xlink:href="#CMR17-30" transform="scale(0.996264)"/>
                        <use xlink:href="#CMMI12-3a" transform="translate(45.690477 0) scale(0.996264)"/>
                        <use xlink:href="#CMR17-30" transform="translate(72.787654 0) scale(0.996264)"/>
                        <use xlink:href="#CMR17-35" transform="translate(118.478131 0) scale(0.996264)"/>
                    </g>
                </g>
            </g>
            <g id="xtick_13">
                <g id="line2d_15">
                    <path d="M 278.121742 228.75655
L 281.765923 229.842939 
" style="fill: none; stroke: #000000; stroke-width: 0.8; stroke-linecap: square"/>
                </g>
                <g id="text_14">
                    <!-- $\mathdefault{0.10}$ -->
                    <g transform="translate(282.59315 248.594273) scale(0.1 -0.1)">
                        <use xlink:href="#CMR17-30" transform="scale(0.996264)"/>
                        <use xlink:href="#CMMI12-3a" transform="translate(45.690477 0) scale(0.996264)"/>
                        <use xlink:href="#CMR17-31" transform="translate(72.787654 0) scale(0.996264)"/>
                        <use xlink:href="#CMR17-30" transform="translate(118.478131 0) scale(0.996264)"/>
                    </g>
                </g>
            </g>
            <g id="xtick_14">
                <g id="line2d_16">
                    <path d="M 288.422934 218.20393
L 292.036478 219.264857 
" style="fill: none; stroke: #000000; stroke-width: 0.8; stroke-linecap: square"/>
                </g>
                <g id="text_15">
                    <!-- $\mathdefault{0.15}$ -->
                    <g transform="translate(292.746956 237.879303) scale(0.1 -0.1)">
                        <use xlink:href="#CMR17-30" transform="scale(0.996264)"/>
                        <use xlink:href="#CMMI12-3a" transform="translate(45.690477 0) scale(0.996264)"/>
                        <use xlink:href="#CMR17-31" transform="translate(72.787654 0) scale(0.996264)"/>
                        <use xlink:href="#CMR17-35" transform="translate(118.478131 0) scale(0.996264)"/>
                    </g>
                </g>
            </g>
            <g id="text_16">
                <!-- $x_2$ -->
                <g transform="translate(283.309851 285.010896) rotate(-45.742112) scale(0.12 -0.12)">
                    <defs>
                        <path id="CMR17-32" d="M 2669 990
L 2554 990 
C 2490 537 2438 460 2413 422 
C 2381 371 1920 371 1830 371 
L 602 371 
C 832 620 1280 1073 1824 1596 
C 2214 1966 2669 2400 2669 3033 
C 2669 3788 2067 4224 1395 4224 
C 691 4224 262 3603 262 3027 
C 262 2777 448 2745 525 2745 
C 589 2745 781 2783 781 3007 
C 781 3206 614 3264 525 3264 
C 486 3264 448 3257 422 3244 
C 544 3788 915 4057 1306 4057 
C 1862 4057 2227 3616 2227 3033 
C 2227 2477 1901 1998 1536 1583 
L 262 147 
L 262 0 
L 2515 0 
L 2669 990 
z
" transform="scale(0.015625)"/>
                    </defs>
                    <use xlink:href="#CMMI12-78" transform="scale(0.996264)"/>
                    <use xlink:href="#CMR17-32" transform="translate(55.43406 -14.943915) scale(0.697382)"/>
                </g>
            </g>
        </g>
        <g id="axis3d_3">
            <g id="line2d_17">
                <path d="M 296.353443 211.653778
L 301.442464 100.522557 
" style="fill: none; stroke: #000000; stroke-width: 0.8; stroke-linecap: square"/>
            </g>
            <g id="xtick_15">
                <g id="line2d_18">
                    <path d="M 295.25304 209.177299
L 298.8496 210.22011 
" style="fill: none; stroke: #000000; stroke-width: 0.8; stroke-linecap: square"/>
                </g>
                <g id="text_17">
                    <!-- $\mathdefault{10^{-300}}$ -->
                    <g transform="translate(300.663995 213.84213) scale(0.1 -0.1)">
                        <defs>
                            <path id="CMR17-33" d="M 1414 2176
C 1984 2176 2234 1673 2234 1094 
C 2234 322 1824 25 1453 25 
C 1114 25 563 193 390 691 
C 422 678 454 678 486 678 
C 640 678 755 780 755 947 
C 755 1132 614 1216 486 1216 
C 378 1216 211 1164 211 927 
C 211 335 787 -128 1466 -128 
C 2176 -128 2720 432 2720 1087 
C 2720 1718 2208 2176 1600 2246 
C 2086 2347 2554 2776 2554 3353 
C 2554 3856 2048 4224 1472 4224 
C 890 4224 378 3862 378 3347 
C 378 3123 544 3084 627 3084 
C 762 3084 877 3167 877 3334 
C 877 3500 762 3584 627 3584 
C 602 3584 570 3584 544 3571 
C 730 3999 1235 4076 1459 4076 
C 1683 4076 2106 3966 2106 3347 
C 2106 3167 2080 2851 1862 2574 
C 1670 2329 1453 2316 1242 2297 
C 1210 2297 1062 2284 1037 2284 
C 992 2278 966 2272 966 2227 
C 966 2182 973 2176 1101 2176 
L 1414 2176 
z
" transform="scale(0.015625)"/>
                        </defs>
                        <use xlink:href="#CMR17-31" transform="scale(0.996264)"/>
                        <use xlink:href="#CMR17-30" transform="translate(45.690477 0) scale(0.996264)"/>
                        <use xlink:href="#CMSY10-0" transform="translate(91.380954 36.153639) scale(0.697382)"/>
                        <use xlink:href="#CMR17-33" transform="translate(145.621947 36.153639) scale(0.697382)"/>
                        <use xlink:href="#CMR17-30" transform="translate(177.605129 36.153639) scale(0.697382)"/>
                        <use xlink:href="#CMR17-30" transform="translate(209.588311 36.153639) scale(0.697382)"/>
                    </g>
                </g>
            </g>
            <g id="xtick_16">
                <g id="line2d_19">
                    <path d="M 295.25304 209.177299
L 298.8496 210.22011 
" style="fill: none; stroke: #000000; stroke-width: 0.8; stroke-linecap: square"/>
                </g>
                <g id="text_18">
                    <!-- $\mathdefault{10^{-262}}$ -->
                    <g transform="translate(300.663995 213.84213) scale(0.1 -0.1)">
                        <defs>
                            <path id="CMR17-36" d="M 678 2198
C 678 3712 1395 4076 1811 4076 
C 1946 4076 2272 4049 2400 3782 
C 2298 3782 2106 3782 2106 3558 
C 2106 3385 2246 3328 2336 3328 
C 2394 3328 2566 3353 2566 3571 
C 2566 3987 2246 4224 1805 4224 
C 1043 4224 243 3411 243 2011 
C 243 257 966 -128 1478 -128 
C 2099 -128 2688 431 2688 1295 
C 2688 2101 2170 2688 1517 2688 
C 1126 2688 838 2430 678 1979 
L 678 2198 
z
M 1478 25 
C 691 25 691 1212 691 1450 
C 691 1914 909 2585 1504 2585 
C 1613 2585 1926 2585 2138 2140 
C 2253 1889 2253 1624 2253 1302 
C 2253 954 2253 696 2118 438 
C 1978 173 1773 25 1478 25 
z
" transform="scale(0.015625)"/>
                        </defs>
                        <use xlink:href="#CMR17-31" transform="scale(0.996264)"/>
                        <use xlink:href="#CMR17-30" transform="translate(45.690477 0) scale(0.996264)"/>
                        <use xlink:href="#CMSY10-0" transform="translate(91.380954 36.153639) scale(0.697382)"/>
                        <use xlink:href="#CMR17-32" transform="translate(145.621947 36.153639) scale(0.697382)"/>
                        <use xlink:href="#CMR17-36" transform="translate(177.605129 36.153639) scale(0.697382)"/>
                        <use xlink:href="#CMR17-32" transform="translate(209.588311 36.153639) scale(0.697382)"/>
                    </g>
                </g>
            </g>
            <g id="xtick_17">
                <g id="line2d_20">
                    <path d="M 295.25304 209.177299
L 298.8496 210.22011 
" style="fill: none; stroke: #000000; stroke-width: 0.8; stroke-linecap: square"/>
                </g>
                <g id="text_19">
                    <!-- $\mathdefault{10^{-224}}$ -->
                    <g transform="translate(300.663995 213.84213) scale(0.1 -0.1)">
                        <defs>
                            <path id="CMR17-34" d="M 2150 4147
C 2150 4281 2144 4288 2029 4288 
L 128 1254 
L 128 1088 
L 1779 1088 
L 1779 460 
C 1779 230 1766 166 1318 166 
L 1197 166 
L 1197 0 
C 1402 12 1747 12 1965 12 
C 2182 12 2528 12 2733 0 
L 2733 166 
L 2611 166 
C 2163 166 2150 230 2150 460 
L 2150 1088 
L 2803 1088 
L 2803 1254 
L 2150 1254 
L 2150 4147 
z
M 1798 3723 
L 1798 1254 
L 256 1254 
L 1798 3723 
z
" transform="scale(0.015625)"/>
                        </defs>
                        <use xlink:href="#CMR17-31" transform="scale(0.996264)"/>
                        <use xlink:href="#CMR17-30" transform="translate(45.690477 0) scale(0.996264)"/>
                        <use xlink:href="#CMSY10-0" transform="translate(91.380954 36.153639) scale(0.697382)"/>
                        <use xlink:href="#CMR17-32" transform="translate(145.621947 36.153639) scale(0.697382)"/>
                        <use xlink:href="#CMR17-32" transform="translate(177.605129 36.153639) scale(0.697382)"/>
                        <use xlink:href="#CMR17-34" transform="translate(209.588311 36.153639) scale(0.697382)"/>
                    </g>
                </g>
            </g>
            <g id="xtick_18">
                <g id="line2d_21">
                    <path d="M 295.25304 209.177299
L 298.8496 210.22011 
" style="fill: none; stroke: #000000; stroke-width: 0.8; stroke-linecap: square"/>
                </g>
                <g id="text_20">
                    <!-- $\mathdefault{10^{-186}}$ -->
                    <g transform="translate(300.663995 213.84213) scale(0.1 -0.1)">
                        <defs>
                            <path id="CMR17-38" d="M 1741 2289
C 2144 2494 2554 2803 2554 3298 
C 2554 3884 1990 4224 1472 4224 
C 890 4224 378 3800 378 3215 
C 378 3054 416 2777 666 2533 
C 730 2469 998 2276 1171 2154 
C 883 2006 211 1652 211 945 
C 211 282 838 -128 1459 -128 
C 2144 -128 2720 366 2720 1022 
C 2720 1607 2330 1877 2074 2051 
L 1741 2289 
z
M 902 2855 
C 851 2887 595 3086 595 3388 
C 595 3781 998 4076 1459 4076 
C 1965 4076 2336 3716 2336 3298 
C 2336 2700 1670 2359 1638 2359 
C 1632 2359 1626 2359 1574 2398 
L 902 2855 
z
M 2080 1536 
C 2176 1466 2483 1253 2483 861 
C 2483 385 2010 25 1472 25 
C 890 25 448 443 448 951 
C 448 1459 838 1884 1280 2083 
L 2080 1536 
z
" transform="scale(0.015625)"/>
                        </defs>
                        <use xlink:href="#CMR17-31" transform="scale(0.996264)"/>
                        <use xlink:href="#CMR17-30" transform="translate(45.690477 0) scale(0.996264)"/>
                        <use xlink:href="#CMSY10-0" transform="translate(91.380954 36.153639) scale(0.697382)"/>
                        <use xlink:href="#CMR17-31" transform="translate(145.621947 36.153639) scale(0.697382)"/>
                        <use xlink:href="#CMR17-38" transform="translate(177.605129 36.153639) scale(0.697382)"/>
                        <use xlink:href="#CMR17-36" transform="translate(209.588311 36.153639) scale(0.697382)"/>
                    </g>
                </g>
            </g>
            <g id="xtick_19">
                <g id="line2d_22">
                    <path d="M 295.25304 209.177299
L 298.8496 210.22011 
" style="fill: none; stroke: #000000; stroke-width: 0.8; stroke-linecap: square"/>
                </g>
                <g id="text_21">
                    <!-- $\mathdefault{10^{-148}}$ -->
                    <g transform="translate(300.663995 213.84213) scale(0.1 -0.1)">
                        <use xlink:href="#CMR17-31" transform="scale(0.996264)"/>
                        <use xlink:href="#CMR17-30" transform="translate(45.690477 0) scale(0.996264)"/>
                        <use xlink:href="#CMSY10-0" transform="translate(91.380954 36.153639) scale(0.697382)"/>
                        <use xlink:href="#CMR17-31" transform="translate(145.621947 36.153639) scale(0.697382)"/>
                        <use xlink:href="#CMR17-34" transform="translate(177.605129 36.153639) scale(0.697382)"/>
                        <use xlink:href="#CMR17-38" transform="translate(209.588311 36.153639) scale(0.697382)"/>
                    </g>
                </g>
            </g>
            <g id="xtick_20">
                <g id="line2d_23">
                    <path d="M 295.25304 209.177299
L 298.8496 210.22011 
" style="fill: none; stroke: #000000; stroke-width: 0.8; stroke-linecap: square"/>
                </g>
                <g id="text_22">
                    <!-- $\mathdefault{10^{-110}}$ -->
                    <g transform="translate(300.663995 213.84213) scale(0.1 -0.1)">
                        <use xlink:href="#CMR17-31" transform="scale(0.996264)"/>
                        <use xlink:href="#CMR17-30" transform="translate(45.690477 0) scale(0.996264)"/>
                        <use xlink:href="#CMSY10-0" transform="translate(91.380954 36.153639) scale(0.697382)"/>
                        <use xlink:href="#CMR17-31" transform="translate(145.621947 36.153639) scale(0.697382)"/>
                        <use xlink:href="#CMR17-31" transform="translate(177.605129 36.153639) scale(0.697382)"/>
                        <use xlink:href="#CMR17-30" transform="translate(209.588311 36.153639) scale(0.697382)"/>
                    </g>
                </g>
            </g>
            <g id="xtick_21">
                <g id="line2d_24">
                    <path d="M 295.25304 209.177299
L 298.8496 210.22011 
" style="fill: none; stroke: #000000; stroke-width: 0.8; stroke-linecap: square"/>
                </g>
                <g id="text_23">
                    <!-- $\mathdefault{10^{-72}}$ -->
                    <g transform="translate(302.649613 213.84213) scale(0.1 -0.1)">
                        <defs>
                            <path id="CMR17-37" d="M 2886 3955
L 2886 4096 
L 1382 4096 
C 634 4096 621 4166 595 4288 
L 480 4288 
L 294 3104 
L 410 3104 
C 429 3226 474 3552 550 3673 
C 589 3724 1062 3724 1171 3724 
L 2579 3724 
L 1869 2670 
C 1395 1961 1069 1003 1069 166 
C 1069 89 1069 -128 1299 -128 
C 1530 -128 1530 89 1530 172 
L 1530 466 
C 1530 1514 1709 2204 2003 2644 
L 2886 3955 
z
" transform="scale(0.015625)"/>
                        </defs>
                        <use xlink:href="#CMR17-31" transform="scale(0.996264)"/>
                        <use xlink:href="#CMR17-30" transform="translate(45.690477 0) scale(0.996264)"/>
                        <use xlink:href="#CMSY10-0" transform="translate(91.380954 36.153639) scale(0.697382)"/>
                        <use xlink:href="#CMR17-37" transform="translate(145.621947 36.153639) scale(0.697382)"/>
                        <use xlink:href="#CMR17-32" transform="translate(177.605129 36.153639) scale(0.697382)"/>
                    </g>
                </g>
            </g>
            <g id="xtick_22">
                <g id="line2d_25">
                    <path d="M 295.25304 209.177299
L 298.8496 210.22011 
" style="fill: none; stroke: #000000; stroke-width: 0.8; stroke-linecap: square"/>
                </g>
                <g id="text_24">
                    <!-- $\mathdefault{10^{-34}}$ -->
                    <g transform="translate(302.649613 213.84213) scale(0.1 -0.1)">
                        <use xlink:href="#CMR17-31" transform="scale(0.996264)"/>
                        <use xlink:href="#CMR17-30" transform="translate(45.690477 0) scale(0.996264)"/>
                        <use xlink:href="#CMSY10-0" transform="translate(91.380954 36.153639) scale(0.697382)"/>
                        <use xlink:href="#CMR17-33" transform="translate(145.621947 36.153639) scale(0.697382)"/>
                        <use xlink:href="#CMR17-34" transform="translate(177.605129 36.153639) scale(0.697382)"/>
                    </g>
                </g>
            </g>
            <g id="text_25">
                <!-- Cost Value -->
                <g transform="translate(340.619069 175.812112) rotate(-87.378092) scale(0.1 -0.1)">
                    <defs>
                        <path id="CMR17-43" d="M 3974 4351
C 3974 4467 3968 4473 3930 4473 
C 3904 4473 3898 4467 3853 4390 
L 3571 3849 
C 3258 4249 2874 4480 2381 4480 
C 1286 4480 294 3507 294 2179 
C 294 837 1286 -128 2387 -128 
C 3366 -128 3974 741 3974 1482 
C 3974 1547 3974 1573 3917 1573 
C 3866 1573 3866 1553 3859 1495 
C 3808 592 3168 38 2477 38 
C 1824 38 781 502 781 2179 
C 781 3862 1843 4313 2464 4313 
C 3187 4313 3712 3681 3834 2785 
C 3846 2707 3846 2695 3904 2695 
C 3974 2695 3974 2707 3974 2824 
L 3974 4351 
z
" transform="scale(0.015625)"/>
                        <path id="CMR17-6f" d="M 2758 1356
C 2758 2176 2163 2816 1466 2816 
C 768 2816 173 2176 173 1356 
C 173 550 768 -64 1466 -64 
C 2163 -64 2758 550 2758 1356 
z
M 1466 51 
C 1165 51 909 230 762 480 
C 602 768 582 1126 582 1408 
C 582 1676 595 2009 762 2297 
C 890 2508 1139 2713 1466 2713 
C 1754 2713 1997 2553 2150 2329 
C 2349 2028 2349 1606 2349 1408 
C 2349 1158 2336 774 2163 467 
C 1984 172 1709 51 1466 51 
z
" transform="scale(0.015625)"/>
                        <path id="CMR17-73" d="M 1978 2688
C 1978 2803 1971 2809 1933 2809 
C 1907 2809 1901 2803 1824 2707 
C 1805 2681 1747 2617 1728 2592 
C 1523 2809 1235 2816 1126 2816 
C 416 2816 160 2444 160 2073 
C 160 1497 813 1363 998 1324 
C 1402 1241 1542 1216 1677 1100 
C 1760 1024 1901 883 1901 652 
C 1901 384 1747 38 1158 38 
C 602 38 403 460 288 1024 
C 269 1113 269 1120 218 1120 
C 166 1120 160 1113 160 985 
L 160 64 
C 160 -52 166 -58 205 -58 
C 237 -58 243 -52 275 0 
C 314 57 410 211 448 275 
C 576 102 800 -64 1158 -64 
C 1792 -64 2131 281 2131 780 
C 2131 1107 1958 1280 1875 1356 
C 1683 1555 1459 1600 1190 1651 
C 838 1728 390 1817 390 2208 
C 390 2374 480 2726 1126 2726 
C 1811 2726 1850 2086 1862 1881 
C 1869 1849 1901 1843 1920 1843 
C 1978 1843 1978 1862 1978 1971 
L 1978 2688 
z
" transform="scale(0.015625)"/>
                        <path id="CMR17-74" d="M 966 2585
L 1862 2585 
L 1862 2752 
L 966 2752 
L 966 3968 
L 851 3968 
C 838 3292 614 2700 70 2687 
L 70 2585 
L 627 2585 
L 627 778 
C 627 655 627 -64 1370 -64 
C 1747 -64 1965 308 1965 784 
L 1965 1151 
L 1850 1151 
L 1850 790 
C 1850 347 1677 51 1408 51 
C 1222 51 966 179 966 765 
L 966 2585 
z
" transform="scale(0.015625)"/>
                        <path id="CMR17-56" d="M 3776 3762
C 3834 3903 3936 4179 4365 4185 
L 4365 4352 
C 4218 4339 4051 4339 3891 4339 
C 3738 4339 3475 4339 3328 4352 
L 3328 4185 
C 3648 4166 3661 3942 3661 3903 
C 3661 3833 3642 3788 3622 3737 
L 2362 448 
L 1043 3903 
C 1024 3948 1011 3980 1011 4012 
C 1011 4185 1267 4185 1402 4185 
L 1402 4352 
C 1197 4339 896 4339 685 4339 
C 518 4339 218 4339 64 4352 
L 64 4185 
C 435 4185 506 4160 582 3955 
L 2106 -26 
C 2138 -116 2144 -128 2214 -128 
C 2285 -128 2291 -116 2323 -26 
L 3776 3762 
z
" transform="scale(0.015625)"/>
                        <path id="CMR17-61" d="M 2304 1656
C 2304 2048 2304 2275 2035 2534 
C 1798 2751 1523 2816 1306 2816 
C 800 2816 435 2408 435 1977 
C 435 1740 627 1728 666 1728 
C 749 1728 896 1779 896 1958 
C 896 2118 774 2188 666 2188 
C 640 2188 608 2182 589 2176 
C 723 2594 1069 2713 1293 2713 
C 1613 2713 1965 2421 1965 1875 
L 1965 1632 
C 1587 1619 1133 1568 774 1373 
C 371 1147 256 822 256 576 
C 256 77 832 -64 1171 -64 
C 1523 -64 1850 135 1990 505 
C 2003 219 2182 -39 2464 -39 
C 2598 -39 2938 51 2938 563 
L 2938 926 
L 2822 926 
L 2822 557 
C 2822 161 2650 109 2566 109 
C 2304 109 2304 446 2304 732 
L 2304 1656 
z
M 1965 887 
C 1965 323 1568 38 1216 38 
C 896 38 646 278 646 576 
C 646 771 730 1114 1101 1322 
C 1408 1497 1760 1523 1965 1536 
L 1965 887 
z
" transform="scale(0.015625)"/>
                        <path id="CMR17-6c" d="M 979 4416
L 218 4345 
L 218 4179 
C 595 4179 653 4141 653 3835 
L 653 439 
C 653 198 627 166 218 166 
L 218 0 
C 371 12 653 12 813 12 
C 979 12 1261 12 1414 0 
L 1414 166 
C 1005 166 979 191 979 439 
L 979 4416 
z
" transform="scale(0.015625)"/>
                        <path id="CMR17-75" d="M 1882 2745
L 1882 2579 
C 2259 2579 2317 2540 2317 2229 
L 2317 1053 
C 2317 510 2029 38 1555 38 
C 1030 38 986 355 986 691 
L 986 2816 
L 211 2745 
L 211 2579 
C 467 2579 640 2579 646 2320 
L 646 1079 
C 646 646 646 368 813 187 
C 896 103 1056 -64 1517 -64 
C 2061 -64 2272 400 2323 536 
L 2330 536 
L 2330 -64 
L 3091 -13 
L 3091 154 
C 2714 154 2656 193 2656 503 
L 2656 2816 
L 1882 2745 
z
" transform="scale(0.015625)"/>
                        <path id="CMR17-65" d="M 2438 1503
C 2464 1529 2464 1542 2464 1606 
C 2464 2251 2118 2816 1389 2816 
C 710 2816 173 2175 173 1394 
C 173 554 781 -64 1459 -64 
C 2176 -64 2458 619 2458 755 
C 2458 800 2419 800 2406 800 
C 2362 800 2355 787 2330 709 
C 2189 270 1837 51 1504 51 
C 1229 51 954 206 781 490 
C 582 819 582 1200 582 1503 
L 2438 1503 
z
M 589 1600 
C 634 2511 1126 2713 1382 2713 
C 1818 2713 2112 2308 2118 1600 
L 589 1600 
z
" transform="scale(0.015625)"/>
                    </defs>
                    <use xlink:href="#CMR17-43" transform="scale(0.996264)"/>
                    <use xlink:href="#CMR17-6f" transform="translate(66.509881 0) scale(0.996264)"/>
                    <use xlink:href="#CMR17-73" transform="translate(112.200358 0) scale(0.996264)"/>
                    <use xlink:href="#CMR17-74" transform="translate(148.001695 0) scale(0.996264)"/>
                    <use xlink:href="#CMR17-56" transform="translate(213.358429 0) scale(0.996264)"/>
                    <use xlink:href="#CMR17-61" transform="translate(274.623604 0) scale(0.996264)"/>
                    <use xlink:href="#CMR17-6c" transform="translate(320.314081 0) scale(0.996264)"/>
                    <use xlink:href="#CMR17-75" transform="translate(345.185139 0) scale(0.996264)"/>
                    <use xlink:href="#CMR17-65" transform="translate(396.080509 0) scale(0.996264)"/>
                </g>
            </g>
        </g>
        <g id="axes_1">
            <g id="Poly3DCollection_1">
                <path d="M 163.320599 187.170139
L 148.176877 182.693389 
L 157.210719 175.049676 
L 172.264678 179.445971 
z
" clip-path="url(#p77c659fcd0)" style="fill: #175417; fill-opacity: 0.2; stroke: #000000; stroke-opacity: 0.2"/>
                <path d="M 148.176877 182.693389
L 257.642823 215.04728 
L 265.995767 206.812347 
L 157.210719 175.049676 
z
" clip-path="url(#p77c659fcd0)" style="fill: #289328; fill-opacity: 0.2; stroke: #000000; stroke-opacity: 0.2"/>
                <path d="M 257.642823 215.04728
L 273.965137 219.870058 
L 282.210192 211.544909 
L 265.995767 206.812347 
z
" clip-path="url(#p77c659fcd0)" style="fill: #2c9e2c; fill-opacity: 0.2; stroke: #000000; stroke-opacity: 0.2"/>
                <path d="M 95.83006 245.443219
L 80.036478 240.33552 
L 148.176877 182.693389 
L 163.320599 187.170139 
z
" clip-path="url(#p77c659fcd0)" style="fill: #248324; fill-opacity: 0.2; stroke: #000000; stroke-opacity: 0.2"/>
                <path d="M 80.036478 240.33552
L 194.454219 277.3292 
L 257.642823 215.04728 
L 148.176877 182.693389 
z
" clip-path="url(#p77c659fcd0)" style="fill: #1e6c1e; fill-opacity: 0.2; stroke: #000000; stroke-opacity: 0.2"/>
                <path d="M 106.030021 236.637843
L 90.331548 231.628313 
L 80.036478 240.33552 
L 95.83006 245.443219 
z
" clip-path="url(#p77c659fcd0)" style="fill: #124312; fill-opacity: 0.2; stroke: #000000; stroke-opacity: 0.2"/>
                <path d="M 194.454219 277.3292
L 211.565606 282.860321 
L 273.965137 219.870058 
L 257.642823 215.04728 
z
" clip-path="url(#p77c659fcd0)" style="fill: #278c27; fill-opacity: 0.2; stroke: #000000; stroke-opacity: 0.2"/>
                <path d="M 90.331548 231.628313
L 204.02204 267.899911 
L 194.454219 277.3292 
L 80.036478 240.33552 
z
" clip-path="url(#p77c659fcd0)" style="fill: #217821; fill-opacity: 0.2; stroke: #000000; stroke-opacity: 0.2"/>
                <path d="M 204.02204 267.899911
L 221.017033 273.320702 
L 211.565606 282.860321 
L 194.454219 277.3292 
z
" clip-path="url(#p77c659fcd0)" style="fill: #1a601a; fill-opacity: 0.2; stroke: #000000; stroke-opacity: 0.2"/>
            </g>
            <g id="Path3DCollection_1">
                <defs>
                    <path id="C0_0_261fd4e075" d="M 0 3.535534
C 0.937635 3.535534 1.836992 3.163008 2.5 2.5 
C 3.163008 1.836992 3.535534 0.937635 3.535534 -0 
C 3.535534 -0.937635 3.163008 -1.836992 2.5 -2.5 
C 1.836992 -3.163008 0.937635 -3.535534 0 -3.535534 
C -0.937635 -3.535534 -1.836992 -3.163008 -2.5 -2.5 
C -3.163008 -1.836992 -3.535534 -0.937635 -3.535534 0 
C -3.535534 0.937635 -3.163008 1.836992 -2.5 2.5 
C -1.836992 3.163008 -0.937635 3.535534 0 3.535534 
z
"/>
                </defs>
                <g clip-path="url(#p77c659fcd0)">
                    <use xlink:href="#C0_0_261fd4e075" x="157.210719" y="175.049676"
                         style="fill: #0f360f; fill-opacity: 0.3; stroke: #0f360f; stroke-opacity: 0.3"/>
                </g>
                <g clip-path="url(#p77c659fcd0)">
                    <use xlink:href="#C0_0_261fd4e075" x="172.264678" y="179.445971"
                         style="fill: #092209; fill-opacity: 0.328539; stroke: #092209; stroke-opacity: 0.328539"/>
                </g>
                <g clip-path="url(#p77c659fcd0)">
                    <use xlink:href="#C0_0_261fd4e075" x="148.176877" y="182.693389"
                         style="fill: #061706; fill-opacity: 0.34962; stroke: #061706; stroke-opacity: 0.34962"/>
                </g>
                <g clip-path="url(#p77c659fcd0)">
                    <use xlink:href="#C0_0_261fd4e075" x="163.320599" y="187.170139"
                         style="fill-opacity: 0.378681; stroke: #000000; stroke-opacity: 0.378681"/>
                </g>
                <g clip-path="url(#p77c659fcd0)">
                    <use xlink:href="#C0_0_261fd4e075" x="265.995767" y="206.812347"
                         style="fill: #1d681d; fill-opacity: 0.506245; stroke: #1d681d; stroke-opacity: 0.506245"/>
                </g>
                <g clip-path="url(#p77c659fcd0)">
                    <use xlink:href="#C0_0_261fd4e075" x="282.210192" y="211.544909"
                         style="fill: #2ca02c; fill-opacity: 0.53699; stroke: #2ca02c; stroke-opacity: 0.53699"/>
                </g>
                <g clip-path="url(#p77c659fcd0)">
                    <use xlink:href="#C0_0_261fd4e075" x="257.642823" y="215.04728"
                         style="fill: #0c2d0c; fill-opacity: 0.559696; stroke: #0c2d0c; stroke-opacity: 0.559696"/>
                </g>
                <g clip-path="url(#p77c659fcd0)">
                    <use xlink:href="#C0_0_261fd4e075" x="273.965137" y="219.870058"
                         style="fill: #195c19; fill-opacity: 0.591024; stroke: #195c19; stroke-opacity: 0.591024"/>
                </g>
                <g clip-path="url(#p77c659fcd0)">
                    <use xlink:href="#C0_0_261fd4e075" x="90.331548" y="231.628313"
                         style="fill: #195c19; fill-opacity: 0.667369; stroke: #195c19; stroke-opacity: 0.667369"/>
                </g>
                <g clip-path="url(#p77c659fcd0)">
                    <use xlink:href="#C0_0_261fd4e075" x="106.030021" y="236.637843"
                         style="fill: #0c2d0c; fill-opacity: 0.699881; stroke: #0c2d0c; stroke-opacity: 0.699881"/>
                </g>
                <g clip-path="url(#p77c659fcd0)">
                    <use xlink:href="#C0_0_261fd4e075" x="80.036478" y="240.33552"
                         style="fill: #2ca02c; fill-opacity: 0.723924; stroke: #2ca02c; stroke-opacity: 0.723924"/>
                </g>
                <g clip-path="url(#p77c659fcd0)">
                    <use xlink:href="#C0_0_261fd4e075" x="95.83006" y="245.443219"
                         style="fill: #1d681d; fill-opacity: 0.757071; stroke: #1d681d; stroke-opacity: 0.757071"/>
                </g>
                <g clip-path="url(#p77c659fcd0)">
                    <use xlink:href="#C0_0_261fd4e075" x="204.02204" y="267.899911"
                         style="fill-opacity: 0.902847; stroke: #000000; stroke-opacity: 0.902847"/>
                </g>
                <g clip-path="url(#p77c659fcd0)">
                    <use xlink:href="#C0_0_261fd4e075" x="221.017033" y="273.320702"
                         style="fill: #061706; fill-opacity: 0.93805; stroke: #061706; stroke-opacity: 0.93805"/>
                </g>
                <g clip-path="url(#p77c659fcd0)">
                    <use xlink:href="#C0_0_261fd4e075" x="194.454219" y="277.3292"
                         style="fill: #092209; fill-opacity: 0.964081; stroke: #092209; stroke-opacity: 0.964081"/>
                </g>
                <g clip-path="url(#p77c659fcd0)">
                    <use xlink:href="#C0_0_261fd4e075" x="211.565606" y="282.860321"
                         style="fill: #0f360f; stroke: #0f360f"/>
                </g>
            </g>
            <g id="Poly3DCollection_2">
                <path d="M 163.320599 187.170139
L 148.176877 182.693389 
L 157.210719 175.049676 
L 172.264678 179.445971 
z
" clip-path="url(#p77c659fcd0)" style="fill: #103f5f; fill-opacity: 0.2; stroke: #000000; stroke-opacity: 0.2"/>
                <path d="M 148.176877 182.693389
L 257.642823 215.04728 
L 265.995767 206.812347 
L 157.210719 175.049676 
z
" clip-path="url(#p77c659fcd0)" style="fill: #1c6da5; fill-opacity: 0.2; stroke: #000000; stroke-opacity: 0.2"/>
                <path d="M 257.642823 215.04728
L 273.965138 219.870058 
L 282.210192 211.544908 
L 265.995767 206.812347 
z
" clip-path="url(#p77c659fcd0)" style="fill: #1f76b2; fill-opacity: 0.2; stroke: #000000; stroke-opacity: 0.2"/>
                <path d="M 95.83006 245.443219
L 80.036478 240.33552 
L 148.176877 182.693389 
L 163.320599 187.170139 
z
" clip-path="url(#p77c659fcd0)" style="fill: #196193; fill-opacity: 0.2; stroke: #000000; stroke-opacity: 0.2"/>
                <path d="M 80.036478 240.33552
L 194.454219 277.3292 
L 257.642823 215.04728 
L 148.176877 182.693389 
z
" clip-path="url(#p77c659fcd0)" style="fill: #15517a; fill-opacity: 0.2; stroke: #000000; stroke-opacity: 0.2"/>
                <path d="M 106.030021 236.637843
L 90.331548 231.628313 
L 80.036478 240.33552 
L 95.83006 245.443219 
z
" clip-path="url(#p77c659fcd0)" style="fill: #0d324c; fill-opacity: 0.2; stroke: #000000; stroke-opacity: 0.2"/>
                <path d="M 194.454219 277.3292
L 211.565606 282.860321 
L 273.965138 219.870058 
L 257.642823 215.04728 
z
" clip-path="url(#p77c659fcd0)" style="fill: #1b689e; fill-opacity: 0.2; stroke: #000000; stroke-opacity: 0.2"/>
                <path d="M 90.331548 231.628313
L 204.02204 267.899911 
L 194.454219 277.3292 
L 80.036478 240.33552 
z
" clip-path="url(#p77c659fcd0)" style="fill: #175a87; fill-opacity: 0.2; stroke: #000000; stroke-opacity: 0.2"/>
                <path d="M 204.02204 267.899911
L 221.017033 273.320702 
L 211.565606 282.860321 
L 194.454219 277.3292 
z
" clip-path="url(#p77c659fcd0)" style="fill: #13476c; fill-opacity: 0.2; stroke: #000000; stroke-opacity: 0.2"/>
            </g>
            <g id="legend_1">
                <g id="patch_6">
                    <path d="M 52.960656 104.303068
L 121.118814 104.303068 
Q 123.518814 104.303068 123.518814 101.903068 
L 123.518814 50.339441 
Q 123.518814 47.939441 121.118814 47.939441 
L 52.960656 47.939441 
Q 50.560656 47.939441 50.560656 50.339441 
L 50.560656 101.903068 
Q 50.560656 104.303068 52.960656 104.303068 
z
" style="fill: #ffffff; opacity: 0.8; stroke: #cccccc; stroke-linejoin: miter"/>
                </g>
                <g id="patch_7">
                    <path d="M 55.360656 63.729281
L 79.360656 63.729281 
L 79.360656 55.329281 
L 55.360656 55.329281 
z
" style="fill: #103f5f; fill-opacity: 0.2; stroke: #000000; stroke-opacity: 0.2; stroke-linejoin: miter"/>
                </g>
                <g id="text_26">
                    <!-- $J^{[\hat{\mu}_N]}_{\infty}$ -->
                    <g transform="translate(88.960656 63.729281) scale(0.12 -0.12)">
                        <defs>
                            <path id="CMMI12-4a" d="M 3418 3911
C 3469 4102 3482 4166 3795 4166 
C 3898 4166 3962 4166 3962 4281 
C 3962 4352 3904 4352 3878 4352 
C 3770 4352 3648 4339 3533 4339 
L 3181 4339 
C 2912 4339 2630 4352 2362 4352 
C 2304 4352 2227 4352 2227 4236 
C 2227 4172 2278 4172 2278 4166 
L 2438 4166 
C 2950 4166 2950 4115 2950 4019 
C 2950 4013 2950 3968 2925 3866 
L 2189 953 
C 2022 304 1594 0 1286 0 
C 1069 0 762 99 685 428 
C 710 422 742 415 768 415 
C 979 415 1146 601 1146 787 
C 1146 889 1082 1024 890 1024 
C 774 1024 506 959 506 543 
C 506 149 838 -128 1299 -128 
C 1882 -128 2509 304 2662 908 
L 3418 3911 
z
" transform="scale(0.015625)"/>
                            <path id="CMR17-5b" d="M 1504 -1600
L 1504 -1376 
L 902 -1376 
L 902 4575 
L 1504 4575 
L 1504 4800 
L 678 4800 
L 678 -1600 
L 1504 -1600 
z
" transform="scale(0.015625)"/>
                            <path id="CMR17-5e" d="M 1466 4416
L 678 3532 
L 755 3456 
L 1466 4159 
L 2176 3456 
L 2253 3532 
L 1466 4416 
z
" transform="scale(0.015625)"/>
                            <path id="CMMI12-16" d="M 922 140
C 1082 -7 1318 -64 1536 -64 
C 1946 -64 2227 210 2374 408 
C 2438 70 2707 -64 2931 -64 
C 3123 -64 3277 51 3392 281 
C 3494 498 3584 887 3584 913 
C 3584 944 3558 970 3520 970 
C 3462 970 3456 938 3430 842 
C 3334 466 3213 64 2950 64 
C 2765 64 2752 229 2752 357 
C 2752 504 2810 734 2854 925 
L 3034 1615 
C 3059 1736 3130 2023 3162 2138 
C 3200 2291 3270 2566 3270 2591 
C 3270 2687 3194 2752 3098 2752 
C 3040 2752 2906 2726 2854 2534 
L 2406 759 
C 2374 632 2374 619 2291 517 
C 2214 408 1965 64 1562 64 
C 1203 64 1088 325 1088 625 
C 1088 811 1146 1034 1171 1143 
L 1459 2292 
C 1491 2413 1542 2617 1542 2656 
C 1542 2758 1459 2816 1376 2816 
C 1318 2816 1178 2796 1126 2592 
L 198 -1085 
C 192 -1116 179 -1154 179 -1191 
C 179 -1287 256 -1351 352 -1351 
C 538 -1351 576 -1204 621 -1029 
L 922 140 
z
" transform="scale(0.015625)"/>
                            <path id="CMMI12-4e" d="M 4736 3682
C 4806 3956 4909 4147 5395 4166 
C 5414 4166 5491 4172 5491 4281 
C 5491 4352 5434 4352 5408 4352 
C 5280 4352 4954 4339 4826 4339 
L 4518 4339 
C 4429 4339 4314 4352 4224 4352 
C 4186 4352 4109 4352 4109 4230 
C 4109 4166 4160 4166 4205 4166 
C 4589 4153 4614 4007 4614 3892 
C 4614 3835 4608 3816 4589 3726 
L 3866 854 
L 2496 4243 
C 2451 4345 2445 4352 2304 4352 
L 1523 4352 
C 1395 4352 1338 4352 1338 4230 
C 1338 4166 1382 4166 1504 4166 
C 1536 4166 1914 4166 1914 4109 
C 1914 4096 1901 4045 1894 4026 
L 1043 650 
C 966 338 813 204 390 185 
C 358 185 294 179 294 64 
C 294 0 358 0 378 0 
C 506 0 832 12 960 12 
L 1267 12 
C 1357 12 1466 0 1555 0 
C 1600 0 1670 0 1670 121 
C 1670 179 1606 185 1581 185 
C 1370 191 1165 230 1165 459 
C 1165 510 1178 567 1190 618 
L 2054 4026 
C 2093 3962 2093 3949 2118 3892 
L 3642 115 
C 3674 38 3686 0 3744 0 
C 3808 0 3814 19 3840 128 
L 4736 3682 
z
" transform="scale(0.015625)"/>
                            <path id="CMR17-5d" d="M 915 4800
L 90 4800 
L 90 4575 
L 691 4575 
L 691 -1376 
L 90 -1376 
L 90 -1600 
L 915 -1600 
L 915 4800 
z
" transform="scale(0.015625)"/>
                            <path id="CMSY10-31" d="M 3251 1736
C 2906 2170 2829 2266 2630 2426 
C 2272 2713 1914 2828 1587 2828 
C 838 2828 352 2126 352 1379 
C 352 645 826 -64 1562 -64 
C 2298 -64 2829 517 3142 1028 
C 3488 594 3565 498 3763 338 
C 4122 51 4480 -64 4806 -64 
C 5555 -64 6042 638 6042 1385 
C 6042 2119 5568 2828 4832 2828 
C 4096 2828 3565 2247 3251 1736 
z
M 3418 1519 
C 3680 1979 4154 2624 4877 2624 
C 5555 2624 5901 1960 5901 1385 
C 5901 760 5472 242 4909 242 
C 4538 242 4250 511 4115 645 
C 3955 817 3808 1015 3418 1519 
z
M 2976 1245 
C 2714 785 2240 140 1517 140 
C 838 140 493 804 493 1379 
C 493 2004 922 2521 1485 2521 
C 1856 2521 2144 2253 2278 2119 
C 2438 1947 2586 1749 2976 1245 
z
" transform="scale(0.015625)"/>
                        </defs>
                        <use xlink:href="#CMMI12-4a" transform="scale(0.996264)"/>
                        <use xlink:href="#CMR17-5b" transform="translate(63.142671 51.691943) scale(0.697382)"/>
                        <use xlink:href="#CMR17-5e" transform="translate(86.999436 51.696473) scale(0.697382)"/>
                        <use xlink:href="#CMMI12-16" transform="translate(80.552329 51.691943) scale(0.697382)"/>
                        <use xlink:href="#CMMI12-4e" transform="translate(121.636134 41.231247) scale(0.498132)"/>
                        <use xlink:href="#CMR17-5d" transform="translate(166.395153 51.691943) scale(0.697382)"/>
                        <use xlink:href="#CMSY10-31" transform="translate(53.917955 -11.650205) scale(0.697382)"/>
                    </g>
                </g>
                <g id="patch_8">
                    <path d="M 55.360656 80.453876
L 79.360656 80.453876 
L 79.360656 72.053876 
L 55.360656 72.053876 
z
" style="fill: #a25109; fill-opacity: 0.2; stroke: #000000; stroke-opacity: 0.2; stroke-linejoin: miter"/>
                </g>
                <g id="text_27">
                    <!-- $J_{\mathrm{bound}}$ -->
                    <g transform="translate(88.960656 80.453876) scale(0.12 -0.12)">
                        <defs>
                            <path id="CMR17-62" d="M 960 4416
L 198 4345 
L 198 4179 
C 576 4179 634 4141 634 3843 
L 634 -13 
L 749 -13 
L 934 445 
C 1120 141 1395 -64 1766 -64 
C 2406 -64 3053 503 3053 1382 
C 3053 2209 2477 2816 1830 2816 
C 1434 2816 1152 2603 960 2351 
L 960 4416 
z
M 973 2022 
C 973 2138 973 2157 1062 2293 
C 1312 2681 1670 2713 1792 2713 
C 1984 2713 2643 2610 2643 1388 
C 2643 109 1888 38 1734 38 
C 1536 38 1248 115 1043 490 
C 973 613 973 626 973 742 
L 973 2022 
z
" transform="scale(0.015625)"/>
                            <path id="CMR17-6e" d="M 2656 1954
C 2656 2282 2592 2816 1837 2816 
C 1331 2816 1069 2424 973 2166 
L 966 2166 
L 966 2816 
L 211 2745 
L 211 2578 
C 589 2578 646 2540 646 2231 
L 646 443 
C 646 198 621 166 211 166 
L 211 0 
C 365 12 646 12 813 12 
C 979 12 1267 12 1421 0 
L 1421 166 
C 1011 166 986 192 986 443 
L 986 1678 
C 986 2269 1344 2713 1792 2713 
C 2266 2713 2317 2289 2317 1980 
L 2317 443 
C 2317 198 2291 166 1882 166 
L 1882 0 
C 2035 12 2317 12 2483 12 
C 2650 12 2938 12 3091 0 
L 3091 166 
C 2682 166 2656 192 2656 443 
L 2656 1954 
z
" transform="scale(0.015625)"/>
                            <path id="CMR17-64" d="M 1869 4345
L 1869 4179 
C 2246 4179 2304 4141 2304 3843 
L 2304 2371 
C 2278 2403 2016 2816 1498 2816 
C 845 2816 211 2228 211 1376 
C 211 529 806 -64 1434 -64 
C 1978 -64 2259 361 2291 406 
L 2291 -64 
L 3066 -13 
L 3066 154 
C 2688 154 2630 193 2630 503 
L 2630 4416 
L 1869 4345 
z
M 2291 762 
C 2291 568 2176 393 2029 264 
C 1811 70 1594 38 1472 38 
C 1286 38 621 135 621 1369 
C 621 2636 1363 2713 1530 2713 
C 1824 2713 2061 2545 2208 2313 
C 2291 2177 2291 2157 2291 2041 
L 2291 762 
z
" transform="scale(0.015625)"/>
                        </defs>
                        <use xlink:href="#CMMI12-4a" transform="scale(0.996264)"/>
                        <use xlink:href="#CMR17-62" transform="translate(53.917955 -14.943915) scale(0.697382)"/>
                        <use xlink:href="#CMR17-6f" transform="translate(91.366269 -14.943915) scale(0.697382)"/>
                        <use xlink:href="#CMR17-75" transform="translate(123.349451 -14.943915) scale(0.697382)"/>
                        <use xlink:href="#CMR17-6e" transform="translate(158.97606 -14.943915) scale(0.697382)"/>
                        <use xlink:href="#CMR17-64" transform="translate(194.602668 -14.943915) scale(0.697382)"/>
                    </g>
                </g>
                <g id="patch_9">
                    <path d="M 55.360656 97.178472
L 79.360656 97.178472 
L 79.360656 88.778472 
L 55.360656 88.778472 
z
" style="fill: #175417; fill-opacity: 0.2; stroke: #000000; stroke-opacity: 0.2; stroke-linejoin: miter"/>
                </g>
                <g id="text_28">
                    <!-- $V_{\infty}$ -->
                    <g transform="translate(88.960656 97.178472) scale(0.12 -0.12)">
                        <defs>
                            <path id="CMMI12-56" d="M 3962 3644
C 4179 3987 4378 4140 4704 4166 
C 4768 4172 4819 4172 4819 4287 
C 4819 4313 4806 4352 4749 4352 
C 4634 4352 4358 4339 4243 4339 
C 4058 4339 3866 4352 3686 4352 
C 3635 4352 3571 4352 3571 4230 
C 3571 4172 3629 4166 3654 4166 
C 3891 4146 3917 4032 3917 3956 
C 3917 3860 3827 3714 3821 3708 
L 1811 540 
L 1363 3968 
C 1363 4153 1696 4166 1766 4166 
C 1862 4166 1920 4166 1920 4287 
C 1920 4352 1850 4352 1830 4352 
C 1722 4352 1594 4339 1485 4339 
L 1126 4339 
C 659 4339 467 4352 461 4352 
C 422 4352 346 4352 346 4236 
C 346 4166 390 4166 493 4166 
C 819 4166 838 4108 858 3949 
L 1370 25 
C 1389 -109 1389 -128 1478 -128 
C 1555 -128 1587 -109 1651 -7 
L 3962 3644 
z
" transform="scale(0.015625)"/>
                        </defs>
                        <use xlink:href="#CMMI12-56" transform="scale(0.996264)"/>
                        <use xlink:href="#CMSY10-31" transform="translate(56.869579 -14.943915) scale(0.697382)"/>
                    </g>
                </g>
            </g>
            <g id="Path3DCollection_2">
                <defs>
                    <path id="C1_0_677ba597c1" d="M 0 3.535534
C 0.937635 3.535534 1.836992 3.163008 2.5 2.5 
C 3.163008 1.836992 3.535534 0.937635 3.535534 -0 
C 3.535534 -0.937635 3.163008 -1.836992 2.5 -2.5 
C 1.836992 -3.163008 0.937635 -3.535534 0 -3.535534 
C -0.937635 -3.535534 -1.836992 -3.163008 -2.5 -2.5 
C -3.163008 -1.836992 -3.535534 -0.937635 -3.535534 0 
C -3.535534 0.937635 -3.163008 1.836992 -2.5 2.5 
C -1.836992 3.163008 -0.937635 3.535534 0 3.535534 
z
"/>
                </defs>
                <g clip-path="url(#p77c659fcd0)">
                    <use xlink:href="#C1_0_677ba597c1" x="157.210719" y="175.049676"
                         style="fill: #0b293d; fill-opacity: 0.3; stroke: #0b293d; stroke-opacity: 0.3"/>
                </g>
                <g clip-path="url(#p77c659fcd0)">
                    <use xlink:href="#C1_0_677ba597c1" x="172.264678" y="179.445971"
                         style="fill: #071927; fill-opacity: 0.328539; stroke: #071927; stroke-opacity: 0.328539"/>
                </g>
                <g clip-path="url(#p77c659fcd0)">
                    <use xlink:href="#C1_0_677ba597c1" x="148.176877" y="182.693389"
                         style="fill: #041119; fill-opacity: 0.34962; stroke: #041119; stroke-opacity: 0.34962"/>
                </g>
                <g clip-path="url(#p77c659fcd0)">
                    <use xlink:href="#C1_0_677ba597c1" x="163.320599" y="187.170139"
                         style="fill-opacity: 0.378681; stroke: #000000; stroke-opacity: 0.378681"/>
                </g>
                <g clip-path="url(#p77c659fcd0)">
                    <use xlink:href="#C1_0_677ba597c1" x="265.995767" y="206.812347"
                         style="fill: #144d75; fill-opacity: 0.506245; stroke: #144d75; stroke-opacity: 0.506245"/>
                </g>
                <g clip-path="url(#p77c659fcd0)">
                    <use xlink:href="#C1_0_677ba597c1" x="282.210192" y="211.544908"
                         style="fill: #1f77b4; fill-opacity: 0.53699; stroke: #1f77b4; stroke-opacity: 0.53699"/>
                </g>
                <g clip-path="url(#p77c659fcd0)">
                    <use xlink:href="#C1_0_677ba597c1" x="257.642823" y="215.04728"
                         style="fill: #092233; fill-opacity: 0.559696; stroke: #092233; stroke-opacity: 0.559696"/>
                </g>
                <g clip-path="url(#p77c659fcd0)">
                    <use xlink:href="#C1_0_677ba597c1" x="273.965138" y="219.870058"
                         style="fill: #124467; fill-opacity: 0.591024; stroke: #124467; stroke-opacity: 0.591024"/>
                </g>
                <g clip-path="url(#p77c659fcd0)">
                    <use xlink:href="#C1_0_677ba597c1" x="90.331548" y="231.628313"
                         style="fill: #124467; fill-opacity: 0.667369; stroke: #124467; stroke-opacity: 0.667369"/>
                </g>
                <g clip-path="url(#p77c659fcd0)">
                    <use xlink:href="#C1_0_677ba597c1" x="106.030021" y="236.637843"
                         style="fill: #092233; fill-opacity: 0.699881; stroke: #092233; stroke-opacity: 0.699881"/>
                </g>
                <g clip-path="url(#p77c659fcd0)">
                    <use xlink:href="#C1_0_677ba597c1" x="80.036478" y="240.33552"
                         style="fill: #1f77b4; fill-opacity: 0.723924; stroke: #1f77b4; stroke-opacity: 0.723924"/>
                </g>
                <g clip-path="url(#p77c659fcd0)">
                    <use xlink:href="#C1_0_677ba597c1" x="95.83006" y="245.443219"
                         style="fill: #144d75; fill-opacity: 0.757071; stroke: #144d75; stroke-opacity: 0.757071"/>
                </g>
                <g clip-path="url(#p77c659fcd0)">
                    <use xlink:href="#C1_0_677ba597c1" x="204.02204" y="267.899911"
                         style="fill-opacity: 0.902847; stroke: #000000; stroke-opacity: 0.902847"/>
                </g>
                <g clip-path="url(#p77c659fcd0)">
                    <use xlink:href="#C1_0_677ba597c1" x="221.017033" y="273.320702"
                         style="fill: #041119; fill-opacity: 0.93805; stroke: #041119; stroke-opacity: 0.93805"/>
                </g>
                <g clip-path="url(#p77c659fcd0)">
                    <use xlink:href="#C1_0_677ba597c1" x="194.454219" y="277.3292"
                         style="fill: #071927; fill-opacity: 0.964081; stroke: #071927; stroke-opacity: 0.964081"/>
                </g>
                <g clip-path="url(#p77c659fcd0)">
                    <use xlink:href="#C1_0_677ba597c1" x="211.565606" y="282.860321"
                         style="fill: #0b293d; stroke: #0b293d"/>
                </g>
            </g>
            <g id="Poly3DCollection_3">
                <path d="M 162.559813 89.089534
L 146.824694 84.545402 
L 156.216481 77.061529 
L 171.855856 81.494202 
z
" clip-path="url(#p77c659fcd0)" style="fill: #a25109; fill-opacity: 0.2; stroke: #000000; stroke-opacity: 0.2"/>
                <path d="M 146.824694 84.545402
L 260.682478 114.495725 
L 269.36333 106.258704 
L 156.216481 77.061529 
z
" clip-path="url(#p77c659fcd0)" style="fill: #df6f0c; fill-opacity: 0.2; stroke: #000000; stroke-opacity: 0.2"/>
                <path d="M 260.682478 114.495725
L 277.709786 118.362232 
L 286.281243 109.996937 
L 269.36333 106.258704 
z
" clip-path="url(#p77c659fcd0)" style="fill: #fa7c0e; fill-opacity: 0.2; stroke: #000000; stroke-opacity: 0.2"/>
                <path d="M 92.151575 141.890768
L 75.688395 136.537556 
L 146.824694 84.545402 
L 162.559813 89.089534 
z
" clip-path="url(#p77c659fcd0)" style="fill: #ee770d; fill-opacity: 0.2; stroke: #000000; stroke-opacity: 0.2"/>
                <path d="M 75.688395 136.537556
L 194.965366 171.831143 
L 260.682478 114.495725 
L 146.824694 84.545402 
z
" clip-path="url(#p77c659fcd0)" style="fill: #5f2f05; fill-opacity: 0.2; stroke: #000000; stroke-opacity: 0.2"/>
                <path d="M 102.836562 134.421196
L 86.484852 129.208041 
L 75.688395 136.537556 
L 92.151575 141.890768 
z
" clip-path="url(#p77c659fcd0)" style="fill: #522905; fill-opacity: 0.2; stroke: #000000; stroke-opacity: 0.2"/>
                <path d="M 194.965366 171.831143
L 212.837074 176.530141 
L 277.709786 118.362232 
L 260.682478 114.495725 
z
" clip-path="url(#p77c659fcd0)" style="fill: #e0700c; fill-opacity: 0.2; stroke: #000000; stroke-opacity: 0.2"/>
                <path d="M 86.484852 129.208041
L 204.936816 163.622798 
L 194.965366 171.831143 
L 75.688395 136.537556 
z
" clip-path="url(#p77c659fcd0)" style="fill: #ed760d; fill-opacity: 0.2; stroke: #000000; stroke-opacity: 0.2"/>
                <path d="M 204.936816 163.622798
L 222.679983 168.187905 
L 212.837074 176.530141 
L 194.965366 171.831143 
z
" clip-path="url(#p77c659fcd0)" style="fill: #a95409; fill-opacity: 0.2; stroke: #000000; stroke-opacity: 0.2"/>
            </g>
            <g id="Path3DCollection_3">
                <defs>
                    <path id="C2_0_f400202445" d="M 0 3.535534
C 0.937635 3.535534 1.836992 3.163008 2.5 2.5 
C 3.163008 1.836992 3.535534 0.937635 3.535534 -0 
C 3.535534 -0.937635 3.163008 -1.836992 2.5 -2.5 
C 1.836992 -3.163008 0.937635 -3.535534 0 -3.535534 
C -0.937635 -3.535534 -1.836992 -3.163008 -2.5 -2.5 
C -3.163008 -1.836992 -3.535534 -0.937635 -3.535534 0 
C -3.535534 0.937635 -3.163008 1.836992 -2.5 2.5 
C -1.836992 3.163008 -0.937635 3.535534 0 3.535534 
z
"/>
                </defs>
                <g clip-path="url(#p77c659fcd0)">
                    <use xlink:href="#C2_0_f400202445" x="156.216481" y="77.061529"
                         style="fill: #974b08; fill-opacity: 0.3; stroke: #974b08; stroke-opacity: 0.3"/>
                </g>
                <g clip-path="url(#p77c659fcd0)">
                    <use xlink:href="#C2_0_f400202445" x="171.855856" y="81.494202"
                         style="fill: #542a05; fill-opacity: 0.327604; stroke: #542a05; stroke-opacity: 0.327604"/>
                </g>
                <g clip-path="url(#p77c659fcd0)">
                    <use xlink:href="#C2_0_f400202445" x="146.824694" y="84.545402"
                         style="fill: #482404; fill-opacity: 0.34845; stroke: #482404; stroke-opacity: 0.34845"/>
                </g>
                <g clip-path="url(#p77c659fcd0)">
                    <use xlink:href="#C2_0_f400202445" x="162.559813" y="89.089534"
                         style="fill-opacity: 0.376507; stroke: #000000; stroke-opacity: 0.376507"/>
                </g>
                <g clip-path="url(#p77c659fcd0)">
                    <use xlink:href="#C2_0_f400202445" x="269.36333" y="106.258704"
                         style="fill: #984c08; fill-opacity: 0.505528; stroke: #984c08; stroke-opacity: 0.505528"/>
                </g>
                <g clip-path="url(#p77c659fcd0)">
                    <use xlink:href="#C2_0_f400202445" x="286.281243" y="109.996937"
                         style="fill: #ff7f0e; fill-opacity: 0.53753; stroke: #ff7f0e; stroke-opacity: 0.53753"/>
                </g>
                <g clip-path="url(#p77c659fcd0)">
                    <use xlink:href="#C2_0_f400202445" x="260.682478" y="114.495725"
                         style="fill: #2d1602; fill-opacity: 0.557501; stroke: #2d1602; stroke-opacity: 0.557501"/>
                </g>
                <g clip-path="url(#p77c659fcd0)">
                    <use xlink:href="#C2_0_f400202445" x="277.709786" y="118.362232"
                         style="fill: #8c4608; fill-opacity: 0.590026; stroke: #8c4608; stroke-opacity: 0.590026"/>
                </g>
                <g clip-path="url(#p77c659fcd0)">
                    <use xlink:href="#C2_0_f400202445" x="86.484852" y="129.208041"
                         style="fill: #8c4608; fill-opacity: 0.666344; stroke: #8c4608; stroke-opacity: 0.666344"/>
                </g>
                <g clip-path="url(#p77c659fcd0)">
                    <use xlink:href="#C2_0_f400202445" x="102.836562" y="134.421196"
                         style="fill: #2d1602; fill-opacity: 0.697573; stroke: #2d1602; stroke-opacity: 0.697573"/>
                </g>
                <g clip-path="url(#p77c659fcd0)">
                    <use xlink:href="#C2_0_f400202445" x="75.688395" y="136.537556"
                         style="fill: #ff7f0e; fill-opacity: 0.724504; stroke: #ff7f0e; stroke-opacity: 0.724504"/>
                </g>
                <g clip-path="url(#p77c659fcd0)">
                    <use xlink:href="#C2_0_f400202445" x="92.151575" y="141.890768"
                         style="fill: #984c08; fill-opacity: 0.756288; stroke: #984c08; stroke-opacity: 0.756288"/>
                </g>
                <g clip-path="url(#p77c659fcd0)">
                    <use xlink:href="#C2_0_f400202445" x="204.936816" y="163.622798"
                         style="fill-opacity: 0.900225; stroke: #000000; stroke-opacity: 0.900225"/>
                </g>
                <g clip-path="url(#p77c659fcd0)">
                    <use xlink:href="#C2_0_f400202445" x="222.679983" y="168.187905"
                         style="fill: #482404; fill-opacity: 0.936606; stroke: #482404; stroke-opacity: 0.936606"/>
                </g>
                <g clip-path="url(#p77c659fcd0)">
                    <use xlink:href="#C2_0_f400202445" x="194.965366" y="171.831143"
                         style="fill: #542a05; fill-opacity: 0.962908; stroke: #542a05; stroke-opacity: 0.962908"/>
                </g>
                <g clip-path="url(#p77c659fcd0)">
                    <use xlink:href="#C2_0_f400202445" x="212.837074" y="176.530141"
                         style="fill: #974b08; stroke: #974b08"/>
                </g>
            </g>
        </g>
    </g>
    <defs>
        <clipPath id="p77c659fcd0">
            <rect x="44.560656" y="41.939441" width="269.111413" height="269.111413"/>
        </clipPath>
    </defs>
</svg>
