<?xml version="1.0" encoding="utf-8" standalone="no"?>
<!DOCTYPE svg PUBLIC "-//W3C//DTD SVG 1.1//EN"
        "http://www.w3.org/Graphics/SVG/1.1/DTD/svg11.dtd">
<svg xmlns:xlink="http://www.w3.org/1999/xlink" width="698.990683pt" height="216pt" viewBox="0 0 698.990683 216"
     xmlns="http://www.w3.org/2000/svg" version="1.1">
    <metadata>
        <rdf:RDF xmlns:dc="http://purl.org/dc/elements/1.1/" xmlns:cc="http://creativecommons.org/ns#"
                 xmlns:rdf="http://www.w3.org/1999/02/22-rdf-syntax-ns#">
            <cc:Work>
                <dc:type rdf:resource="http://purl.org/dc/dcmitype/StillImage"/>
                <dc:date>2024-05-22T19:10:14.694406</dc:date>
                <dc:format>image/svg+xml</dc:format>
                <dc:creator>
                    <cc:Agent>
                        <dc:title>Matplotlib v3.8.3, https://matplotlib.org/</dc:title>
                    </cc:Agent>
                </dc:creator>
            </cc:Work>
        </rdf:RDF>
    </metadata>
    <defs>
        <style type="text/css">*{stroke-linejoin: round; stroke-linecap: butt}</style>
    </defs>
    <g id="figure_1">
        <g id="patch_1">
            <path d="M 0 216
L 698.990683 216 
L 698.990683 0 
L 0 0 
z
" style="fill: #ffffff"/>
        </g>
        <g id="axes_1">
            <g id="patch_2">
                <path d="M 72.023207 162.317271
L 361.19133 162.317271 
L 361.19133 39.255956 
L 72.023207 39.255956 
z
" style="fill: #f2f2f2"/>
            </g>
            <g id="PolyCollection_1">
                <defs>
                    <path id="me12cb86f94" d="M 85.167213 -60.552035
L 85.167213 -60.111202 
L 114.376114 -60.14968 
L 143.585015 -59.922677 
L 172.793917 -59.869389 
L 202.002818 -59.977246 
L 231.211719 -59.470757 
L 260.42062 -60.090256 
L 289.629522 -60.558506 
L 318.838423 -59.276425 
L 348.047324 -61.599054 
L 348.047324 -108.824821 
L 348.047324 -108.824821 
L 318.838423 -96.123947 
L 289.629522 -85.284766 
L 260.42062 -75.104155 
L 231.211719 -73.015243 
L 202.002818 -68.463866 
L 172.793917 -66.467181 
L 143.585015 -64.522662 
L 114.376114 -62.183148 
L 85.167213 -60.552035 
z
" style="stroke: #4a345e; stroke-opacity: 0.25"/>
                </defs>
                <g clip-path="url(#p06b881991a)">
                    <use xlink:href="#me12cb86f94" x="0" y="216"
                         style="fill: #4a345e; fill-opacity: 0.25; stroke: #4a345e; stroke-opacity: 0.25"/>
                </g>
            </g>
            <g id="PolyCollection_2">
                <defs>
                    <path id="m1a2df7c829" d="M 85.167213 -61.143818
L 85.167213 -60.143872 
L 114.376114 -60.159896 
L 143.585015 -60.147187 
L 172.793917 -60.152831 
L 202.002818 -60.237967 
L 231.211719 -60.160408 
L 260.42062 -60.216894 
L 289.629522 -60.177845 
L 318.838423 -60.336459 
L 348.047324 -60.174964 
L 348.047324 -153.079006 
L 348.047324 -153.079006 
L 318.838423 -171.150348 
L 289.629522 -110.318272 
L 260.42062 -102.959023 
L 231.211719 -89.608019 
L 202.002818 -81.082139 
L 172.793917 -78.47747 
L 143.585015 -71.427104 
L 114.376114 -64.804478 
L 85.167213 -61.143818 
z
" style="stroke: #251a2f; stroke-opacity: 0.125"/>
                </defs>
                <g clip-path="url(#p06b881991a)">
                    <use xlink:href="#m1a2df7c829" x="0" y="216"
                         style="fill: #251a2f; fill-opacity: 0.125; stroke: #251a2f; stroke-opacity: 0.125"/>
                </g>
            </g>
            <g id="matplotlib.axis_1">
                <g id="xtick_1">
                    <g id="line2d_1">
                        <path d="M 114.376114 162.317271
L 114.376114 39.255956 
" clip-path="url(#p06b881991a)" style="fill: none; stroke-dasharray: 3.7,1.6; stroke-dashoffset: 0; stroke: #ffffff"/>
                    </g>
                    <g id="line2d_2">
                        <defs>
                            <path id="me70dc3db32" d="M 0 0
L 0 3.5 
" style="stroke: #000000; stroke-width: 0.8"/>
                        </defs>
                        <g>
                            <use xlink:href="#me70dc3db32" x="114.376114" y="162.317271"
                                 style="stroke: #000000; stroke-width: 0.8"/>
                        </g>
                    </g>
                    <g id="text_1">
                        <!-- $\mathdefault{0.002}$ -->
                        <g transform="translate(95.488796 181.770572) scale(0.18 -0.18)">
                            <defs>
                                <path id="CMR17-30" d="M 2688 2038
C 2688 2430 2682 3099 2413 3613 
C 2176 4063 1798 4224 1466 4224 
C 1158 4224 768 4082 525 3620 
C 269 3137 243 2539 243 2038 
C 243 1671 250 1112 448 623 
C 723 -39 1216 -128 1466 -128 
C 1760 -128 2208 -7 2470 604 
C 2662 1048 2688 1568 2688 2038 
z
M 1466 -26 
C 1056 -26 813 328 723 816 
C 653 1196 653 1749 653 2109 
C 653 2604 653 3015 736 3407 
C 858 3954 1216 4121 1466 4121 
C 1728 4121 2067 3947 2189 3420 
C 2272 3054 2278 2623 2278 2109 
C 2278 1691 2278 1176 2202 797 
C 2067 96 1690 -26 1466 -26 
z
" transform="scale(0.015625)"/>
                                <path id="CMMI12-3a" d="M 1178 307
C 1178 492 1024 620 870 620 
C 685 620 557 467 557 313 
C 557 128 710 0 864 0 
C 1050 0 1178 153 1178 307 
z
" transform="scale(0.015625)"/>
                                <path id="CMR17-32" d="M 2669 990
L 2554 990 
C 2490 537 2438 460 2413 422 
C 2381 371 1920 371 1830 371 
L 602 371 
C 832 620 1280 1073 1824 1596 
C 2214 1966 2669 2400 2669 3033 
C 2669 3788 2067 4224 1395 4224 
C 691 4224 262 3603 262 3027 
C 262 2777 448 2745 525 2745 
C 589 2745 781 2783 781 3007 
C 781 3206 614 3264 525 3264 
C 486 3264 448 3257 422 3244 
C 544 3788 915 4057 1306 4057 
C 1862 4057 2227 3616 2227 3033 
C 2227 2477 1901 1998 1536 1583 
L 262 147 
L 262 0 
L 2515 0 
L 2669 990 
z
" transform="scale(0.015625)"/>
                            </defs>
                            <use xlink:href="#CMR17-30" transform="scale(0.996264)"/>
                            <use xlink:href="#CMMI12-3a" transform="translate(45.690477 0) scale(0.996264)"/>
                            <use xlink:href="#CMR17-30" transform="translate(72.787654 0) scale(0.996264)"/>
                            <use xlink:href="#CMR17-30" transform="translate(118.478131 0) scale(0.996264)"/>
                            <use xlink:href="#CMR17-32" transform="translate(164.168608 0) scale(0.996264)"/>
                        </g>
                    </g>
                </g>
                <g id="xtick_2">
                    <g id="line2d_3">
                        <path d="M 172.793917 162.317271
L 172.793917 39.255956 
" clip-path="url(#p06b881991a)" style="fill: none; stroke-dasharray: 3.7,1.6; stroke-dashoffset: 0; stroke: #ffffff"/>
                    </g>
                    <g id="line2d_4">
                        <g>
                            <use xlink:href="#me70dc3db32" x="172.793917" y="162.317271"
                                 style="stroke: #000000; stroke-width: 0.8"/>
                        </g>
                    </g>
                    <g id="text_2">
                        <!-- $\mathdefault{0.004}$ -->
                        <g transform="translate(153.906599 181.770572) scale(0.18 -0.18)">
                            <defs>
                                <path id="CMR17-34" d="M 2150 4147
C 2150 4281 2144 4288 2029 4288 
L 128 1254 
L 128 1088 
L 1779 1088 
L 1779 460 
C 1779 230 1766 166 1318 166 
L 1197 166 
L 1197 0 
C 1402 12 1747 12 1965 12 
C 2182 12 2528 12 2733 0 
L 2733 166 
L 2611 166 
C 2163 166 2150 230 2150 460 
L 2150 1088 
L 2803 1088 
L 2803 1254 
L 2150 1254 
L 2150 4147 
z
M 1798 3723 
L 1798 1254 
L 256 1254 
L 1798 3723 
z
" transform="scale(0.015625)"/>
                            </defs>
                            <use xlink:href="#CMR17-30" transform="scale(0.996264)"/>
                            <use xlink:href="#CMMI12-3a" transform="translate(45.690477 0) scale(0.996264)"/>
                            <use xlink:href="#CMR17-30" transform="translate(72.787654 0) scale(0.996264)"/>
                            <use xlink:href="#CMR17-30" transform="translate(118.478131 0) scale(0.996264)"/>
                            <use xlink:href="#CMR17-34" transform="translate(164.168608 0) scale(0.996264)"/>
                        </g>
                    </g>
                </g>
                <g id="xtick_3">
                    <g id="line2d_5">
                        <path d="M 231.211719 162.317271
L 231.211719 39.255956 
" clip-path="url(#p06b881991a)" style="fill: none; stroke-dasharray: 3.7,1.6; stroke-dashoffset: 0; stroke: #ffffff"/>
                    </g>
                    <g id="line2d_6">
                        <g>
                            <use xlink:href="#me70dc3db32" x="231.211719" y="162.317271"
                                 style="stroke: #000000; stroke-width: 0.8"/>
                        </g>
                    </g>
                    <g id="text_3">
                        <!-- $\mathdefault{0.006}$ -->
                        <g transform="translate(212.324401 181.770572) scale(0.18 -0.18)">
                            <defs>
                                <path id="CMR17-36" d="M 678 2198
C 678 3712 1395 4076 1811 4076 
C 1946 4076 2272 4049 2400 3782 
C 2298 3782 2106 3782 2106 3558 
C 2106 3385 2246 3328 2336 3328 
C 2394 3328 2566 3353 2566 3571 
C 2566 3987 2246 4224 1805 4224 
C 1043 4224 243 3411 243 2011 
C 243 257 966 -128 1478 -128 
C 2099 -128 2688 431 2688 1295 
C 2688 2101 2170 2688 1517 2688 
C 1126 2688 838 2430 678 1979 
L 678 2198 
z
M 1478 25 
C 691 25 691 1212 691 1450 
C 691 1914 909 2585 1504 2585 
C 1613 2585 1926 2585 2138 2140 
C 2253 1889 2253 1624 2253 1302 
C 2253 954 2253 696 2118 438 
C 1978 173 1773 25 1478 25 
z
" transform="scale(0.015625)"/>
                            </defs>
                            <use xlink:href="#CMR17-30" transform="scale(0.996264)"/>
                            <use xlink:href="#CMMI12-3a" transform="translate(45.690477 0) scale(0.996264)"/>
                            <use xlink:href="#CMR17-30" transform="translate(72.787654 0) scale(0.996264)"/>
                            <use xlink:href="#CMR17-30" transform="translate(118.478131 0) scale(0.996264)"/>
                            <use xlink:href="#CMR17-36" transform="translate(164.168608 0) scale(0.996264)"/>
                        </g>
                    </g>
                </g>
                <g id="xtick_4">
                    <g id="line2d_7">
                        <path d="M 289.629522 162.317271
L 289.629522 39.255956 
" clip-path="url(#p06b881991a)" style="fill: none; stroke-dasharray: 3.7,1.6; stroke-dashoffset: 0; stroke: #ffffff"/>
                    </g>
                    <g id="line2d_8">
                        <g>
                            <use xlink:href="#me70dc3db32" x="289.629522" y="162.317271"
                                 style="stroke: #000000; stroke-width: 0.8"/>
                        </g>
                    </g>
                    <g id="text_4">
                        <!-- $\mathdefault{0.008}$ -->
                        <g transform="translate(270.742204 181.770572) scale(0.18 -0.18)">
                            <defs>
                                <path id="CMR17-38" d="M 1741 2289
C 2144 2494 2554 2803 2554 3298 
C 2554 3884 1990 4224 1472 4224 
C 890 4224 378 3800 378 3215 
C 378 3054 416 2777 666 2533 
C 730 2469 998 2276 1171 2154 
C 883 2006 211 1652 211 945 
C 211 282 838 -128 1459 -128 
C 2144 -128 2720 366 2720 1022 
C 2720 1607 2330 1877 2074 2051 
L 1741 2289 
z
M 902 2855 
C 851 2887 595 3086 595 3388 
C 595 3781 998 4076 1459 4076 
C 1965 4076 2336 3716 2336 3298 
C 2336 2700 1670 2359 1638 2359 
C 1632 2359 1626 2359 1574 2398 
L 902 2855 
z
M 2080 1536 
C 2176 1466 2483 1253 2483 861 
C 2483 385 2010 25 1472 25 
C 890 25 448 443 448 951 
C 448 1459 838 1884 1280 2083 
L 2080 1536 
z
" transform="scale(0.015625)"/>
                            </defs>
                            <use xlink:href="#CMR17-30" transform="scale(0.996264)"/>
                            <use xlink:href="#CMMI12-3a" transform="translate(45.690477 0) scale(0.996264)"/>
                            <use xlink:href="#CMR17-30" transform="translate(72.787654 0) scale(0.996264)"/>
                            <use xlink:href="#CMR17-30" transform="translate(118.478131 0) scale(0.996264)"/>
                            <use xlink:href="#CMR17-38" transform="translate(164.168608 0) scale(0.996264)"/>
                        </g>
                    </g>
                </g>
                <g id="xtick_5">
                    <g id="line2d_9">
                        <path d="M 348.047324 162.317271
L 348.047324 39.255956 
" clip-path="url(#p06b881991a)" style="fill: none; stroke-dasharray: 3.7,1.6; stroke-dashoffset: 0; stroke: #ffffff"/>
                    </g>
                    <g id="line2d_10">
                        <g>
                            <use xlink:href="#me70dc3db32" x="348.047324" y="162.317271"
                                 style="stroke: #000000; stroke-width: 0.8"/>
                        </g>
                    </g>
                    <g id="text_5">
                        <!-- $\mathdefault{0.010}$ -->
                        <g transform="translate(329.160007 181.770572) scale(0.18 -0.18)">
                            <defs>
                                <path id="CMR17-31" d="M 1702 4083
C 1702 4217 1696 4224 1606 4224 
C 1357 3927 979 3833 621 3820 
C 602 3820 570 3820 563 3808 
C 557 3795 557 3782 557 3648 
C 755 3648 1088 3686 1344 3839 
L 1344 467 
C 1344 243 1331 166 781 166 
L 589 166 
L 589 0 
C 896 6 1216 12 1523 12 
C 1830 12 2150 6 2458 0 
L 2458 166 
L 2266 166 
C 1715 166 1702 236 1702 467 
L 1702 4083 
z
" transform="scale(0.015625)"/>
                            </defs>
                            <use xlink:href="#CMR17-30" transform="scale(0.996264)"/>
                            <use xlink:href="#CMMI12-3a" transform="translate(45.690477 0) scale(0.996264)"/>
                            <use xlink:href="#CMR17-30" transform="translate(72.787654 0) scale(0.996264)"/>
                            <use xlink:href="#CMR17-31" transform="translate(118.478131 0) scale(0.996264)"/>
                            <use xlink:href="#CMR17-30" transform="translate(164.168608 0) scale(0.996264)"/>
                        </g>
                    </g>
                </g>
                <g id="text_6">
                    <!-- $\delta$ -->
                    <g transform="translate(212.718782 201.711936) scale(0.18 -0.18)">
                        <defs>
                            <path id="CMMI12-e" d="M 1664 2795
C 845 2597 256 1748 256 1001 
C 256 319 717 -64 1229 -64 
C 1984 -64 2496 970 2496 1818 
C 2496 2393 2227 2743 2067 2954 
C 1830 3254 1446 3745 1446 4052 
C 1446 4160 1530 4352 1811 4352 
C 2010 4352 2131 4281 2323 4173 
C 2381 4134 2528 4052 2611 4052 
C 2746 4052 2842 4186 2842 4288 
C 2842 4409 2746 4428 2522 4480 
C 2221 4544 2131 4544 2022 4544 
C 1914 4544 1286 4544 1286 3892 
C 1286 3579 1446 3216 1664 2795 
z
M 1734 2673 
C 1978 2169 2074 1978 2074 1563 
C 2074 1065 1805 64 1235 64 
C 986 64 627 229 627 823 
C 627 1238 864 2444 1734 2673 
z
" transform="scale(0.015625)"/>
                        </defs>
                        <use xlink:href="#CMMI12-e" transform="scale(0.996264)"/>
                    </g>
                </g>
            </g>
            <g id="matplotlib.axis_2">
                <g id="ytick_1">
                    <g id="line2d_11">
                        <path d="M 72.023207 126.513238
L 361.19133 126.513238 
" clip-path="url(#p06b881991a)" style="fill: none; stroke-dasharray: 3.7,1.6; stroke-dashoffset: 0; stroke: #ffffff"/>
                    </g>
                    <g id="line2d_12">
                        <defs>
                            <path id="me71871773c" d="M 0 0
L -3.5 0 
" style="stroke: #000000; stroke-width: 0.8"/>
                        </defs>
                        <g>
                            <use xlink:href="#me71871773c" x="72.023207" y="126.513238"
                                 style="stroke: #000000; stroke-width: 0.8"/>
                        </g>
                    </g>
                    <g id="text_7">
                        <!-- $\mathdefault{0.20230}$ -->
                        <g transform="translate(10.8 132.739888) scale(0.18 -0.18)">
                            <defs>
                                <path id="CMR17-33" d="M 1414 2176
C 1984 2176 2234 1673 2234 1094 
C 2234 322 1824 25 1453 25 
C 1114 25 563 193 390 691 
C 422 678 454 678 486 678 
C 640 678 755 780 755 947 
C 755 1132 614 1216 486 1216 
C 378 1216 211 1164 211 927 
C 211 335 787 -128 1466 -128 
C 2176 -128 2720 432 2720 1087 
C 2720 1718 2208 2176 1600 2246 
C 2086 2347 2554 2776 2554 3353 
C 2554 3856 2048 4224 1472 4224 
C 890 4224 378 3862 378 3347 
C 378 3123 544 3084 627 3084 
C 762 3084 877 3167 877 3334 
C 877 3500 762 3584 627 3584 
C 602 3584 570 3584 544 3571 
C 730 3999 1235 4076 1459 4076 
C 1683 4076 2106 3966 2106 3347 
C 2106 3167 2080 2851 1862 2574 
C 1670 2329 1453 2316 1242 2297 
C 1210 2297 1062 2284 1037 2284 
C 992 2278 966 2272 966 2227 
C 966 2182 973 2176 1101 2176 
L 1414 2176 
z
" transform="scale(0.015625)"/>
                            </defs>
                            <use xlink:href="#CMR17-30" transform="scale(0.996264)"/>
                            <use xlink:href="#CMMI12-3a" transform="translate(45.690477 0) scale(0.996264)"/>
                            <use xlink:href="#CMR17-32" transform="translate(72.787654 0) scale(0.996264)"/>
                            <use xlink:href="#CMR17-30" transform="translate(118.478131 0) scale(0.996264)"/>
                            <use xlink:href="#CMR17-32" transform="translate(164.168608 0) scale(0.996264)"/>
                            <use xlink:href="#CMR17-33" transform="translate(209.859086 0) scale(0.996264)"/>
                            <use xlink:href="#CMR17-30" transform="translate(255.549563 0) scale(0.996264)"/>
                        </g>
                    </g>
                </g>
                <g id="ytick_2">
                    <g id="line2d_13">
                        <path d="M 72.023207 71.034082
L 361.19133 71.034082 
" clip-path="url(#p06b881991a)" style="fill: none; stroke-dasharray: 3.7,1.6; stroke-dashoffset: 0; stroke: #ffffff"/>
                    </g>
                    <g id="line2d_14">
                        <g>
                            <use xlink:href="#me71871773c" x="72.023207" y="71.034082"
                                 style="stroke: #000000; stroke-width: 0.8"/>
                        </g>
                    </g>
                    <g id="text_8">
                        <!-- $\mathdefault{0.20231}$ -->
                        <g transform="translate(10.8 77.260732) scale(0.18 -0.18)">
                            <use xlink:href="#CMR17-30" transform="scale(0.996264)"/>
                            <use xlink:href="#CMMI12-3a" transform="translate(45.690477 0) scale(0.996264)"/>
                            <use xlink:href="#CMR17-32" transform="translate(72.787654 0) scale(0.996264)"/>
                            <use xlink:href="#CMR17-30" transform="translate(118.478131 0) scale(0.996264)"/>
                            <use xlink:href="#CMR17-32" transform="translate(164.168608 0) scale(0.996264)"/>
                            <use xlink:href="#CMR17-33" transform="translate(209.859086 0) scale(0.996264)"/>
                            <use xlink:href="#CMR17-31" transform="translate(255.549563 0) scale(0.996264)"/>
                        </g>
                    </g>
                </g>
            </g>
            <g id="line2d_15">
                <path d="M 85.167213 155.668381
L 114.376114 154.833586 
L 143.585015 153.77733 
L 172.793917 152.831715 
L 202.002818 151.779444 
L 231.211719 149.757 
L 260.42062 148.402794 
L 289.629522 143.078364 
L 318.838423 138.299814 
L 348.047324 130.788062 
" clip-path="url(#p06b881991a)" style="fill: none; stroke: #9467bd; stroke-width: 2.5; stroke-linecap: square"/>
            </g>
            <g id="line2d_16">
                <path d="M 85.167213 155.856128
L 114.376114 155.840104 
L 143.585015 155.852813 
L 172.793917 155.847169 
L 202.002818 155.762033 
L 231.211719 155.839592 
L 260.42062 155.783106 
L 289.629522 155.822155 
L 318.838423 155.663541 
L 348.047324 155.825036 
" clip-path="url(#p06b881991a)"
                      style="fill: none; stroke-dasharray: 1.5,2.475; stroke-dashoffset: 0; stroke: #6f4d8e; stroke-width: 1.5"/>
            </g>
            <g id="line2d_17">
                <path d="M 85.167213 154.856182
L 114.376114 151.195522 
L 143.585015 144.572896 
L 172.793917 137.52253 
L 202.002818 134.917861 
L 231.211719 126.391981 
L 260.42062 113.040977 
L 289.629522 105.681728 
L 318.838423 44.849652 
L 348.047324 62.920994 
" clip-path="url(#p06b881991a)"
                      style="fill: none; stroke-dasharray: 1.5,2.475; stroke-dashoffset: 0; stroke: #6f4d8e; stroke-width: 1.5"/>
            </g>
            <g id="line2d_18">
                <path d="M 85.167213 155.888798
L 114.376114 155.85032 
L 143.585015 156.077323 
L 172.793917 156.130611 
L 202.002818 156.022754 
L 231.211719 156.529243 
L 260.42062 155.909744 
L 289.629522 155.441494 
L 318.838423 156.723575 
L 348.047324 154.400946 
" clip-path="url(#p06b881991a)"
                      style="fill: none; stroke-dasharray: 5.55,2.4; stroke-dashoffset: 0; stroke: #6f4d8e; stroke-width: 1.5"/>
            </g>
            <g id="line2d_19">
                <path d="M 85.167213 155.447965
L 114.376114 153.816852 
L 143.585015 151.477338 
L 172.793917 149.532819 
L 202.002818 147.536134 
L 231.211719 142.984757 
L 260.42062 140.895845 
L 289.629522 130.715234 
L 318.838423 119.876053 
L 348.047324 107.175179 
" clip-path="url(#p06b881991a)"
                      style="fill: none; stroke-dasharray: 5.55,2.4; stroke-dashoffset: 0; stroke: #6f4d8e; stroke-width: 1.5"/>
            </g>
            <g id="patch_3">
                <path d="M 72.023207 162.317271
L 72.023207 39.255956 
" style="fill: none; stroke: #000000; stroke-width: 0.8; stroke-linejoin: miter; stroke-linecap: square"/>
            </g>
            <g id="patch_4">
                <path d="M 361.19133 162.317271
L 361.19133 39.255956 
" style="fill: none; stroke: #000000; stroke-width: 0.8; stroke-linejoin: miter; stroke-linecap: square"/>
            </g>
            <g id="patch_5">
                <path d="M 72.023207 162.317271
L 361.19133 162.317271 
" style="fill: none; stroke: #000000; stroke-width: 0.8; stroke-linejoin: miter; stroke-linecap: square"/>
            </g>
            <g id="patch_6">
                <path d="M 72.023207 39.255956
L 361.19133 39.255956 
" style="fill: none; stroke: #000000; stroke-width: 0.8; stroke-linejoin: miter; stroke-linecap: square"/>
            </g>
            <g id="text_9">
                <!-- $N = 7$ -->
                <g transform="translate(193.092521 33.255956) scale(0.18 -0.18)">
                    <defs>
                        <path id="CMMI12-4e" d="M 4736 3682
C 4806 3956 4909 4147 5395 4166 
C 5414 4166 5491 4172 5491 4281 
C 5491 4352 5434 4352 5408 4352 
C 5280 4352 4954 4339 4826 4339 
L 4518 4339 
C 4429 4339 4314 4352 4224 4352 
C 4186 4352 4109 4352 4109 4230 
C 4109 4166 4160 4166 4205 4166 
C 4589 4153 4614 4007 4614 3892 
C 4614 3835 4608 3816 4589 3726 
L 3866 854 
L 2496 4243 
C 2451 4345 2445 4352 2304 4352 
L 1523 4352 
C 1395 4352 1338 4352 1338 4230 
C 1338 4166 1382 4166 1504 4166 
C 1536 4166 1914 4166 1914 4109 
C 1914 4096 1901 4045 1894 4026 
L 1043 650 
C 966 338 813 204 390 185 
C 358 185 294 179 294 64 
C 294 0 358 0 378 0 
C 506 0 832 12 960 12 
L 1267 12 
C 1357 12 1466 0 1555 0 
C 1600 0 1670 0 1670 121 
C 1670 179 1606 185 1581 185 
C 1370 191 1165 230 1165 459 
C 1165 510 1178 567 1190 618 
L 2054 4026 
C 2093 3962 2093 3949 2118 3892 
L 3642 115 
C 3674 38 3686 0 3744 0 
C 3808 0 3814 19 3840 128 
L 4736 3682 
z
" transform="scale(0.015625)"/>
                        <path id="CMR17-3d" d="M 4115 2048
C 4211 2048 4307 2048 4307 2156 
C 4307 2272 4198 2272 4090 2272 
L 512 2272 
C 403 2272 294 2272 294 2156 
C 294 2048 390 2048 486 2048 
L 4115 2048 
z
M 4090 927 
C 4198 927 4307 927 4307 1043 
C 4307 1152 4211 1152 4115 1152 
L 486 1152 
C 390 1152 294 1152 294 1043 
C 294 927 403 927 512 927 
L 4090 927 
z
" transform="scale(0.015625)"/>
                        <path id="CMR17-37" d="M 2886 3955
L 2886 4096 
L 1382 4096 
C 634 4096 621 4166 595 4288 
L 480 4288 
L 294 3104 
L 410 3104 
C 429 3226 474 3552 550 3673 
C 589 3724 1062 3724 1171 3724 
L 2579 3724 
L 1869 2670 
C 1395 1961 1069 1003 1069 166 
C 1069 89 1069 -128 1299 -128 
C 1530 -128 1530 89 1530 172 
L 1530 466 
C 1530 1514 1709 2204 2003 2644 
L 2886 3955 
z
" transform="scale(0.015625)"/>
                    </defs>
                    <use xlink:href="#CMMI12-4e" transform="scale(0.996264)"/>
                    <use xlink:href="#CMR17-3d" transform="translate(116.195781 0) scale(0.996264)"/>
                    <use xlink:href="#CMR17-37" transform="translate(215.584578 0) scale(0.996264)"/>
                </g>
            </g>
            <g id="legend_1">
                <g id="patch_7">
                    <path d="M 84.623207 83.482641
L 176.64591 83.482641 
Q 180.24591 83.482641 180.24591 79.882641 
L 180.24591 51.855956 
Q 180.24591 48.255956 176.64591 48.255956 
L 84.623207 48.255956 
Q 81.023207 48.255956 81.023207 51.855956 
L 81.023207 79.882641 
Q 81.023207 83.482641 84.623207 83.482641 
z
" style="fill: #ffffff; opacity: 0.8; stroke: #cccccc; stroke-linejoin: miter"/>
                </g>
                <g id="line2d_20">
                    <path d="M 88.223207 66.494576
L 106.223207 66.494576 
L 124.223207 66.494576 
" style="fill: none; stroke: #9467bd; stroke-width: 2.5; stroke-linecap: square"/>
                </g>
                <g id="text_10">
                    <!-- $J^{[\hat{\mu}_N]}_{\infty}$ -->
                    <g transform="translate(138.623207 72.794576) scale(0.18 -0.18)">
                        <defs>
                            <path id="CMMI12-4a" d="M 3418 3911
C 3469 4102 3482 4166 3795 4166 
C 3898 4166 3962 4166 3962 4281 
C 3962 4352 3904 4352 3878 4352 
C 3770 4352 3648 4339 3533 4339 
L 3181 4339 
C 2912 4339 2630 4352 2362 4352 
C 2304 4352 2227 4352 2227 4236 
C 2227 4172 2278 4172 2278 4166 
L 2438 4166 
C 2950 4166 2950 4115 2950 4019 
C 2950 4013 2950 3968 2925 3866 
L 2189 953 
C 2022 304 1594 0 1286 0 
C 1069 0 762 99 685 428 
C 710 422 742 415 768 415 
C 979 415 1146 601 1146 787 
C 1146 889 1082 1024 890 1024 
C 774 1024 506 959 506 543 
C 506 149 838 -128 1299 -128 
C 1882 -128 2509 304 2662 908 
L 3418 3911 
z
" transform="scale(0.015625)"/>
                            <path id="CMR17-5b" d="M 1504 -1600
L 1504 -1376 
L 902 -1376 
L 902 4575 
L 1504 4575 
L 1504 4800 
L 678 4800 
L 678 -1600 
L 1504 -1600 
z
" transform="scale(0.015625)"/>
                            <path id="CMR17-5e" d="M 1466 4416
L 678 3532 
L 755 3456 
L 1466 4159 
L 2176 3456 
L 2253 3532 
L 1466 4416 
z
" transform="scale(0.015625)"/>
                            <path id="CMMI12-16" d="M 922 140
C 1082 -7 1318 -64 1536 -64 
C 1946 -64 2227 210 2374 408 
C 2438 70 2707 -64 2931 -64 
C 3123 -64 3277 51 3392 281 
C 3494 498 3584 887 3584 913 
C 3584 944 3558 970 3520 970 
C 3462 970 3456 938 3430 842 
C 3334 466 3213 64 2950 64 
C 2765 64 2752 229 2752 357 
C 2752 504 2810 734 2854 925 
L 3034 1615 
C 3059 1736 3130 2023 3162 2138 
C 3200 2291 3270 2566 3270 2591 
C 3270 2687 3194 2752 3098 2752 
C 3040 2752 2906 2726 2854 2534 
L 2406 759 
C 2374 632 2374 619 2291 517 
C 2214 408 1965 64 1562 64 
C 1203 64 1088 325 1088 625 
C 1088 811 1146 1034 1171 1143 
L 1459 2292 
C 1491 2413 1542 2617 1542 2656 
C 1542 2758 1459 2816 1376 2816 
C 1318 2816 1178 2796 1126 2592 
L 198 -1085 
C 192 -1116 179 -1154 179 -1191 
C 179 -1287 256 -1351 352 -1351 
C 538 -1351 576 -1204 621 -1029 
L 922 140 
z
" transform="scale(0.015625)"/>
                            <path id="CMR17-5d" d="M 915 4800
L 90 4800 
L 90 4575 
L 691 4575 
L 691 -1376 
L 90 -1376 
L 90 -1600 
L 915 -1600 
L 915 4800 
z
" transform="scale(0.015625)"/>
                            <path id="CMSY10-31" d="M 3251 1736
C 2906 2170 2829 2266 2630 2426 
C 2272 2713 1914 2828 1587 2828 
C 838 2828 352 2126 352 1379 
C 352 645 826 -64 1562 -64 
C 2298 -64 2829 517 3142 1028 
C 3488 594 3565 498 3763 338 
C 4122 51 4480 -64 4806 -64 
C 5555 -64 6042 638 6042 1385 
C 6042 2119 5568 2828 4832 2828 
C 4096 2828 3565 2247 3251 1736 
z
M 3418 1519 
C 3680 1979 4154 2624 4877 2624 
C 5555 2624 5901 1960 5901 1385 
C 5901 760 5472 242 4909 242 
C 4538 242 4250 511 4115 645 
C 3955 817 3808 1015 3418 1519 
z
M 2976 1245 
C 2714 785 2240 140 1517 140 
C 838 140 493 804 493 1379 
C 493 2004 922 2521 1485 2521 
C 1856 2521 2144 2253 2278 2119 
C 2438 1947 2586 1749 2976 1245 
z
" transform="scale(0.015625)"/>
                        </defs>
                        <use xlink:href="#CMMI12-4a" transform="scale(0.996264)"/>
                        <use xlink:href="#CMR17-5b" transform="translate(63.142671 51.691943) scale(0.697382)"/>
                        <use xlink:href="#CMR17-5e" transform="translate(86.999436 51.696473) scale(0.697382)"/>
                        <use xlink:href="#CMMI12-16" transform="translate(80.552329 51.691943) scale(0.697382)"/>
                        <use xlink:href="#CMMI12-4e" transform="translate(121.636134 41.231247) scale(0.498132)"/>
                        <use xlink:href="#CMR17-5d" transform="translate(166.395153 51.691943) scale(0.697382)"/>
                        <use xlink:href="#CMSY10-31" transform="translate(53.917955 -11.650205) scale(0.697382)"/>
                    </g>
                </g>
            </g>
        </g>
        <g id="axes_2">
            <g id="patch_8">
                <path d="M 399.02256 162.317271
L 688.190683 162.317271 
L 688.190683 39.255956 
L 399.02256 39.255956 
z
" style="fill: #f2f2f2"/>
            </g>
            <g id="PolyCollection_3">
                <defs>
                    <path id="mdaee180b64" d="M 412.166566 -104.262694
L 412.166566 -59.276453 
L 477.886594 -59.276426 
L 543.606622 -59.276425 
L 609.32665 -59.276425 
L 675.046678 -59.276425 
L 675.046678 -104.26269 
L 675.046678 -104.26269 
L 609.32665 -104.26269 
L 543.606622 -104.26269 
L 477.886594 -104.262689 
L 412.166566 -104.262694 
z
" style="stroke: #4a345e; stroke-opacity: 0.25"/>
                </defs>
                <g clip-path="url(#p17a3d1d368)">
                    <use xlink:href="#mdaee180b64" x="0" y="216"
                         style="fill: #4a345e; fill-opacity: 0.25; stroke: #4a345e; stroke-opacity: 0.25"/>
                </g>
            </g>
            <g id="PolyCollection_4">
                <defs>
                    <path id="m7f1d680def" d="M 412.166566 -171.147191
L 412.166566 -60.658681 
L 477.886594 -60.658467 
L 543.606622 -60.658457 
L 609.32665 -60.658457 
L 675.046678 -60.658457 
L 675.046678 -171.150348 
L 675.046678 -171.150348 
L 609.32665 -171.150348 
L 543.606622 -171.150342 
L 477.886594 -171.150211 
L 412.166566 -171.147191 
z
" style="stroke: #251a2f; stroke-opacity: 0.125"/>
                </defs>
                <g clip-path="url(#p17a3d1d368)">
                    <use xlink:href="#m7f1d680def" x="0" y="216"
                         style="fill: #251a2f; fill-opacity: 0.125; stroke: #251a2f; stroke-opacity: 0.125"/>
                </g>
            </g>
            <g id="matplotlib.axis_3">
                <g id="xtick_6">
                    <g id="line2d_21">
                        <path d="M 412.166566 162.317271
L 412.166566 39.255956 
" clip-path="url(#p17a3d1d368)" style="fill: none; stroke-dasharray: 3.7,1.6; stroke-dashoffset: 0; stroke: #ffffff"/>
                    </g>
                    <g id="line2d_22">
                        <g>
                            <use xlink:href="#me70dc3db32" x="412.166566" y="162.317271"
                                 style="stroke: #000000; stroke-width: 0.8"/>
                        </g>
                    </g>
                    <g id="text_11">
                        <!-- $\mathdefault{6}$ -->
                        <g transform="translate(408.054423 181.770572) scale(0.18 -0.18)">
                            <use xlink:href="#CMR17-36" transform="scale(0.996264)"/>
                        </g>
                    </g>
                </g>
                <g id="xtick_7">
                    <g id="line2d_23">
                        <path d="M 477.886594 162.317271
L 477.886594 39.255956 
" clip-path="url(#p17a3d1d368)" style="fill: none; stroke-dasharray: 3.7,1.6; stroke-dashoffset: 0; stroke: #ffffff"/>
                    </g>
                    <g id="line2d_24">
                        <g>
                            <use xlink:href="#me70dc3db32" x="477.886594" y="162.317271"
                                 style="stroke: #000000; stroke-width: 0.8"/>
                        </g>
                    </g>
                    <g id="text_12">
                        <!-- $\mathdefault{7}$ -->
                        <g transform="translate(473.774451 181.770572) scale(0.18 -0.18)">
                            <use xlink:href="#CMR17-37" transform="scale(0.996264)"/>
                        </g>
                    </g>
                </g>
                <g id="xtick_8">
                    <g id="line2d_25">
                        <path d="M 543.606622 162.317271
L 543.606622 39.255956 
" clip-path="url(#p17a3d1d368)" style="fill: none; stroke-dasharray: 3.7,1.6; stroke-dashoffset: 0; stroke: #ffffff"/>
                    </g>
                    <g id="line2d_26">
                        <g>
                            <use xlink:href="#me70dc3db32" x="543.606622" y="162.317271"
                                 style="stroke: #000000; stroke-width: 0.8"/>
                        </g>
                    </g>
                    <g id="text_13">
                        <!-- $\mathdefault{8}$ -->
                        <g transform="translate(539.494479 181.770572) scale(0.18 -0.18)">
                            <use xlink:href="#CMR17-38" transform="scale(0.996264)"/>
                        </g>
                    </g>
                </g>
                <g id="xtick_9">
                    <g id="line2d_27">
                        <path d="M 609.32665 162.317271
L 609.32665 39.255956 
" clip-path="url(#p17a3d1d368)" style="fill: none; stroke-dasharray: 3.7,1.6; stroke-dashoffset: 0; stroke: #ffffff"/>
                    </g>
                    <g id="line2d_28">
                        <g>
                            <use xlink:href="#me70dc3db32" x="609.32665" y="162.317271"
                                 style="stroke: #000000; stroke-width: 0.8"/>
                        </g>
                    </g>
                    <g id="text_14">
                        <!-- $\mathdefault{9}$ -->
                        <g transform="translate(605.214507 181.770572) scale(0.18 -0.18)">
                            <defs>
                                <path id="CMR17-39" d="M 2253 1871
C 2253 448 1670 25 1190 25 
C 1043 25 685 43 538 281 
C 704 256 826 345 826 505 
C 826 678 685 736 595 736 
C 538 736 365 710 365 492 
C 365 68 742 -128 1203 -128 
C 1939 -128 2688 665 2688 2090 
C 2688 3857 1971 4224 1485 4224 
C 851 4224 243 3664 243 2800 
C 243 2000 762 1408 1414 1408 
C 1952 1408 2189 1910 2253 2122 
L 2253 1871 
z
M 1427 1510 
C 1254 1510 1011 1542 813 1929 
C 678 2181 678 2477 678 2793 
C 678 3174 678 3438 858 3722 
C 947 3857 1114 4076 1485 4076 
C 2240 4076 2240 2909 2240 2651 
C 2240 2193 2035 1510 1427 1510 
z
" transform="scale(0.015625)"/>
                            </defs>
                            <use xlink:href="#CMR17-39" transform="scale(0.996264)"/>
                        </g>
                    </g>
                </g>
                <g id="xtick_10">
                    <g id="line2d_29">
                        <path d="M 675.046678 162.317271
L 675.046678 39.255956 
" clip-path="url(#p17a3d1d368)" style="fill: none; stroke-dasharray: 3.7,1.6; stroke-dashoffset: 0; stroke: #ffffff"/>
                    </g>
                    <g id="line2d_30">
                        <g>
                            <use xlink:href="#me70dc3db32" x="675.046678" y="162.317271"
                                 style="stroke: #000000; stroke-width: 0.8"/>
                        </g>
                    </g>
                    <g id="text_15">
                        <!-- $\mathdefault{10}$ -->
                        <g transform="translate(666.822392 181.770572) scale(0.18 -0.18)">
                            <use xlink:href="#CMR17-31" transform="scale(0.996264)"/>
                            <use xlink:href="#CMR17-30" transform="translate(45.690477 0) scale(0.996264)"/>
                        </g>
                    </g>
                </g>
                <g id="text_16">
                    <!-- $N$ -->
                    <g transform="translate(536.576261 201.711936) scale(0.18 -0.18)">
                        <use xlink:href="#CMMI12-4e" transform="scale(0.996264)"/>
                    </g>
                </g>
            </g>
            <g id="matplotlib.axis_4">
                <g id="ytick_3">
                    <g id="line2d_31">
                        <path d="M 399.02256 117.932763
L 688.190683 117.932763 
" clip-path="url(#p17a3d1d368)" style="fill: none; stroke-dasharray: 3.7,1.6; stroke-dashoffset: 0; stroke: #ffffff"/>
                    </g>
                    <g id="line2d_32">
                        <g>
                            <use xlink:href="#me71871773c" x="399.02256" y="117.932763"
                                 style="stroke: #000000; stroke-width: 0.8"/>
                        </g>
                    </g>
                    <g id="text_17">
                        <!-- $\mathdefault{6}$ -->
                        <g transform="translate(383.798274 124.159413) scale(0.18 -0.18)">
                            <use xlink:href="#CMR17-36" transform="scale(0.996264)"/>
                        </g>
                    </g>
                </g>
                <g id="ytick_4">
                    <g id="line2d_33">
                        <path d="M 399.02256 59.115472
L 688.190683 59.115472 
" clip-path="url(#p17a3d1d368)" style="fill: none; stroke-dasharray: 3.7,1.6; stroke-dashoffset: 0; stroke: #ffffff"/>
                    </g>
                    <g id="line2d_34">
                        <g>
                            <use xlink:href="#me71871773c" x="399.02256" y="59.115472"
                                 style="stroke: #000000; stroke-width: 0.8"/>
                        </g>
                    </g>
                    <g id="text_18">
                        <!-- $\mathdefault{8}$ -->
                        <g transform="translate(383.798274 65.342122) scale(0.18 -0.18)">
                            <use xlink:href="#CMR17-38" transform="scale(0.996264)"/>
                        </g>
                    </g>
                </g>
                <g id="text_19">
                    <!-- $\times\mathdefault{10^{−6}}\mathdefault{+2.0229 \times 10^{−1}}$ -->
                    <g transform="translate(399.02256 36.255956) scale(0.1 -0.1)">
                        <defs>
                            <path id="CMSY10-2" d="M 2490 1775
L 1210 3046 
C 1133 3123 1120 3136 1069 3136 
C 1005 3136 941 3078 941 3008 
C 941 2963 954 2950 1024 2880 
L 2304 1596 
L 1024 313 
C 954 243 941 230 941 185 
C 941 115 1005 57 1069 57 
C 1120 57 1133 70 1210 147 
L 2483 1418 
L 3808 95 
C 3821 89 3866 57 3904 57 
C 3981 57 4032 115 4032 185 
C 4032 198 4032 223 4013 255 
C 4006 268 2989 1271 2669 1596 
L 3840 2765 
C 3872 2803 3968 2886 4000 2925 
C 4006 2937 4032 2963 4032 3008 
C 4032 3078 3981 3136 3904 3136 
C 3853 3136 3827 3110 3757 3040 
L 2490 1775 
z
" transform="scale(0.015625)"/>
                            <path id="CMSY10-0" d="M 4218 1472
C 4326 1472 4442 1472 4442 1600 
C 4442 1728 4326 1728 4218 1728 
L 755 1728 
C 646 1728 531 1728 531 1600 
C 531 1472 646 1472 755 1472 
L 4218 1472 
z
" transform="scale(0.015625)"/>
                            <path id="CMR17-2b" d="M 2413 1472
L 4109 1472 
C 4198 1472 4307 1472 4307 1580 
C 4307 1696 4205 1696 4109 1696 
L 2413 1696 
L 2413 3385 
C 2413 3475 2413 3584 2304 3584 
C 2189 3584 2189 3481 2189 3385 
L 2189 1696 
L 493 1696 
C 403 1696 294 1696 294 1587 
C 294 1472 397 1472 493 1472 
L 2189 1472 
L 2189 -194 
C 2189 -282 2189 -391 2298 -391 
C 2413 -391 2413 -289 2413 -194 
L 2413 1472 
z
" transform="scale(0.015625)"/>
                        </defs>
                        <use xlink:href="#CMSY10-2" transform="scale(0.996264)"/>
                        <use xlink:href="#CMR17-31" transform="translate(77.487468 0) scale(0.996264)"/>
                        <use xlink:href="#CMR17-30" transform="translate(123.177945 0) scale(0.996264)"/>
                        <use xlink:href="#CMSY10-0" transform="translate(168.868422 36.153639) scale(0.697382)"/>
                        <use xlink:href="#CMR17-36" transform="translate(223.109415 36.153639) scale(0.697382)"/>
                        <use xlink:href="#CMR17-2b" transform="translate(277.729936 0) scale(0.996264)"/>
                        <use xlink:href="#CMR17-32" transform="translate(371.583931 0) scale(0.996264)"/>
                        <use xlink:href="#CMMI12-3a" transform="translate(417.274409 0) scale(0.996264)"/>
                        <use xlink:href="#CMR17-30" transform="translate(444.371586 0) scale(0.996264)"/>
                        <use xlink:href="#CMR17-32" transform="translate(490.062063 0) scale(0.996264)"/>
                        <use xlink:href="#CMR17-32" transform="translate(535.75254 0) scale(0.996264)"/>
                        <use xlink:href="#CMR17-39" transform="translate(581.443017 0) scale(0.996264)"/>
                        <use xlink:href="#CMSY10-2" transform="translate(649.272701 0) scale(0.996264)"/>
                        <use xlink:href="#CMR17-31" transform="translate(748.899376 0) scale(0.996264)"/>
                        <use xlink:href="#CMR17-30" transform="translate(794.589853 0) scale(0.996264)"/>
                        <use xlink:href="#CMSY10-0" transform="translate(840.28033 36.153639) scale(0.697382)"/>
                        <use xlink:href="#CMR17-31" transform="translate(894.521323 36.153639) scale(0.697382)"/>
                    </g>
                </g>
            </g>
            <g id="line2d_35">
                <path d="M 412.166566 134.230427
L 477.886594 134.230443 
L 543.606622 134.230443 
L 609.32665 134.230443 
L 675.046678 134.230443 
" clip-path="url(#p17a3d1d368)" style="fill: none; stroke: #9467bd; stroke-width: 2.5; stroke-linecap: square"/>
                <defs>
                    <path id="mea24aa4817" d="M -5 5
L 5 -5 
M -5 -5 
L 5 5 
" style="stroke: #b94dbd; stroke-width: 2"/>
                </defs>
                <g clip-path="url(#p17a3d1d368)">
                    <use xlink:href="#mea24aa4817" x="412.166566" y="134.230427"
                         style="fill: #6f81bd; stroke: #b94dbd; stroke-width: 2"/>
                    <use xlink:href="#mea24aa4817" x="477.886594" y="134.230443"
                         style="fill: #6f81bd; stroke: #b94dbd; stroke-width: 2"/>
                    <use xlink:href="#mea24aa4817" x="543.606622" y="134.230443"
                         style="fill: #6f81bd; stroke: #b94dbd; stroke-width: 2"/>
                    <use xlink:href="#mea24aa4817" x="609.32665" y="134.230443"
                         style="fill: #6f81bd; stroke: #b94dbd; stroke-width: 2"/>
                    <use xlink:href="#mea24aa4817" x="675.046678" y="134.230443"
                         style="fill: #6f81bd; stroke: #b94dbd; stroke-width: 2"/>
                </g>
            </g>
            <g id="line2d_36">
                <path d="M 412.166566 155.341319
L 477.886594 155.341533 
L 543.606622 155.341543 
L 609.32665 155.341543 
L 675.046678 155.341543 
" clip-path="url(#p17a3d1d368)"
                      style="fill: none; stroke-dasharray: 1.5,2.475; stroke-dashoffset: 0; stroke: #6f4d8e; stroke-width: 1.5"/>
            </g>
            <g id="line2d_37">
                <path d="M 412.166566 44.852809
L 477.886594 44.849789 
L 543.606622 44.849658 
L 609.32665 44.849652 
L 675.046678 44.849652 
" clip-path="url(#p17a3d1d368)"
                      style="fill: none; stroke-dasharray: 1.5,2.475; stroke-dashoffset: 0; stroke: #6f4d8e; stroke-width: 1.5"/>
            </g>
            <g id="line2d_38">
                <path d="M 412.166566 156.723547
L 477.886594 156.723574 
L 543.606622 156.723575 
L 609.32665 156.723575 
L 675.046678 156.723575 
" clip-path="url(#p17a3d1d368)"
                      style="fill: none; stroke-dasharray: 5.55,2.4; stroke-dashoffset: 0; stroke: #6f4d8e; stroke-width: 1.5"/>
            </g>
            <g id="line2d_39">
                <path d="M 412.166566 111.737306
L 477.886594 111.737311 
L 543.606622 111.73731 
L 609.32665 111.73731 
L 675.046678 111.73731 
" clip-path="url(#p17a3d1d368)"
                      style="fill: none; stroke-dasharray: 5.55,2.4; stroke-dashoffset: 0; stroke: #6f4d8e; stroke-width: 1.5"/>
            </g>
            <g id="patch_9">
                <path d="M 399.02256 162.317271
L 399.02256 39.255956 
" style="fill: none; stroke: #000000; stroke-width: 0.8; stroke-linejoin: miter; stroke-linecap: square"/>
            </g>
            <g id="patch_10">
                <path d="M 688.190683 162.317271
L 688.190683 39.255956 
" style="fill: none; stroke: #000000; stroke-width: 0.8; stroke-linejoin: miter; stroke-linecap: square"/>
            </g>
            <g id="patch_11">
                <path d="M 399.02256 162.317271
L 688.190683 162.317271 
" style="fill: none; stroke: #000000; stroke-width: 0.8; stroke-linejoin: miter; stroke-linecap: square"/>
            </g>
            <g id="patch_12">
                <path d="M 399.02256 39.255956
L 688.190683 39.255956 
" style="fill: none; stroke: #000000; stroke-width: 0.8; stroke-linejoin: miter; stroke-linecap: square"/>
            </g>
            <g id="text_20">
                <!-- $\delta_A = \delta_B = 0.005$ -->
                <g transform="translate(483.980367 23.2533) scale(0.18 -0.18)">
                    <defs>
                        <path id="CMMI12-41" d="M 1088 720
C 864 335 646 205 339 185 
C 269 179 218 179 218 64 
C 218 25 250 0 294 0 
C 410 0 698 12 813 12 
C 998 12 1203 0 1382 0 
C 1421 0 1498 0 1498 121 
C 1498 179 1446 185 1408 185 
C 1261 198 1139 250 1139 407 
C 1139 498 1178 570 1261 714 
L 1747 1536 
L 3379 1536 
C 3386 1477 3386 1425 3392 1366 
C 3411 1196 3488 518 3488 394 
C 3488 198 3162 185 3059 185 
C 2989 185 2918 185 2918 70 
C 2918 0 2976 0 3014 0 
C 3123 0 3251 12 3360 12 
L 3725 12 
C 4115 12 4397 0 4403 0 
C 4448 0 4518 0 4518 121 
C 4518 185 4461 185 4365 185 
C 4013 185 4006 244 3987 440 
L 3597 4403 
C 3584 4531 3558 4544 3488 4544 
C 3424 4544 3386 4531 3328 4435 
L 1088 720 
z
M 1856 1721 
L 3142 3831 
L 3360 1721 
L 1856 1721 
z
" transform="scale(0.015625)"/>
                        <path id="CMMI12-42" d="M 2342 3915
C 2400 4153 2426 4166 2675 4166 
L 3507 4166 
C 4230 4166 4230 3547 4230 3489 
C 4230 2967 3712 2304 2867 2304 
L 1946 2304 
L 2342 3915 
z
M 3424 2252 
C 4122 2381 4755 2871 4755 3463 
C 4755 3966 4314 4352 3590 4352 
L 1536 4352 
C 1414 4352 1357 4352 1357 4230 
C 1357 4166 1414 4166 1510 4166 
C 1901 4166 1901 4114 1901 4043 
C 1901 4031 1901 3992 1875 3895 
L 1011 469 
C 954 248 941 185 493 185 
C 371 185 307 185 307 70 
C 307 0 346 0 474 0 
L 2669 0 
C 3648 0 4403 733 4403 1369 
C 4403 1886 3942 2201 3424 2252 
z
M 2515 185 
L 1651 185 
C 1562 185 1549 185 1510 191 
C 1440 198 1434 210 1434 261 
C 1434 305 1446 343 1459 399 
L 1907 2176 
L 3110 2176 
C 3866 2176 3866 1483 3866 1432 
C 3866 828 3309 185 2515 185 
z
" transform="scale(0.015625)"/>
                        <path id="CMR17-35" d="M 730 3750
C 794 3724 1056 3641 1325 3641 
C 1920 3641 2246 3961 2432 4140 
C 2432 4191 2432 4224 2394 4224 
C 2387 4224 2374 4224 2323 4198 
C 2099 4102 1837 4032 1517 4032 
C 1325 4032 1037 4055 723 4191 
C 653 4224 640 4224 634 4224 
C 602 4224 595 4217 595 4090 
L 595 2231 
C 595 2113 595 2080 659 2080 
C 691 2080 704 2093 736 2139 
C 941 2435 1222 2560 1542 2560 
C 1766 2560 2246 2415 2246 1293 
C 2246 1087 2246 716 2054 422 
C 1894 159 1645 25 1370 25 
C 947 25 518 319 403 812 
C 429 806 480 793 506 793 
C 589 793 749 838 749 1036 
C 749 1209 627 1280 506 1280 
C 358 1280 262 1190 262 1011 
C 262 454 704 -128 1382 -128 
C 2042 -128 2669 441 2669 1267 
C 2669 2054 2170 2662 1549 2662 
C 1222 2662 947 2540 730 2304 
L 730 3750 
z
" transform="scale(0.015625)"/>
                    </defs>
                    <use xlink:href="#CMMI12-e" transform="scale(0.996264)"/>
                    <use xlink:href="#CMMI12-41" transform="translate(43.205457 -14.943915) scale(0.697382)"/>
                    <use xlink:href="#CMR17-3d" transform="translate(122.566894 0) scale(0.996264)"/>
                    <use xlink:href="#CMMI12-e" transform="translate(221.955691 0) scale(0.996264)"/>
                    <use xlink:href="#CMMI12-42" transform="translate(265.161148 -14.943915) scale(0.697382)"/>
                    <use xlink:href="#CMR17-3d" transform="translate(348.727915 0) scale(0.996264)"/>
                    <use xlink:href="#CMR17-30" transform="translate(448.116712 0) scale(0.996264)"/>
                    <use xlink:href="#CMMI12-3a" transform="translate(493.807189 0) scale(0.996264)"/>
                    <use xlink:href="#CMR17-30" transform="translate(520.904366 0) scale(0.996264)"/>
                    <use xlink:href="#CMR17-30" transform="translate(566.594843 0) scale(0.996264)"/>
                    <use xlink:href="#CMR17-35" transform="translate(612.28532 0) scale(0.996264)"/>
                </g>
            </g>
            <g id="legend_2">
                <g id="patch_13">
                    <path d="M 411.62256 83.482641
L 503.645264 83.482641 
Q 507.245264 83.482641 507.245264 79.882641 
L 507.245264 51.855956 
Q 507.245264 48.255956 503.645264 48.255956 
L 411.62256 48.255956 
Q 408.02256 48.255956 408.02256 51.855956 
L 408.02256 79.882641 
Q 408.02256 83.482641 411.62256 83.482641 
z
" style="fill: #ffffff; opacity: 0.8; stroke: #cccccc; stroke-linejoin: miter"/>
                </g>
                <g id="line2d_40">
                    <path d="M 415.22256 66.494576
L 433.22256 66.494576 
L 451.22256 66.494576 
" style="fill: none; stroke: #9467bd; stroke-width: 2.5; stroke-linecap: square"/>
                    <g>
                        <use xlink:href="#mea24aa4817" x="433.22256" y="66.494576"
                             style="fill: #6f81bd; stroke: #b94dbd; stroke-width: 2"/>
                    </g>
                </g>
                <g id="text_21">
                    <!-- $J^{[\hat{\mu}_N]}_{\infty}$ -->
                    <g transform="translate(465.62256 72.794576) scale(0.18 -0.18)">
                        <use xlink:href="#CMMI12-4a" transform="scale(0.996264)"/>
                        <use xlink:href="#CMR17-5b" transform="translate(63.142671 51.691943) scale(0.697382)"/>
                        <use xlink:href="#CMR17-5e" transform="translate(86.999436 51.696473) scale(0.697382)"/>
                        <use xlink:href="#CMMI12-16" transform="translate(80.552329 51.691943) scale(0.697382)"/>
                        <use xlink:href="#CMMI12-4e" transform="translate(121.636134 41.231247) scale(0.498132)"/>
                        <use xlink:href="#CMR17-5d" transform="translate(166.395153 51.691943) scale(0.697382)"/>
                        <use xlink:href="#CMSY10-31" transform="translate(53.917955 -11.650205) scale(0.697382)"/>
                    </g>
                </g>
            </g>
        </g>
    </g>
    <defs>
        <clipPath id="p06b881991a">
            <rect x="72.023207" y="39.255956" width="289.168123" height="123.061316"/>
        </clipPath>
        <clipPath id="p17a3d1d368">
            <rect x="399.02256" y="39.255956" width="289.168123" height="123.061316"/>
        </clipPath>
    </defs>
</svg>
